<svg width="131" height="144" viewBox="0 0 131 144" fill="none" xmlns="http://www.w3.org/2000/svg">
<g opacity="0.3">
<path d="M105.556 70.3169C93.5479 62.6166 77.7187 63.4466 77.7187 63.4466H51.0148V8.2074C51.0148 8.2074 82.7991 8.2074 88.4674 8.2074C94.1357 8.2074 97.4527 13.1411 99.3001 19.0893C101.19 25.0374 101.567 31.4927 101.567 31.4927H107.194V0.0460205H19.9863V8.76072C19.9863 8.76072 21.4979 8.85294 26.4943 8.85294C31.4908 8.85294 33.6321 18.8126 33.6321 18.8126C33.6321 18.8126 33.6321 108.173 33.6321 117.21C33.6321 126.294 32.9603 128.23 29.1395 132.288C25.3187 136.346 19.9443 134.824 19.9443 134.824V144H70.5389C70.5389 144 90.3988 144 95.8151 143.078C101.231 142.156 124.24 130.951 125.332 109.741C126.508 87.8846 117.565 78.0172 105.556 70.3169ZM90.7347 128.507C81.2456 135.931 68.1876 133.994 59.2443 132.888C50.3011 131.781 51.0568 122.328 51.0568 122.328V71.7002C51.0568 71.7002 68.3556 71.7002 73.2681 71.7002C78.1805 71.7002 83.177 72.6685 88.3834 75.8962C93.5898 79.0777 104.674 86.8702 104.884 100.058C105.136 113.245 100.224 121.083 90.7347 128.507Z" fill="black"/>
<path d="M22.3794 34.3976C15.4935 34.3976 9.90918 28.265 9.90918 20.7031C9.90918 13.1411 15.4935 7.00854 22.3794 7.00854C29.2653 7.00854 34.8496 13.1411 34.8496 20.7031C34.8496 28.265 29.2233 34.3976 22.3794 34.3976ZM22.3794 8.7146C16.3752 8.7146 11.5047 14.0633 11.5047 20.657C11.5047 27.2506 16.3752 32.5993 22.3794 32.5993C28.3835 32.5993 33.254 27.2506 33.254 20.657C33.254 14.1094 28.3835 8.7146 22.3794 8.7146Z" fill="black"/>
<path d="M22.3794 136.761C15.7455 136.761 10.3291 130.813 10.3291 123.527C10.3291 116.242 15.7455 110.294 22.3794 110.294C29.0134 110.294 34.4298 116.242 34.4298 123.527C34.4298 130.813 29.0134 136.761 22.3794 136.761ZM22.3794 112.092C16.6272 112.092 11.9246 117.256 11.9246 123.573C11.9246 129.89 16.6272 135.055 22.3794 135.055C28.1317 135.055 32.8342 129.89 32.8342 123.573C32.8342 117.256 28.1317 112.092 22.3794 112.092Z" fill="black"/>
<path d="M86.3256 34.3977C79.4397 34.3977 73.8555 28.2652 73.8555 20.7032C73.8555 13.1412 79.4397 7.00867 86.3256 7.00867C93.2115 7.00867 98.7958 13.1412 98.7958 20.7032C98.7958 28.2652 93.2115 34.3977 86.3256 34.3977ZM86.3256 8.71472C80.3215 8.71472 75.451 14.0634 75.451 20.6571C75.451 27.2507 80.3215 32.5994 86.3256 32.5994C92.3298 32.5994 97.2003 27.2507 97.2003 20.6571C97.2423 14.1095 92.3718 8.71472 86.3256 8.71472Z" fill="black"/>
<path d="M65.71 143.17C48.3273 143.17 31.9943 135.746 19.692 122.236C7.3898 108.726 0.629883 90.7897 0.629883 71.7003C0.629883 52.611 7.3898 34.6744 19.692 21.1643C31.9943 7.65422 48.3273 0.230591 65.71 0.230591C83.0927 0.230591 99.4257 7.65422 111.728 21.1643C124.03 34.6744 130.79 52.611 130.79 71.7003C130.79 90.7897 124.03 108.726 111.728 122.236C99.4257 135.746 83.0927 143.17 65.71 143.17ZM65.71 1.98275C30.6927 1.98275 2.22539 33.245 2.22539 71.7003C2.22539 110.156 30.6927 141.418 65.71 141.418C100.727 141.418 129.195 110.156 129.195 71.7003C129.195 33.2911 100.727 1.98275 65.71 1.98275Z" fill="black"/>
<path d="M129.682 0.277436L0.266602 142.398L1.39479 143.637L130.81 1.51639L129.682 0.277436Z" fill="black"/>
<path d="M1.38015 0.222457L0.251953 1.46143L129.667 143.582L130.795 142.343L1.38015 0.222457Z" fill="black"/>
<path d="M131 143.862H0V0H131V143.862ZM1.59551 142.11H129.446V1.75216H1.59551V142.11Z" fill="black"/>
</g>
</svg>
