<svg width="70" height="70" viewBox="0 0 70 70" fill="none" xmlns="http://www.w3.org/2000/svg">
<path d="M33.3307 37.2444C33.7817 37.4251 34.3005 37.3257 34.6459 36.9918L39.8269 31.9835L45.0079 36.9918C45.3532 37.3257 45.8721 37.4251 46.3231 37.2449C46.774 37.0642 47.0682 36.6387 47.0682 36.1668V22.9843C49.2675 21.0827 50.572 18.3983 50.6813 15.5478C50.7907 12.6973 49.6959 9.92641 47.6485 7.87278C45.601 5.81862 42.7779 4.6582 39.8268 4.6582C36.8758 4.6582 34.0526 5.81863 32.0052 7.87278C29.9577 9.92641 28.8629 12.6974 28.9723 15.5478C29.0817 18.3984 30.3861 21.0828 32.5854 22.9843V36.1668C32.5854 36.6387 32.8796 37.0642 33.3306 37.2444H33.3307ZM44.6546 33.3501L40.6805 29.5084C40.4542 29.2897 40.1471 29.1668 39.8271 29.1668C39.507 29.1668 39.1999 29.2897 38.9736 29.5084L34.9995 33.3501V24.5688C38.04 26.0328 41.6143 26.0328 44.6547 24.5688L44.6546 33.3501ZM42.2597 16.5258L42.6891 18.8499L40.3702 17.7191C40.0286 17.5525 39.6251 17.5525 39.2829 17.7191L36.964 18.8499L37.3935 16.5258H37.394C37.4662 16.1362 37.3293 15.7383 37.0303 15.4685L35.2567 13.8644L37.7556 13.5274C38.1446 13.4748 38.4829 13.243 38.6623 12.9055L39.8272 10.7175L40.9915 12.906C41.1715 13.2435 41.5093 13.4758 41.8983 13.5279L44.3972 13.8649L42.6236 15.4691C42.3251 15.7394 42.1882 16.1368 42.2599 16.5259L42.2597 16.5258ZM35.8954 21.9847L39.827 20.067L43.7586 21.9842C43.9181 22.0613 44.0932 22.1035 44.2715 22.1076C42.9375 22.9087 41.3976 23.3332 39.827 23.3332C38.2564 23.3332 36.7165 22.9087 35.3824 22.1076C35.5608 22.104 35.7359 22.0618 35.8954 21.9847ZM45.4687 21.2394L45.4681 21.2399C45.5134 21.0759 45.5209 20.905 45.4902 20.7378L44.751 16.7394L47.8927 13.8987V13.8992C47.9837 13.8164 48.0602 13.7205 48.1206 13.6153C48.6868 16.431 47.6793 19.3269 45.4686 21.24L45.4687 21.2394ZM39.827 7.00053C41.4918 7.00209 43.119 7.47866 44.5048 8.37028C45.8912 9.26144 46.9741 10.5287 47.6185 12.0119C47.4989 11.9515 47.369 11.9109 47.2349 11.8916L42.8513 11.3005L40.9002 7.63321C40.6933 7.24466 40.279 7.00039 39.827 7.00039C39.3749 7.00039 38.9606 7.24466 38.7537 7.63321L36.8022 11.301L32.4197 11.8916C32.2856 11.9109 32.1563 11.9515 32.0361 12.0119C32.6805 10.5286 33.7634 9.26138 35.1498 8.3703C36.5356 7.47862 38.1622 7.00253 39.827 7.00053ZM31.3787 15.1673C31.3792 14.6465 31.431 14.1272 31.5333 13.6157C31.5937 13.7209 31.6707 13.8167 31.7612 13.8995L34.9029 16.7403L34.1637 20.7387V20.7382C34.133 20.9054 34.1405 21.0762 34.1858 21.2403C32.3991 19.6939 31.3783 17.4856 31.3787 15.1673Z" fill="#FF5001"/>
<path d="M50.8261 0H22.9323C21.9721 0.00104162 21.0518 0.370312 20.3729 1.02605C19.6946 1.68232 19.3126 2.57194 19.3115 3.50009V8.16683C19.3115 8.4762 19.4387 8.77309 19.665 8.99184C19.8913 9.21059 20.1984 9.33351 20.5184 9.33351H24.1391V45.5007C24.1402 46.4288 24.5222 47.3185 25.2011 47.9742C25.8794 48.6305 26.7997 48.9997 27.7598 49.0008H55.6192C56.8724 48.9992 58.0734 48.5174 58.9598 47.6612C59.8456 46.8044 60.3439 45.6434 60.3456 44.4319V40.834C60.3456 40.5246 60.2184 40.2277 59.9921 40.009C59.7658 39.7902 59.4587 39.6673 59.1387 39.6673H55.518V31.5084H53.1042V39.6673H30.1731C29.5066 39.6673 28.9662 40.1897 28.9662 40.834V45.5007C28.9662 46.145 28.4258 46.6674 27.7593 46.6674C27.0928 46.6674 26.5524 46.145 26.5524 45.5007V3.50012C26.5524 3.10271 26.4824 2.70792 26.345 2.33343H50.8264C51.4304 2.33395 52.009 2.56625 52.4363 2.97928C52.8636 3.39232 53.1039 3.9517 53.1044 4.53557V27.9999H55.5182V23.3332H60.4816C61.0856 23.3337 61.6642 23.566 62.0915 23.979C62.5188 24.3921 62.7591 24.9514 62.7596 25.5353V60.6665H39.8285C39.162 60.6665 38.6216 61.1889 38.6216 61.8332V66.4999C38.6216 67.1442 38.0812 67.6666 37.4147 67.6666C36.7482 67.6666 36.2078 67.1442 36.2078 66.4999V51.269H33.794V66.4999C33.7951 67.4281 34.1771 68.3177 34.8554 68.974C35.5343 69.6297 36.4546 69.999 37.4148 70H65.2741C66.5274 69.9984 67.7284 69.5167 68.6147 68.6604C69.5005 67.8036 69.9988 66.6426 70.0005 65.4311V61.8332C70.0005 61.5238 69.8733 61.227 69.647 61.0082C69.4208 60.7895 69.1136 60.6665 68.7936 60.6665H65.1729V25.5354C65.1713 24.3327 64.6767 23.1801 63.7968 22.3301C62.9175 21.4796 61.7251 21.0015 60.4811 20.9999H55.5178V4.53564C55.5161 3.33302 55.0215 2.18041 54.1417 1.33039C53.2624 0.47986 52.0699 0.00173332 50.8259 0.000159965L50.8261 0ZM31.3806 45.5007V42.0006H57.9323V44.4319C57.9318 45.0246 57.6877 45.5928 57.254 46.0116C56.8208 46.4309 56.233 46.6668 55.6198 46.6673H31.1742C31.3116 46.2929 31.3816 45.8981 31.3811 45.5007H31.3806ZM24.1392 3.50005V7.0001H21.7254V3.50005C21.7254 2.85578 22.2658 2.33337 22.9323 2.33337C23.5987 2.33337 24.1392 2.85578 24.1392 3.50005ZM67.5875 65.4316C67.587 66.0243 67.3429 66.5926 66.9092 67.0114C66.476 67.4306 65.8882 67.6666 65.275 67.6671H40.8294C40.9668 67.2926 41.0368 66.8978 41.0363 66.5004V63.0004H67.5881L67.5875 65.4316Z" fill="#FF5001"/>
<path d="M17.7221 15.2266L16.5362 15.6089V15.6084C15.2027 16.0354 13.7625 16.0354 12.429 15.6084C11.5211 15.3156 10.5701 15.1667 9.61272 15.1667C7.70375 15.1688 5.87409 15.9026 4.52485 17.2074C3.17516 18.5116 2.41602 20.2804 2.41381 22.1257V22.2966C1.71822 22.4934 1.10669 22.9023 0.671878 23.4627C0.236539 24.0237 0.00107586 24.7049 0 25.4059V28.2617V28.2612C0.00107752 29.1201 0.354525 29.9435 0.982223 30.5508C1.61046 31.1576 2.46223 31.4993 3.35078 31.5003H4.82761V31.5061C4.82869 33.1717 5.74895 34.7097 7.24141 35.5416V38.5004H5.87557C4.63742 38.502 3.45101 38.9775 2.57598 39.8239C1.70043 40.6697 1.20851 41.8166 1.2069 43.0135V53.6673C1.2069 53.9767 1.33406 54.2735 1.56035 54.4923C1.78664 54.711 2.09376 54.834 2.4138 54.834H19.3104C19.6304 54.834 19.9375 54.711 20.1638 54.4923C20.3901 54.2735 20.5173 53.9767 20.5173 53.6673V43.0135C20.5157 41.8166 20.0238 40.6698 19.1482 39.8239C18.2732 38.9775 17.0868 38.502 15.8486 38.5004H14.4828V35.5416C15.9752 34.7098 16.8955 33.1718 16.8966 31.5061V31.5003H18.3734C19.2619 31.4993 20.1137 31.1576 20.742 30.5508C21.3697 29.9435 21.7231 29.1201 21.7242 28.2612V25.406C21.7231 24.6445 21.4451 23.9081 20.9386 23.3247C20.4322 22.7419 19.7301 22.3497 18.9548 22.2164C19.8567 20.2414 19.9618 18.0111 19.2484 15.9647C19.0377 15.3532 18.354 15.0229 17.7221 15.2266ZM3.35101 29.1668C2.83377 29.1663 2.41458 28.761 2.41405 28.261V25.4058C2.41459 24.9058 2.83377 24.5006 3.35101 24.5001H4.82784V29.1668H3.35101ZM9.65544 36.1669H12.0692V39.1836L10.8623 40.3503L9.65544 39.1836V36.1669ZM18.1037 43.0134V52.5005H3.62095V43.0134C3.62148 42.4353 3.85964 41.8816 4.28205 41.4727C4.705 41.0644 5.27775 40.8341 5.87585 40.8336H7.94854L10.009 42.8254C10.2352 43.0441 10.5424 43.1671 10.8624 43.1671C11.1825 43.1671 11.4896 43.0441 11.7159 42.8254L13.7763 40.8336H15.849C16.447 40.8341 17.0198 41.0644 17.4428 41.4727C17.8652 41.8816 18.1033 42.4352 18.1039 43.0134H18.1037ZM14.483 31.507C14.482 32.1236 14.2282 32.7153 13.7767 33.1512C13.3252 33.5877 12.7136 33.833 12.0752 33.8335H9.6495C9.01103 33.833 8.39896 33.5872 7.94742 33.1512C7.49646 32.7148 7.24214 32.1231 7.2416 31.5059V23.8167L8.50184 22.5985V22.5979C10.1538 23.8365 12.1856 24.5058 14.2761 24.5001H14.483L14.483 31.507ZM14.2761 22.1667C12.4092 22.1719 10.6182 21.4547 9.30206 20.1749C9.07577 19.9562 8.76865 19.8332 8.44861 19.8332C8.12857 19.8332 7.82145 19.9562 7.59516 20.1749L5.53474 22.1667H4.82784V22.1255C4.82946 20.899 5.33378 19.7234 6.23088 18.8562C7.12799 17.9889 8.34399 17.5015 9.61296 17.4999C10.3107 17.4999 11.0041 17.6082 11.6663 17.8218C13.4739 18.4004 15.425 18.4077 17.237 17.8421C17.4573 19.3514 17.106 20.8874 16.2483 22.1667L14.2761 22.1667ZM19.3106 25.4058V28.2616V28.2611C19.3101 28.7611 18.8909 29.1663 18.3737 29.1668H16.8968V24.5001H18.3737C18.8909 24.5006 19.3101 24.9058 19.3106 25.4058Z" fill="#FF5001"/>
<path d="M12.0693 45.5005H15.69V47.8339H12.0693V45.5005Z" fill="#FF5001"/>
</svg>
