<svg width="75" height="70" viewBox="0 0 75 70" fill="none" xmlns="http://www.w3.org/2000/svg">
<g clip-path="url(#clip0_175_11174)">
<path d="M5.66701 16.3169C5.66128 19.4122 6.88575 22.383 9.07113 24.5752C11.2565 26.7675 14.2238 28.0012 17.3189 28.0049C20.4148 28.0086 23.3845 26.782 25.5752 24.5956C27.7663 22.4087 28.9981 19.441 29.0002 16.3457C29.0023 13.2504 27.7736 10.2812 25.5857 8.09159C23.3977 5.902 20.4289 4.67188 17.3336 4.67188C14.2435 4.6724 11.2795 5.89895 9.09246 8.08172C6.905 10.265 5.67315 13.2265 5.66701 16.3171V16.3169ZM9.75339 21.7398L10.6935 20.7997C11.7779 19.721 12.3856 18.2533 12.3815 16.7242V15.2701C12.3815 13.9946 12.8882 12.7717 13.7897 11.8696C14.6913 10.968 15.9148 10.4613 17.1897 10.4613H17.7314C18.0694 10.4608 18.4043 10.5212 18.7204 10.6389L15.0565 14.3029C14.8377 14.5217 14.7148 14.8185 14.7148 15.1279C14.7148 15.4373 14.8377 15.7342 15.0565 15.9529L17.3898 18.2862C17.6085 18.505 17.9054 18.6279 18.2148 18.6279C18.5241 18.6279 18.821 18.505 19.0398 18.2862L22.7037 14.6222C22.822 14.9384 22.8819 15.2738 22.8813 15.6113V16.153C22.8813 17.4285 22.3751 18.6514 21.4735 19.5529C20.5714 20.455 19.3484 20.9612 18.073 20.9612H16.6189C15.0891 20.957 13.6219 21.5648 12.5434 22.6492L11.5648 23.6278C10.8757 23.0862 10.2664 22.4507 9.75339 21.7398ZM17.3336 7.00519C20.1341 7.00676 22.7852 8.26821 24.5524 10.4406C26.3201 12.613 27.0154 15.4651 26.4472 18.2073C25.8784 20.9494 24.106 23.29 21.6207 24.5807C19.1352 25.8713 16.2009 25.9749 13.6311 24.863L14.1941 24.3H14.1936C14.8353 23.6541 15.7087 23.2921 16.6191 23.2947H18.0732C19.9674 23.2947 21.7841 22.5422 23.1231 21.203C24.4622 19.8634 25.2149 18.0473 25.2149 16.1531V15.6114C25.2185 14.2447 24.6753 12.9338 23.7066 11.9702C23.4879 11.7515 23.191 11.6286 22.8816 11.6286C22.5722 11.6286 22.2754 11.7515 22.0566 11.9702L18.215 15.8118L17.5317 15.1285L21.3733 11.2869C21.829 10.8312 21.829 10.0926 21.3733 9.6369C20.4097 8.66816 19.0984 8.12437 17.7317 8.12811H17.19C15.2963 8.12811 13.4797 8.8807 12.1406 10.2198C10.801 11.5589 10.0485 13.3755 10.0485 15.2698V16.7239C10.0511 17.6338 9.68964 18.5072 9.0438 19.1494L8.59902 19.5942H8.59954C7.51985 16.7311 7.91621 13.5202 9.66099 11.0062C11.4052 8.49223 14.274 6.99637 17.3339 7.00517L17.3336 7.00519Z" fill="#FF5001"/>
<path d="M2.16699 1.17154V36.1713C2.16699 36.4807 2.28991 36.7776 2.50866 36.9963C2.7274 37.2151 3.02428 37.338 3.33365 37.338H5.66697V35.0047H4.50031V2.3382H9.16695V0.00488281H3.33365C2.68939 0.00488281 2.16699 0.52728 2.16699 1.17154Z" fill="#FF5001"/>
<path d="M60.4997 23.3381V7.00484C60.4997 6.69547 60.3768 6.39859 60.158 6.17985C59.9393 5.9611 59.6424 5.83818 59.333 5.83818H32.4079C32.1386 4.21059 31.3011 2.73087 30.0439 1.66274C28.7866 0.594519 27.1908 0.00701613 25.5412 0.00488281H11.5V2.3382H25.5412C26.7673 2.33976 27.9434 2.82727 28.8106 3.69446C29.6778 4.56166 30.1652 5.73765 30.1668 6.96377V36.7303C28.9976 35.6178 27.4439 34.9996 25.8304 35.0048V37.3381C26.5669 37.3355 27.2892 37.5397 27.9154 37.9267C28.5419 38.3136 29.0471 38.8688 29.3742 39.5288L30.1669 41.1137V44.2834C30.1684 45.5355 30.6658 46.7356 31.5513 47.6203C32.4361 48.5058 33.6362 49.0031 34.8882 49.0047H59.3334C59.6427 49.0047 59.9396 48.8818 60.1583 48.6631C60.3771 48.4443 60.5 48.1474 60.5 47.8381V25.6715H58.1667V39.6715H32.5002V8.17165H58.1667V23.3382L60.4997 23.3381ZM58.1664 46.6713H34.8879C34.2545 46.6707 33.6478 46.4187 33.1999 45.9713C32.7525 45.5234 32.5004 44.9166 32.4999 44.2833V42.0046H58.1664V46.6713Z" fill="#FF5001"/>
<path d="M37.166 12.8379H48.8326V15.1712H37.166V12.8379Z" fill="#FF5001"/>
<path d="M37.166 17.5044H53.4993V19.8377H37.166V17.5044Z" fill="#FF5001"/>
<path d="M37.166 22.1714H53.4993V24.5047H37.166V22.1714Z" fill="#FF5001"/>
<path d="M37.166 26.8379H46.4993V29.1712H37.166V26.8379Z" fill="#FF5001"/>
<path d="M48.834 26.8379H52.334V29.1712H48.834V26.8379Z" fill="#FF5001"/>
<path d="M37.166 31.5044H53.4993V33.8377H37.166V31.5044Z" fill="#FF5001"/>
<path d="M1.00009 49.182V55.7117V55.7111C0.99801 57.7429 2.01363 59.6409 3.70528 60.7658L6.33393 62.5184C7.37559 63.2117 8.00165 64.3804 8.00005 65.632V70.0049H10.3334V65.632C10.3355 63.6003 9.31983 61.7023 7.62819 60.5774L4.99954 58.8247C3.95788 58.1315 3.33181 56.9627 3.33341 55.7111V49.182C3.33445 48.4403 3.93549 47.8393 4.67714 47.8383C5.24849 47.8388 5.79692 48.0659 6.20113 48.4705C6.60582 48.8747 6.8329 49.4231 6.83342 49.9945V54.8382H9.16674V37.3383C9.16674 36.6941 9.68913 36.1717 10.3334 36.1717C10.9777 36.1717 11.5001 36.6941 11.5001 37.3383V47.8383H13.8334V35.005C13.8334 34.3608 14.3558 33.8384 15 33.8384C15.6443 33.8384 16.1667 34.3608 16.1667 35.005V47.8383H18.5V36.1717C18.5 35.5274 19.0224 35.005 19.6667 35.005C20.3109 35.005 20.8333 35.5274 20.8333 36.1717V47.8383H23.1667V40.8383C23.1667 40.1941 23.6891 39.6717 24.3333 39.6717C24.9776 39.6717 25.5 40.1941 25.5 40.8383V57.8542C25.5021 58.6016 25.2052 59.3187 24.675 59.8459C23.7062 60.8095 23.163 62.1209 23.1667 63.4875V70.0042H25.5V63.4875C25.498 62.7401 25.7948 62.023 26.325 61.4958C27.2938 60.5323 27.837 59.2209 27.8333 57.8542V40.8383C27.8338 39.7019 27.2823 38.6362 26.3541 37.9799C25.4265 37.3242 24.238 37.1596 23.1667 37.5388V36.1716C23.1677 34.9273 22.5078 33.7763 21.4333 33.1492C20.3594 32.5216 19.0323 32.5117 17.949 33.1237C17.4609 32.357 16.6937 31.8107 15.8099 31.6002C14.9255 31.3893 13.9943 31.5315 13.213 31.995C12.4317 32.4591 11.8614 33.2091 11.6234 34.0862C10.5458 33.6576 9.32607 33.7914 8.36661 34.4425C7.40672 35.094 6.83275 36.1785 6.83329 37.3383V46.058C6.17288 45.6945 5.43063 45.5044 4.67703 45.5049C3.70204 45.5059 2.76771 45.8939 2.07811 46.583C1.38905 47.2726 1.00113 48.207 1.00009 49.182Z" fill="#FF5001"/>
</g>
<defs>
<clipPath id="clip0_175_11174">
<rect width="75" height="70" fill="white"/>
</clipPath>
</defs>
</svg>
