<svg width="70" height="71" viewBox="0 0 70 71" fill="none" xmlns="http://www.w3.org/2000/svg">
<path d="M21.8299 29.8692C21.6924 29.4468 21.3273 29.1389 20.8877 29.0754L17.1574 28.5332L15.4891 25.153H15.4897C15.2933 24.7545 14.8876 24.5024 14.4433 24.5024C13.9996 24.5024 13.5938 24.7545 13.3969 25.153L11.7292 28.5327L7.99895 29.0749C7.55936 29.1389 7.19426 29.4468 7.05728 29.8691C6.91979 30.2915 7.03436 30.7551 7.35207 31.065L10.0515 33.6956L9.41456 37.4107H9.41404C9.33904 37.8482 9.51925 38.2909 9.8781 38.5519C10.2375 38.8128 10.714 38.8472 11.1073 38.6404L14.4433 36.8868L17.7797 38.6409V38.6404C18.1724 38.8472 18.6489 38.8128 19.0083 38.5519C19.3677 38.2909 19.5474 37.8482 19.4724 37.4107L18.8354 33.6957L21.5343 31.065C21.852 30.7551 21.9666 30.2916 21.8296 29.8692H21.8299ZM16.7679 32.4536H16.7673C16.4923 32.7218 16.3673 33.1077 16.4319 33.4864L16.7731 35.476L14.9867 34.5359C14.6466 34.3572 14.2403 34.3572 13.9007 34.5359L12.1138 35.4754L12.455 33.4858C12.5201 33.1072 12.3945 32.7213 12.1195 32.453L10.6742 31.0437L12.6721 30.7536C13.0523 30.6984 13.3804 30.4598 13.5507 30.1156L14.4439 28.3052L15.3372 30.1156C15.5075 30.4598 15.8356 30.6984 16.2158 30.7536L18.2137 31.0437L16.7679 32.4536Z" fill="#FF5001"/>
<path d="M62.9431 29.8692C62.8061 29.4468 62.441 29.1389 62.0014 29.0754L58.2712 28.5332L56.6029 25.153H56.6034C56.4066 24.7545 56.0008 24.5024 55.5571 24.5024C55.1128 24.5024 54.7071 24.7545 54.5107 25.153L52.8425 28.5332L49.1122 29.0754H49.1127C48.6731 29.139 48.308 29.4468 48.1711 29.8692C48.0336 30.2916 48.1481 30.7551 48.4658 31.065L51.1648 33.6957L50.5278 37.4107C50.4528 37.8487 50.6325 38.2909 50.9919 38.5519C51.3512 38.8133 51.8278 38.8477 52.2205 38.6409L55.5569 36.8868L58.8933 38.6409L58.8928 38.6404C59.286 38.8472 59.7626 38.8128 60.1219 38.5519C60.4808 38.2909 60.661 37.8482 60.586 37.4107L59.949 33.6957L62.648 31.065C62.9657 30.7551 63.0803 30.2916 62.9428 29.8692H62.9431ZM57.8817 32.453C57.6067 32.7212 57.4811 33.1072 57.5462 33.4858L57.8874 35.4754L56.0999 34.5358C55.7603 34.3572 55.3541 34.3572 55.014 34.5358L53.2271 35.4754L53.5682 33.4858H53.5687C53.6338 33.1072 53.5083 32.7212 53.2333 32.453L51.788 31.0437L53.7858 30.7536C54.1655 30.6984 54.4942 30.4598 54.664 30.1156L55.5572 28.3052L56.4504 30.1156H56.4509C56.6207 30.4598 56.9494 30.6984 57.3291 30.7536L59.3269 31.0437L57.8817 32.453Z" fill="#FF5001"/>
<path d="M61.8197 19.8352H54.7233H54.7239C53.8171 19.8378 52.9473 19.4763 52.3103 18.831C51.678 18.1992 51.3259 17.3398 51.3332 16.4455C51.3347 16.2075 51.3311 15.9659 51.3222 15.7278C51.1087 9.96851 47.8753 4.74812 42.8144 1.99052C37.7535 -0.766812 31.6139 -0.652679 26.6584 2.29052C21.7032 5.23425 18.6663 10.5712 18.6667 16.3345V16.3871C18.6745 17.3074 18.3125 18.1928 17.662 18.8444C17.0312 19.4804 16.1719 19.8371 15.2765 19.8345H8.18119C6.01186 19.8366 3.93226 20.6997 2.39893 22.2335C0.865065 23.7668 0.002 25.8465 0 28.0157V36.1532C0.00208333 38.3225 0.865105 40.4021 2.39893 41.9355C3.93226 43.4693 6.01199 44.3324 8.18119 44.3344H25.6665V42.0011H8.18119C6.63066 41.9995 5.14426 41.3828 4.04786 40.2865C2.95146 39.1902 2.3348 37.7037 2.33333 36.1532V28.0157C2.33489 26.4652 2.95156 24.9788 4.04786 23.8824C5.14417 22.786 6.63066 22.1693 8.18119 22.1679H15.2771C16.7932 22.172 18.2478 21.5679 19.315 20.4908C20.4046 19.4007 21.0114 17.9195 21 16.3783V16.3345C20.9974 11.3933 23.6 6.81681 27.8478 4.29241C32.0957 1.76801 37.3593 1.67001 41.6985 4.03408C46.0376 6.39808 48.8089 10.8747 48.9906 15.8127C48.9979 16.0169 49.001 16.2247 49 16.4294H48.9995C48.9932 17.9507 49.5937 19.4117 50.6683 20.4887C51.7427 21.5658 53.2021 22.1699 54.7235 22.1679H61.8199H61.8193C63.3699 22.1695 64.8563 22.7862 65.9527 23.8825C67.0485 24.9788 67.6652 26.4653 67.6667 28.0158V36.1532C67.6651 37.7038 67.0484 39.1902 65.9521 40.2866C64.8558 41.383 63.3693 41.9996 61.8188 42.0011H51.3334V44.3344H61.8188C63.9881 44.3324 66.0677 43.4693 67.6011 41.9355C69.1349 40.4022 69.998 38.3224 70 36.1532V28.0158C69.9979 25.847 69.1354 23.7674 67.6016 22.2335C66.0677 20.6997 63.9885 19.8371 61.8193 19.8346L61.8197 19.8352Z" fill="#FF5001"/>
<path d="M26.7035 12.0567L24.6305 10.9853C22.9232 14.2973 22.9003 18.2254 24.5686 21.5577C26.2374 24.8894 29.3962 27.2244 33.0712 27.8416L32.7306 28.5317L29.0003 29.0739C28.5607 29.1374 28.1951 29.4452 28.0581 29.8681C27.9207 30.2905 28.0352 30.7546 28.3535 31.0645L31.0524 33.6951L30.4154 37.4102C30.3404 37.8482 30.5206 38.2904 30.8795 38.5514C31.2389 38.8128 31.7154 38.8472 32.1087 38.6404L35.4446 36.8863L38.781 38.6404V38.6399C39.1738 38.8467 39.6503 38.8123 40.0097 38.5514C40.3691 38.2904 40.5487 37.8477 40.4738 37.4102L39.8368 33.6951L42.5357 31.0645C42.8534 30.7546 42.968 30.291 42.831 29.8686C42.6935 29.4462 42.3284 29.1384 41.8888 29.0744L38.1586 28.5322L37.7372 27.678V27.6786C41.344 26.8082 44.3216 24.275 45.758 20.8546C47.1949 17.4343 46.9189 13.5343 45.0158 10.3499C43.1122 7.1655 39.8076 5.07644 36.1148 4.72231C32.4216 4.36815 28.7804 5.79157 26.3065 8.55617L28.045 10.1124C30.0549 7.86604 33.0262 6.72857 36.0226 7.0583C39.019 7.38852 41.6716 9.14577 43.1445 11.776C44.6174 14.4063 44.7289 17.5859 43.4445 20.313C42.1596 23.04 39.6372 24.9786 36.6716 25.5182L36.4908 25.152V25.1525C36.2945 24.7541 35.8887 24.502 35.4445 24.502C35.0007 24.502 34.595 24.7541 34.3981 25.1525L34.1632 25.6286L34.1637 25.628C33.2502 25.5463 32.3539 25.3281 31.5049 24.9817L32.1466 24.34C32.7883 23.6947 33.6617 23.3327 34.5721 23.3353H36.0262C37.9205 23.3353 39.7366 22.5827 41.0762 21.2436C42.4153 19.904 43.1679 18.0879 43.1679 16.1936V15.6519C43.1716 14.2853 42.6283 12.9738 41.6597 12.0103C41.4409 11.7916 41.144 11.6687 40.8347 11.6687C40.5253 11.6687 40.2284 11.7916 40.0097 12.0103L36.1681 15.8519L35.4847 15.1686L39.3263 11.327C39.5451 11.1083 39.668 10.8114 39.668 10.502C39.668 10.1926 39.5451 9.89575 39.3263 9.67701C38.3628 8.70826 37.0514 8.16501 35.6847 8.16874H35.1431C33.2488 8.16874 31.4327 8.92134 30.0931 10.2605C28.754 11.6001 28.0013 13.4162 28.0013 15.3105V16.7646C28.0039 17.675 27.642 18.5485 26.9966 19.1901L26.355 19.8317C25.3295 17.314 25.4565 14.4729 26.7034 12.0568L26.7035 12.0567ZM36.3373 30.1153C36.5076 30.4596 36.8358 30.6981 37.216 30.7533L39.2138 31.0435L37.7685 32.4528H37.768C37.4935 32.721 37.368 33.1069 37.4326 33.4856L37.7737 35.4752L35.9877 34.5356C35.6476 34.357 35.2414 34.357 34.9018 34.5356L33.1149 35.4752L33.456 33.4856C33.5211 33.107 33.3956 32.721 33.1206 32.4528L31.6753 31.0435L33.6731 30.7533C34.0533 30.6981 34.3815 30.4596 34.5518 30.1153L35.445 28.3049L36.3373 30.1153ZM28.6456 20.8404H28.6461C29.7305 19.7618 30.3388 18.2945 30.3347 16.7649V15.3108C30.3347 14.0353 30.8414 12.8124 31.7429 11.9108C32.6444 11.0092 33.8675 10.5025 35.1429 10.5025H35.6846C36.0226 10.502 36.3575 10.5624 36.6737 10.6801L33.0097 14.3441C32.7909 14.5629 32.668 14.8598 32.668 15.1691C32.668 15.4785 32.7909 15.7754 33.0097 15.9941L35.343 18.3275C35.5617 18.5462 35.8586 18.6691 36.168 18.6691C36.4774 18.6691 36.7742 18.5462 36.993 18.3275L40.657 14.6635C40.7747 14.9796 40.8351 15.3145 40.8346 15.6525V16.1942C40.8346 17.4697 40.3278 18.6926 39.4263 19.5942C38.5248 20.4958 37.3018 21.0025 36.0263 21.0025H34.5722C33.0425 20.9983 31.5753 21.6061 30.4967 22.6905L29.4014 23.7863C28.7025 23.2582 28.0801 22.6347 27.5525 21.9352L28.6456 20.8404Z" fill="#FF5001"/>
<path d="M45.501 32.6685C44.5729 32.6695 43.6833 33.0388 43.027 33.6945C42.3713 34.3508 42.002 35.2404 42.001 36.1685V40.8352H38.501C37.8567 40.8352 37.3343 41.3576 37.3343 42.0018H33.8343C33.1901 42.0018 32.6677 42.5242 32.6677 43.1685H29.1677C28.5234 43.1685 28.001 43.6909 28.001 44.3352V57.8525C27.9973 59.2191 28.5406 60.5306 29.5093 61.4941C30.039 62.0211 30.3363 62.7383 30.3343 63.4858V70.0025H32.6676V63.4858C32.6712 62.1191 32.128 60.8077 31.1593 59.8442C30.6296 59.3171 30.3322 58.5999 30.3343 57.8525V51.1353C30.926 51.3452 31.5635 51.391 32.1797 51.2691C32.7958 51.1472 33.3671 50.8613 33.8343 50.4415C34.5984 51.128 35.6261 51.4431 36.6437 51.3035C37.6608 51.1639 38.5655 50.5837 39.1166 49.7171C40.1999 50.3291 41.527 50.3192 42.601 49.6916C43.675 49.064 44.3354 47.9135 44.3343 46.6692V36.1692C44.3343 35.5249 44.8567 35.0025 45.501 35.0025C46.1452 35.0025 46.6676 35.5249 46.6676 36.1692V52.5025H42.354C40.7134 52.5025 39.1401 53.1546 37.9795 54.3145C36.8196 55.4749 36.1675 57.0484 36.1675 58.689V63.0026H38.5008V58.689C38.5008 57.6672 38.9071 56.6869 39.6295 55.9645C40.3519 55.2421 41.3322 54.8359 42.354 54.8359H47.8343C48.1437 54.8359 48.4405 54.713 48.6593 54.4942C48.878 54.2755 49.0009 53.9786 49.0009 53.6692V49.9921C49.0015 49.4208 49.2285 48.8724 49.6332 48.4681C50.0374 48.0635 50.5858 47.8364 51.1572 47.8359C51.8989 47.8369 52.4999 48.4379 52.501 49.1796V55.7093V55.7088C52.5025 56.9603 51.877 58.1291 50.8348 58.8224L48.2062 60.5751C46.5144 61.7001 45.4988 63.598 45.501 65.6297V70.0026H47.8343V65.6297C47.8327 64.3782 48.4583 63.2094 49.5004 62.5161L52.1291 60.7635C53.8208 59.6385 54.8364 57.7405 54.8343 55.7088V49.1796C54.8333 48.2046 54.4452 47.2703 53.7562 46.5807C53.0666 45.8916 52.1322 45.5036 51.1573 45.5026C50.4036 45.502 49.6614 45.6921 49.001 46.0557V36.1693C48.9999 35.2412 48.6307 34.3515 47.9749 33.6953C47.3187 33.0395 46.4291 32.6703 45.501 32.6692L45.501 32.6685ZM31.501 49.0018C30.8568 49.0013 30.3349 48.4794 30.3344 47.8351V45.5018H32.6677V47.8351C32.6672 48.4794 32.1453 49.0013 31.501 49.0018ZM37.3344 47.8351C37.3344 48.4794 36.812 49.0018 36.1677 49.0018C35.5234 49.0018 35.001 48.4794 35.001 47.8351V44.3351H37.3344V47.8351ZM42.001 46.6684C42.001 47.3127 41.4786 47.8351 40.8344 47.8351C40.1901 47.8351 39.6677 47.3127 39.6677 46.6684V43.1684H42.001V46.6684Z" fill="#FF5001"/>
</svg>
