<svg width="70" height="70" viewBox="0 0 70 70" fill="none" xmlns="http://www.w3.org/2000/svg">
<path d="M30.3335 31.5H32.6668V33.8333H30.3335V31.5Z" fill="#FF5001"/>
<path d="M37.3335 31.5H39.6668V33.8333H37.3335V31.5Z" fill="#FF5001"/>
<path d="M24.5093 9.3335H26.8327V11.6668H24.5093V9.3335Z" fill="#FF5001"/>
<path d="M43.1665 9.3335H45.4916V11.6668H43.1665V9.3335Z" fill="#FF5001"/>
<path d="M14 21.0278H16.3333V59.4998H14V21.0278Z" fill="#FF5001"/>
<path d="M53.6665 21.0278H55.9998V59.4998H53.6665V21.0278Z" fill="#FF5001"/>
<path d="M69.9999 5.8333C69.9979 4.29636 69.3906 2.82236 68.3087 1.73023C67.227 0.638563 65.7582 0.0176958 64.2213 0.0015625C64.203 0.0015625 64.1848 0 64.1666 0H5.83324C3.74938 0 1.82337 1.11197 0.78164 2.91667C-0.260547 4.72133 -0.260547 6.94534 0.78164 8.75C1.82331 10.5547 3.74938 11.6667 5.83324 11.6667H6.24991L9.23951 14.4631L8.52492 18.4609V18.4615C8.41763 19.0427 8.76659 19.6115 9.33326 19.7797V61.833C9.33326 62.3539 9.67856 62.8117 10.1791 62.9549L34.6791 69.9549C34.8885 70.0148 35.1104 70.0148 35.3197 69.9549L59.8197 62.9549C60.3208 62.8117 60.6666 62.3539 60.6666 61.833V19.7237C61.2328 19.5534 61.5807 18.9857 61.4744 18.4039L60.7598 14.4055L63.689 11.6664H64.1666C64.1849 11.6664 64.2031 11.6654 64.2213 11.6649C65.7583 11.6487 67.2271 11.0279 68.3088 9.9362C69.3906 8.84401 69.9979 7.37007 70 5.83313L69.9999 5.8333ZM4.6666 9.1333C3.75097 8.80986 3.01086 8.12027 2.6234 7.2297C2.2359 6.33907 2.2359 5.32756 2.6234 4.43703C3.01089 3.5464 3.751 2.85676 4.6666 2.53343V9.1333ZM34.9999 4.88383L36.1255 7.0729C36.2994 7.41039 36.626 7.64216 37.002 7.69478L39.4176 8.03175L37.7031 9.63589C37.414 9.90567 37.2817 10.3036 37.3515 10.6932L37.9437 14.0077C37.8578 14.0056 37.7724 14.0009 37.6864 14.0009H32.3135C32.227 14.0009 32.1416 14.0056 32.0562 14.0077L32.6484 10.6932C32.7182 10.3036 32.5859 9.90569 32.2968 9.63589L30.5823 8.03175L32.9979 7.69478C33.3739 7.64217 33.7005 7.4104 33.8744 7.0729L34.9999 4.88383ZM46.6666 26.8332H44.3333V25.5243C44.3312 23.7061 43.6078 21.9634 42.3223 20.6774C41.0364 19.392 39.2937 18.6686 37.4754 18.6664H32.5243C30.7061 18.6685 28.9634 19.392 27.6774 20.6774C26.392 21.9633 25.6686 23.7061 25.6665 25.5243V26.8332H23.3331V25.3134C23.3357 22.9328 24.2826 20.6498 25.9665 18.9665C27.6498 17.2826 29.9326 16.3358 32.3134 16.3332H37.6863C40.067 16.3358 42.3499 17.2826 44.0333 18.9665C45.7171 20.6498 46.6639 22.9326 46.6666 25.3134V26.8332ZM48.0489 29.1665C48.5739 29.167 48.9994 29.5925 48.9999 30.1175V35.2154C48.9994 35.7404 48.5739 36.1659 48.0489 36.1665H44.3333V29.1665L48.0489 29.1665ZM38.2249 39.6665H38.2243C39.3968 39.6655 40.5624 39.4957 41.6864 39.1639C41.3561 39.9993 40.7822 40.7166 40.0394 41.2223C39.2966 41.728 38.4197 41.9989 37.5206 41.9999H32.479C31.2915 41.9983 30.153 41.5265 29.3134 40.6864C28.4733 39.8468 28.0014 38.7082 27.9999 37.5208V28.5833L31.5728 25.9041L33.8244 27.2552C35.9093 28.5057 38.2947 29.1666 40.7255 29.1666H42V36.5822C40.8026 37.076 39.5197 37.3312 38.2245 37.3333H36.1666V39.6666L38.2249 39.6665ZM37.8165 48.9998H39.4561L38.8884 52.405L36.6499 50.1665L37.8165 48.9998ZM34.79 57.1665H35.2103L36.0947 61.5878L34.9999 63.23L33.9051 61.5878L34.79 57.1665ZM34.0015 52.8149L34.9999 51.8165L35.9983 52.8149L35.3259 54.8332H34.6744L34.0015 52.8149ZM34.9999 48.5165L33.8332 47.3498V44.3332H36.1666V47.3498L34.9999 48.5165ZM33.3499 50.1665L31.1114 52.405L30.5437 48.9998H32.1833L33.3499 50.1665ZM40.7254 26.8332C38.7171 26.8332 36.7467 26.2873 35.0248 25.254L32.0998 23.4993C31.6935 23.2556 31.1795 23.2821 30.7998 23.5665L27.9998 25.6665V25.5243C28.0013 24.3248 28.4784 23.1748 29.3263 22.3264C30.1748 21.4785 31.3247 21.0014 32.5242 20.9999H37.4753C38.6747 21.0014 39.8247 21.4785 40.6731 22.3264C41.521 23.1749 41.9981 24.3248 41.9997 25.5243V26.8332L40.7254 26.8332ZM25.6667 29.1665V36.1665H21.9511C21.4261 36.166 21.0006 35.7405 21.0001 35.2155V30.1176C21.0006 29.5926 21.4261 29.1671 21.9511 29.1666L25.6667 29.1665ZM11.2974 13.1918L9.58282 11.5877L11.9984 11.2507C12.3745 11.1981 12.701 10.9664 12.875 10.6288L14.0005 8.44085L15.126 10.6294C15.3 10.9669 15.6265 11.1992 16.0026 11.2513L18.4182 11.5882L16.7037 13.1924C16.4146 13.4627 16.2823 13.8606 16.3521 14.2497L16.7677 16.5737L14.5261 15.4429C14.1954 15.2763 13.8058 15.2763 13.4751 15.4429L11.2335 16.5737L11.6491 14.2497C11.7189 13.8601 11.5866 13.4622 11.2975 13.1918L11.2974 13.1918ZM22.1671 52.3745V63.9537L11.6671 60.9532V18.9678L14.0004 17.7918L17.801 19.709C18.1957 19.9085 18.6692 19.8673 19.0239 19.6033C19.378 19.3392 19.5531 18.8975 19.4749 18.4621L18.7603 14.4643L21.7973 11.623C22.1259 11.3158 22.2488 10.847 22.1129 10.4184C21.977 9.98918 21.6066 9.67721 21.1608 9.61524L16.9244 9.02409L15.038 5.35689C14.838 4.96834 14.4375 4.72407 14.0005 4.72407C13.5635 4.72407 13.163 4.96834 12.963 5.35689L11.0766 9.02409L8.85942 9.33346H7.00062V2.33346H9.33396V7.00013H11.6673V2.33346H33.6886L32.0772 5.46733L27.8408 6.05795C27.3955 6.12045 27.0251 6.43295 26.8897 6.86159C26.7538 7.29023 26.8762 7.75848 27.2048 8.06576L30.2418 10.9064L29.6308 14.3247C27.171 14.9283 24.9844 16.3387 23.4204 18.331C21.8564 20.3227 21.0048 22.781 21.0011 25.3138V26.9747C20.3266 27.1794 19.736 27.5955 19.3162 28.1617C18.8959 28.7273 18.6688 29.4132 18.6677 30.1179V35.2158C18.6688 36.0866 19.0151 36.921 19.6307 37.5371C20.2469 38.1528 21.0813 38.4991 21.9521 38.5002H25.739C25.952 39.9523 26.6281 41.2971 27.6661 42.3351C28.7041 43.3731 30.0489 44.0491 31.501 44.2622V46.6668H27.8756C26.3619 46.6684 24.9116 47.2705 23.8412 48.3403C22.7714 49.4106 22.1693 50.8611 22.1677 52.3747L22.1671 52.3745ZM26.8338 65.287L24.5004 64.6204V60.6668H26.8338V65.287ZM45.5004 64.6204L43.1671 65.287V60.6668H45.5004V64.6204ZM45.5004 58.3334H43.1671V56.0001H40.8338V65.9532L35.0004 67.6199L29.1671 65.9532V56.0001H26.8338V58.3334H24.5004V52.3746C24.5015 51.4799 24.8572 50.622 25.49 49.9897C26.1223 49.3569 26.9801 49.0012 27.8749 49.0001H28.1791L29.1833 55.0252H29.1827C29.2546 55.4564 29.5614 55.8111 29.9775 55.9445C30.3937 56.0783 30.8499 55.9674 31.1588 55.6585L32.1572 54.6601L32.6291 56.0746L31.5234 61.6038L31.5229 61.6043C31.4624 61.9075 31.5249 62.2226 31.6963 62.4804L34.0296 65.9804C34.2463 66.3049 34.6104 66.4996 35.0005 66.4996C35.3905 66.4996 35.7546 66.3049 35.9713 65.9804L38.3046 62.4804C38.476 62.2226 38.5385 61.9075 38.4781 61.6043L37.3723 56.0751L37.8442 54.6606L38.8426 55.659L38.8421 55.6585C39.151 55.9674 39.6072 56.0783 40.0234 55.9445C40.4395 55.8111 40.7463 55.4564 40.8182 55.0252L41.8223 49.0001H42.1265H42.126C43.0208 49.0012 43.8786 49.3569 44.5109 49.9897C45.1437 50.622 45.4994 51.4798 45.5005 52.3746L45.5004 58.3334ZM58.7035 13.1348C58.4144 13.4051 58.2821 13.803 58.3519 14.1921L58.7676 16.5161L56.5254 15.3853C56.1947 15.2187 55.8046 15.2187 55.4744 15.3853L53.2328 16.5161L53.6484 14.1921C53.7177 13.8025 53.5854 13.4046 53.2969 13.1348L51.5823 11.5306L53.9979 11.1937C54.374 11.1411 54.7005 10.9093 54.8745 10.5718L56.0005 8.38378L57.126 10.5728C57.3 10.9103 57.6266 11.1421 58.0026 11.1947L60.4182 11.5317L58.7035 13.1348ZM58.9243 8.96703L57.0379 5.2993C56.8379 4.91075 56.4374 4.66648 56.0004 4.66648C55.5635 4.66648 55.1629 4.91075 54.9629 5.2993L53.0765 8.96703L48.8401 9.55766C48.3948 9.62016 48.0245 9.93266 47.8891 10.3613C47.7532 10.7899 47.8756 11.2582 48.2042 11.5655L51.2411 14.4061L50.5266 18.4045V18.404C50.4484 18.8394 50.6234 19.2811 50.9781 19.5452C51.3323 19.8092 51.8057 19.8504 52.2005 19.6509L56.0005 17.7332L58.3338 18.9102V60.9529L47.8338 63.9529V52.3737C47.8323 50.8606 47.2302 49.4101 46.1604 48.3398C45.0901 47.2701 43.6396 46.668 42.126 46.6664H38.5005V44.2617C39.9526 44.0487 41.2974 43.3726 42.3354 42.3346C43.3735 41.2966 44.0494 39.9518 44.2625 38.4997H48.0494C48.9203 38.4987 49.7547 38.1523 50.3708 37.5367C50.9864 36.9205 51.3328 36.0861 51.3338 35.2153V30.1175C51.3328 29.4128 51.1057 28.7268 50.6854 28.1612C50.2656 27.5951 49.675 27.1789 49.0004 26.9742V25.3133C48.9968 22.781 48.1452 20.3221 46.5811 18.3305C45.017 16.3389 42.8311 14.9284 40.3712 14.3242L39.7603 10.906L42.7972 8.06529C43.1259 7.758 43.2483 7.28925 43.1123 6.8606C42.9764 6.43196 42.6061 6.11945 42.1608 6.05748L37.9238 5.46633L36.3129 2.333H58.3343V6.99967H60.6676V2.333H63.0009V9.333H61.5504L58.9243 8.96703ZM65.3337 9.13318V2.53318C66.2493 2.85662 66.9894 3.5462 67.3769 4.43678C67.7644 5.3274 67.7644 6.33891 67.3769 7.22944C66.9894 8.12007 66.2493 8.80984 65.3337 9.13318Z" fill="#FF5001"/>
</svg>
