<svg width="30" height="31" viewBox="0 0 30 31" fill="none" xmlns="http://www.w3.org/2000/svg">
<path d="M12.1737 3.47632C10.0855 3.70624 8.03026 4.60717 6.5193 5.94918C4.6095 7.64311 3.46924 9.71712 3.08446 12.1994C2.97185 12.9408 2.97185 14.4141 3.08446 15.1508C3.43639 17.3844 4.41241 19.3083 6.00783 20.9083C6.88062 21.7764 7.71587 22.3723 8.81858 22.9026C10.2357 23.583 11.6012 23.8927 13.206 23.8927C15.6038 23.888 17.7717 23.1372 19.6111 21.6591L19.9396 21.3963L22.9427 24.3947C25.6268 27.0788 25.9646 27.3978 26.1242 27.4307C26.6403 27.5245 27.0861 27.0647 26.9782 26.5485C26.95 26.4218 26.3776 25.8259 23.9469 23.3906L20.9485 20.3875L21.2112 20.059C22.6893 18.2196 23.4401 16.0518 23.4448 13.654C23.4495 12.0117 23.107 10.5571 22.3796 9.10243C21.8635 8.07011 21.2957 7.29119 20.4323 6.4278C18.8791 4.87464 17.0397 3.92678 14.8718 3.56078C14.2149 3.45286 12.7931 3.40594 12.1737 3.47632ZM14.3885 4.9544C17.9219 5.44241 20.7889 7.96688 21.718 11.4111C21.9245 12.1806 21.9949 12.7578 21.9949 13.6775C21.9902 15.3808 21.5866 16.8448 20.7232 18.2525C18.4896 21.8984 13.9192 23.4281 9.9823 21.8468C9.35352 21.5934 9.17051 21.5043 8.63089 21.1711C8.01149 20.791 7.54225 20.4203 7.01201 19.8948C5.33213 18.2102 4.43118 16.0377 4.43118 13.6634C4.43118 11.9976 4.86758 10.4679 5.74975 9.02266C6.3973 7.96688 7.51879 6.84542 8.57458 6.19787C9.60222 5.5691 10.8457 5.11395 11.9156 4.97318C12.1502 4.94502 12.3707 4.91217 12.4083 4.90279C12.6429 4.85587 13.9333 4.88871 14.3885 4.9544Z" fill="#222222" stroke="#222222" stroke-width="0.3"/>
</svg>
