<svg width="35" height="35" viewBox="0 0 35 35" fill="none" xmlns="http://www.w3.org/2000/svg">
<path fill-rule="evenodd" clip-rule="evenodd" d="M0.520508 4.37467C0.520508 3.97197 0.846967 3.64551 1.24967 3.64551H33.7497C34.1524 3.64551 34.4788 3.97197 34.4788 4.37467V30.6247C34.4788 31.0274 34.1524 31.3538 33.7497 31.3538H1.24967C0.846967 31.3538 0.520508 31.0274 0.520508 30.6247V4.37467ZM1.97884 5.10384V29.8955H33.0205V5.10384H1.97884Z" fill="#FF5001"/>
<path fill-rule="evenodd" clip-rule="evenodd" d="M0.692434 7.06751C0.952155 6.75975 1.41219 6.7208 1.71996 6.98052L16.3575 19.333L16.3575 19.3331C16.677 19.6027 17.0816 19.7507 17.4997 19.7507C17.9178 19.7507 18.3224 19.6027 18.6419 19.3331L18.6419 19.333L33.2794 6.98052C33.5872 6.7208 34.0472 6.75975 34.307 7.06751C34.5667 7.37528 34.5277 7.83531 34.22 8.09503L19.5825 20.4475C19.5825 20.4475 19.5825 20.4475 19.5825 20.4475C18.9999 20.9393 18.2621 21.209 17.4997 21.209C16.7373 21.209 15.9995 20.9393 15.4169 20.4475C15.4169 20.4475 15.4169 20.4475 15.4169 20.4475L0.779425 8.09503C0.471661 7.83531 0.432714 7.37528 0.692434 7.06751Z" fill="#FF5001"/>
</svg>
