<svg width="35" height="35" viewBox="0 0 35 35" fill="none" xmlns="http://www.w3.org/2000/svg">
<g clip-path="url(#clip0_145_9365)">
<path fill-rule="evenodd" clip-rule="evenodd" d="M17.4997 1.97884C8.92776 1.97884 1.97884 8.92776 1.97884 17.4997C1.97884 26.0716 8.92776 33.0205 17.4997 33.0205C26.0716 33.0205 33.0205 26.0716 33.0205 17.4997C33.0205 8.92776 26.0716 1.97884 17.4997 1.97884ZM0.520508 17.4997C0.520508 8.12234 8.12234 0.520508 17.4997 0.520508C26.877 0.520508 34.4788 8.12234 34.4788 17.4997C34.4788 26.877 26.877 34.4788 17.4997 34.4788C8.12234 34.4788 0.520508 26.877 0.520508 17.4997Z" fill="#FF5001"/>
<path fill-rule="evenodd" clip-rule="evenodd" d="M24.2653 10.7341C24.4606 10.9294 24.5288 11.2183 24.4414 11.4803L19.4414 26.4803C19.3514 26.7504 19.1123 26.9434 18.8293 26.9745C18.5462 27.0056 18.2709 26.869 18.1244 26.6248L14.4682 20.5312L8.37454 16.8749C8.13036 16.7284 7.9938 16.4532 8.02488 16.1701C8.05595 15.8871 8.24896 15.648 8.51911 15.5579L23.5191 10.5579C23.7811 10.4706 24.07 10.5388 24.2653 10.7341ZM10.4843 16.4401L15.3748 19.3744C15.4775 19.436 15.5634 19.5219 15.6249 19.6245L18.5593 24.5151L22.5968 12.4026L10.4843 16.4401Z" fill="#FF5001"/>
</g>
<defs>
<clipPath id="clip0_145_9365">
<rect width="35" height="35" fill="white"/>
</clipPath>
</defs>
</svg>
