<svg width="35" height="35" viewBox="0 0 35 35" fill="none" xmlns="http://www.w3.org/2000/svg">
<path fill-rule="evenodd" clip-rule="evenodd" d="M30.398 11.9339H4.24204C3.10752 11.9339 2.18783 12.8536 2.18783 13.9881V24.7139C2.18783 25.8485 3.10753 26.7682 4.24204 26.7682H30.398C31.5325 26.7682 32.4522 25.8485 32.4522 24.7139V13.9881C32.4522 12.8536 31.5325 11.9339 30.398 11.9339ZM4.24204 10.4756C2.30211 10.4756 0.729492 12.0482 0.729492 13.9881V24.7139C0.729492 26.6539 2.30211 28.2265 4.24204 28.2265H30.398C32.3379 28.2265 33.9105 26.6539 33.9105 24.7139V13.9881C33.9105 12.0482 32.3379 10.4756 30.398 10.4756H4.24204Z" fill="#FF5001"/>
<path fill-rule="evenodd" clip-rule="evenodd" d="M25.4417 1.45833H9.19614C8.06163 1.45833 7.14193 2.37804 7.14193 3.51255V10.2083H27.4959V3.51255C27.4959 2.37803 26.5762 1.45833 25.4417 1.45833ZM9.19614 0C7.25621 0 5.68359 1.57262 5.68359 3.51255V11.6667H28.9542V3.51255C28.9542 1.57262 27.3816 0 25.4417 0H9.19614Z" fill="#FF5001"/>
<path d="M5.68359 19.4443H28.9542V31.5501C28.9542 33.4554 27.4097 34.9999 25.5044 34.9999H9.13341C7.22813 34.9999 5.68359 33.4554 5.68359 31.5501V19.4443Z" fill="#E9FAFF"/>
<path fill-rule="evenodd" clip-rule="evenodd" d="M27.4959 20.9027H7.14193V31.5501C7.14193 32.6499 8.03354 33.5416 9.13341 33.5416H25.5044C26.6042 33.5416 27.4959 32.6499 27.4959 31.5501V20.9027ZM5.68359 19.4443V31.5501C5.68359 33.4554 7.22813 34.9999 9.13341 34.9999H25.5044C27.4097 34.9999 28.9542 33.4553 28.9542 31.5501V19.4443H5.68359Z" fill="#FF5001"/>
<path fill-rule="evenodd" clip-rule="evenodd" d="M5.86426 16.151C5.86426 15.7483 6.19072 15.4219 6.59342 15.4219H8.38106C8.78377 15.4219 9.11023 15.7483 9.11023 16.151C9.11023 16.5537 8.78377 16.8802 8.38106 16.8802H6.59342C6.19072 16.8802 5.86426 16.5537 5.86426 16.151Z" fill="#FF5001"/>
<path fill-rule="evenodd" clip-rule="evenodd" d="M10.0986 25.1208C10.0986 24.7181 10.4251 24.3916 10.8278 24.3916H24.188C24.5907 24.3916 24.9172 24.7181 24.9172 25.1208C24.9172 25.5235 24.5907 25.8499 24.188 25.8499H10.8278C10.4251 25.8499 10.0986 25.5235 10.0986 25.1208Z" fill="#FF5001"/>
<path fill-rule="evenodd" clip-rule="evenodd" d="M10.0986 29.3542C10.0986 28.9515 10.4251 28.625 10.8278 28.625H24.188C24.5907 28.625 24.9172 28.9515 24.9172 29.3542C24.9172 29.7569 24.5907 30.0833 24.188 30.0833H10.8278C10.4251 30.0833 10.0986 29.7569 10.0986 29.3542Z" fill="#FF5001"/>
</svg>
