<svg width="35" height="35" viewBox="0 0 35 35" fill="none" xmlns="http://www.w3.org/2000/svg">
<path fill-rule="evenodd" clip-rule="evenodd" d="M7.50065 1.97884C6.52265 1.97884 5.72982 2.77167 5.72982 3.74968V31.2497C5.72982 32.2277 6.52265 33.0205 7.50065 33.0205H27.5006C28.4787 33.0205 29.2715 32.2277 29.2715 31.2497V3.74968C29.2715 2.77167 28.4787 1.97884 27.5006 1.97884H7.50065ZM4.27148 3.74968C4.27148 1.96626 5.71723 0.520508 7.50065 0.520508H27.5006C29.2841 0.520508 30.7298 1.96626 30.7298 3.74968V31.2497C30.7298 33.0331 29.2841 34.4788 27.5006 34.4788H7.50065C5.71723 34.4788 4.27148 33.0331 4.27148 31.2497V3.74968Z" fill="#FF5001"/>
<path fill-rule="evenodd" clip-rule="evenodd" d="M14.8965 27.4997C14.8965 27.097 15.2229 26.7705 15.6257 26.7705H19.3757C19.7784 26.7705 20.1048 27.097 20.1048 27.4997C20.1048 27.9024 19.7784 28.2288 19.3757 28.2288H15.6257C15.2229 28.2288 14.8965 27.9024 14.8965 27.4997Z" fill="#FF5001"/>
</svg>
