<svg width="105" height="104" viewBox="0 0 105 104" fill="none" xmlns="http://www.w3.org/2000/svg">
<g filter="url(#filter0_d_160_8227)">
<rect x="24" y="16" width="57" height="56" rx="28" fill="#FF5001"/>
<path d="M62.2503 44.0641C59.3779 42.4144 55.5914 42.5922 55.5914 42.5922H49.2037V30.7582C49.2037 30.7582 56.8067 30.7582 58.1626 30.7582C59.5185 30.7582 60.3119 31.8152 60.7538 33.0894C61.2058 34.3637 61.2962 35.7467 61.2962 35.7467H62.642V29.0098H41.7815V30.8767C41.7815 30.8767 42.1431 30.8965 43.3383 30.8965C44.5335 30.8965 45.0457 33.0302 45.0457 33.0302C45.0457 33.0302 45.0457 52.174 45.0457 54.1102C45.0457 56.0562 44.885 56.4711 43.971 57.3403C43.0571 58.2096 41.7715 57.8836 41.7715 57.8836V59.8494H53.874C53.874 59.8494 58.6246 59.8494 59.9202 59.6518C61.2158 59.4543 66.7197 57.0539 66.9809 52.5099C67.2621 47.8277 65.1228 45.7137 62.2503 44.0641ZM58.7049 56.5303C56.4351 58.1207 53.3115 57.7058 51.1723 57.4687C49.033 57.2317 49.2138 55.2066 49.2138 55.2066V44.3604C49.2138 44.3604 53.3517 44.3604 54.5268 44.3604C55.7019 44.3604 56.8971 44.5679 58.1425 45.2593C59.3879 45.9409 62.0394 47.6103 62.0896 50.4355C62.1499 53.2606 60.9748 54.9399 58.7049 56.5303Z" fill="white"/>
<path d="M42.3531 36.3686C40.7059 36.3686 39.3701 35.0548 39.3701 33.4348C39.3701 31.8148 40.7059 30.501 42.3531 30.501C44.0002 30.501 45.336 31.8148 45.336 33.4348C45.336 35.0548 43.9902 36.3686 42.3531 36.3686ZM42.3531 30.8665C40.9168 30.8665 39.7518 32.0123 39.7518 33.4249C39.7518 34.8375 40.9168 35.9834 42.3531 35.9834C43.7893 35.9834 44.9543 34.8375 44.9543 33.4249C44.9543 32.0222 43.7893 30.8665 42.3531 30.8665Z" fill="white"/>
<path d="M42.3522 58.299C40.7653 58.299 39.4697 57.0247 39.4697 55.4639C39.4697 53.9032 40.7653 52.6289 42.3522 52.6289C43.9391 52.6289 45.2347 53.9032 45.2347 55.4639C45.2347 57.0247 43.9391 58.299 42.3522 58.299ZM42.3522 53.0142C40.9763 53.0142 39.8514 54.1205 39.8514 55.4738C39.8514 56.8271 40.9763 57.9335 42.3522 57.9335C43.7282 57.9335 44.8531 56.8271 44.8531 55.4738C44.8531 54.1205 43.7282 53.0142 42.3522 53.0142Z" fill="white"/>
<path d="M57.6499 36.3686C56.0028 36.3686 54.667 35.0548 54.667 33.4348C54.667 31.8148 56.0028 30.501 57.6499 30.501C59.2971 30.501 60.6329 31.8148 60.6329 33.4348C60.6329 35.0548 59.2971 36.3686 57.6499 36.3686ZM57.6499 30.8665C56.2137 30.8665 55.0486 32.0123 55.0486 33.4249C55.0486 34.8375 56.2137 35.9834 57.6499 35.9834C59.0862 35.9834 60.2512 34.8375 60.2512 33.4249C60.2613 32.0222 59.0962 30.8665 57.6499 30.8665Z" fill="white"/>
<path d="M52.7199 59.6721C48.5618 59.6721 44.6549 58.0817 41.7121 55.1874C38.7694 52.2931 37.1523 48.4505 37.1523 44.361C37.1523 40.2714 38.7694 36.4288 41.7121 33.5345C44.6549 30.6402 48.5618 29.0498 52.7199 29.0498C56.8779 29.0498 60.7849 30.6402 63.7276 33.5345C66.6704 36.4288 68.2874 40.2714 68.2874 44.361C68.2874 48.4505 66.6704 52.2931 63.7276 55.1874C60.7849 58.0817 56.8779 59.6721 52.7199 59.6721ZM52.7199 29.4252C44.3435 29.4252 37.534 36.1226 37.534 44.361C37.534 52.5993 44.3435 59.2967 52.7199 59.2967C61.0962 59.2967 67.9058 52.5993 67.9058 44.361C67.9058 36.1324 61.0962 29.4252 52.7199 29.4252Z" fill="white"/>
<path d="M68.0212 29.0599L37.0645 59.5068L37.3343 59.7723L68.2911 29.3253L68.0212 29.0599Z" fill="white"/>
<path d="M37.3294 29.0471L37.0596 29.3125L68.0164 59.7595L68.2862 59.494L37.3294 29.0471Z" fill="white"/>
<path d="M68.3359 59.8199H37V29H68.3359V59.8199ZM37.3817 59.4445H67.9643V29.3754H37.3817V59.4445Z" fill="white"/>
</g>
<defs>
<filter id="filter0_d_160_8227" x="0" y="0" width="105" height="104" filterUnits="userSpaceOnUse" color-interpolation-filters="sRGB">
<feFlood flood-opacity="0" result="BackgroundImageFix"/>
<feColorMatrix in="SourceAlpha" type="matrix" values="0 0 0 0 0 0 0 0 0 0 0 0 0 0 0 0 0 0 127 0" result="hardAlpha"/>
<feOffset dy="8"/>
<feGaussianBlur stdDeviation="12"/>
<feComposite in2="hardAlpha" operator="out"/>
<feColorMatrix type="matrix" values="0 0 0 0 0 0 0 0 0 0 0 0 0 0 0 0 0 0 0.08 0"/>
<feBlend mode="normal" in2="BackgroundImageFix" result="effect1_dropShadow_160_8227"/>
<feBlend mode="normal" in="SourceGraphic" in2="effect1_dropShadow_160_8227" result="shape"/>
</filter>
</defs>
</svg>
