<svg width="220" height="56" viewBox="0 0 220 56" fill="none" xmlns="http://www.w3.org/2000/svg">
<path d="M69.1952 28.6419C69.1952 31.2558 69.1952 33.8848 69.1952 36.5287C67.7201 36.5287 66.2901 36.5287 64.8301 36.5287C64.8301 30.8051 64.8301 25.0815 64.8301 19.2677C65.2214 19.2677 65.6278 19.2677 66.0192 19.2677C66.9223 19.2677 67.8405 19.2828 68.7436 19.2527C69.1049 19.2377 69.3005 19.3579 69.4511 19.6733C70.5649 22.1371 71.6938 24.6008 72.8077 27.0645C73.2291 27.9809 73.6355 28.9123 74.0419 29.8286C74.0871 29.9188 74.1623 29.9939 74.2526 30.1291C74.8246 28.9123 75.3665 27.7405 75.8933 26.5687C76.962 24.2402 78.0307 21.8967 79.1145 19.5832C79.1897 19.433 79.4155 19.2828 79.5811 19.2828C80.8153 19.2527 82.0496 19.2828 83.2688 19.2677C83.7655 19.2527 83.6903 19.5682 83.6903 19.8686C83.6903 24.1801 83.6903 28.4916 83.6903 32.8031C83.6903 34.035 83.6903 35.2518 83.6903 36.5287C82.2152 36.5287 80.7852 36.5287 79.28 36.5287C79.28 33.9148 79.28 31.3159 79.28 28.7019C79.2349 28.6869 79.2048 28.6869 79.1596 28.6719C78.8586 29.2578 78.5575 29.8437 78.2715 30.4446C77.4738 32.0971 76.676 33.7646 75.8933 35.4321C75.7277 35.7926 75.5321 35.9429 75.1257 35.9128C74.4784 35.8828 73.8462 35.8828 73.199 35.9128C72.8829 35.9278 72.7324 35.8077 72.5969 35.5372C71.5583 33.3439 70.4896 31.1657 69.436 28.9874C69.3758 28.8672 69.3156 28.762 69.2554 28.6419C69.2554 28.6268 69.2253 28.6419 69.1952 28.6419Z" fill="#008996"/>
<path d="M162.351 28.6567C162.351 31.2707 162.351 33.8846 162.351 36.5286C160.876 36.5286 159.446 36.5286 157.986 36.5286C157.986 30.7899 157.986 25.0663 157.986 19.2676C158.603 19.2676 159.175 19.2676 159.762 19.2676C160.334 19.2676 160.906 19.2676 161.478 19.2676C162.442 19.2676 162.427 19.2826 162.818 20.1539C163.992 22.7378 165.181 25.3067 166.37 27.8755C166.701 28.6117 167.033 29.3478 167.394 30.189C167.8 29.3177 168.177 28.5666 168.523 27.8004C169.772 25.0663 171.021 22.3322 172.301 19.5981C172.376 19.4479 172.632 19.2826 172.813 19.2826C174.032 19.2526 175.236 19.2826 176.455 19.2676C176.816 19.2676 176.907 19.4028 176.907 19.7483C176.892 25.2165 176.907 30.6848 176.892 36.153C176.892 36.2732 176.862 36.3934 176.847 36.5436C175.402 36.5436 173.987 36.5436 172.497 36.5436C172.497 33.9297 172.497 31.3157 172.497 28.7168C172.451 28.7018 172.406 28.6868 172.361 28.6868C172.09 29.2276 171.819 29.7684 171.563 30.3092C170.75 31.9918 169.953 33.6593 169.155 35.3418C168.959 35.7474 168.764 36.0178 168.237 35.9427C167.83 35.8826 167.409 35.8676 167.003 35.9427C166.16 36.0929 165.783 35.6573 165.467 34.9662C164.534 32.9232 163.541 30.8951 162.577 28.867C162.547 28.7919 162.487 28.7318 162.427 28.6567C162.427 28.6417 162.397 28.6417 162.351 28.6567Z" fill="#008996"/>
<path d="M135.922 19.313C136.027 19.298 136.102 19.2679 136.163 19.283C139.278 19.298 142.409 19.2078 145.525 19.3881C148.069 19.5383 149.996 21.2059 150.583 23.7597C150.989 25.5324 150.853 27.245 150.011 28.8824C149.439 29.9791 148.551 30.7452 147.392 31.3461C148.626 33.0737 149.845 34.7863 151.139 36.574C149.86 36.574 148.686 36.4839 147.527 36.6041C146.323 36.7242 145.525 36.3787 144.908 35.2821C144.321 34.2155 143.523 33.254 142.786 32.2926C142.65 32.0973 142.334 31.9621 142.093 31.932C141.521 31.887 140.934 31.917 140.302 31.917C140.302 33.4794 140.302 34.9966 140.302 36.544C138.827 36.544 137.397 36.544 135.922 36.544C135.922 30.8053 135.922 25.0817 135.922 19.313ZM140.287 27.8759C141.777 27.8759 143.177 27.906 144.592 27.8609C145.6 27.8308 146.353 27.0497 146.503 26.0281C146.684 24.7662 146.233 23.7597 145.209 23.4893C144.502 23.294 143.734 23.324 142.996 23.294C142.108 23.264 141.235 23.294 140.302 23.294C140.302 24.6761 140.302 25.9831 140.302 27.305C140.287 27.4853 140.287 27.6506 140.287 27.8759Z" fill="#008996"/>
<path d="M119.756 36.8593C114.623 36.8443 110.8 32.8182 110.574 28.3565C110.303 22.9934 114.864 18.8922 119.786 18.9073C124.783 18.9223 128.937 22.9784 128.937 27.8758C128.937 32.8333 124.813 36.8743 119.756 36.8593ZM119.816 32.6079C122.465 32.5628 124.527 30.4447 124.467 27.8007C124.422 25.1867 122.3 23.1737 119.665 23.2037C117.122 23.2338 114.999 25.382 115.029 27.8758C115.06 30.5648 117.167 32.653 119.816 32.6079Z" fill="#008996"/>
<path d="M48.6794 36.8593C43.5316 36.8443 39.7084 32.7581 39.4826 28.3715C39.1966 23.0836 43.7122 18.8922 48.6945 18.9073C53.7068 18.9223 57.8461 22.9634 57.8461 27.8758C57.8461 32.8333 53.7369 36.8593 48.6794 36.8593ZM48.6493 23.2037C46.0754 23.2188 43.923 25.352 43.938 27.8608C43.9681 30.5348 46.0754 32.638 48.7246 32.6079C51.3436 32.5779 53.4509 30.4747 53.3907 27.8608C53.3305 25.2168 51.3436 23.1887 48.6493 23.2037Z" fill="#008996"/>
<path d="M201.728 36.559C200.208 36.559 198.718 36.559 197.213 36.544C197.108 36.544 196.942 36.4088 196.897 36.2886C196.626 35.6427 196.385 34.9666 196.099 34.3207C196.039 34.1704 195.798 34.0052 195.647 34.0052C193.6 33.9902 191.538 33.9751 189.491 34.0052C189.341 34.0052 189.115 34.2155 189.04 34.3808C188.784 34.9666 188.603 35.5826 188.347 36.1534C188.287 36.3036 188.076 36.514 187.926 36.514C186.451 36.544 184.976 36.529 183.41 36.529C183.741 35.6877 184.027 34.9216 184.328 34.1554C185.352 31.6316 186.375 29.1078 187.399 26.584C188.332 24.2855 189.265 22.0021 190.184 19.7036C190.319 19.3581 190.515 19.2229 190.891 19.2379C192.035 19.268 193.179 19.268 194.323 19.2379C194.699 19.2229 194.85 19.3882 194.985 19.7036C196.144 22.588 197.318 25.4723 198.492 28.3567C199.561 31.0007 200.63 33.6296 201.683 36.2736C201.728 36.3637 201.728 36.4389 201.728 36.559ZM192.682 25.0968C192.637 25.0968 192.592 25.0968 192.547 25.0968C191.945 26.7192 191.328 28.3266 190.71 29.9791C192.005 29.9791 193.224 29.9791 194.488 29.9791C193.871 28.3116 193.269 26.7042 192.682 25.0968Z" fill="#008996"/>
<path d="M29.5334 30.1595C30.8881 30.7453 32.2126 31.3312 33.5372 31.9021C32.0471 35.1169 28.2088 37.3703 24.1146 36.7845C19.5539 36.1235 16.5284 32.5631 16.2123 28.5971C15.8661 24.1955 18.8013 20.575 22.6245 19.3582C27.1702 17.931 31.7009 20.2595 33.5372 23.865C32.2277 24.4659 30.9031 25.0518 29.5484 25.6677C28.841 24.4809 27.8476 23.6847 26.538 23.3542C25.3941 23.0688 24.2953 23.204 23.2115 23.7298C21.616 24.511 20.5022 26.4939 20.6677 28.2366C20.8935 30.6101 22.4589 32.1124 24.4608 32.5481C26.4327 32.9537 28.4346 32.0073 29.5334 30.1595Z" fill="#008996"/>
<path d="M104.387 19.313C104.387 20.7401 104.387 22.1222 104.387 23.5644C101.587 23.5644 98.8027 23.5644 96.003 23.5644C96.003 24.5859 96.003 25.5624 96.003 26.599C96.2137 26.614 96.4245 26.629 96.6202 26.629C98.5769 26.629 100.549 26.644 102.506 26.629C102.942 26.629 103.093 26.7492 103.077 27.1999C103.047 28.1613 103.062 29.1228 103.062 30.0842C103.062 30.2645 103.047 30.4297 103.032 30.6551C100.669 30.6551 98.3662 30.6551 95.988 30.6551C95.988 32.6381 95.988 34.561 95.988 36.5289C94.4978 36.5289 93.0679 36.5289 91.5928 36.5289C91.5928 30.8203 91.5928 25.0967 91.5928 19.328C95.8374 19.313 100.097 19.313 104.387 19.313Z" fill="#008996"/>
<path d="M165.061 55.1271C146.351 55.1271 127.822 54.2558 109.97 52.5282C92.1939 50.8156 73.71 49.9443 55.0605 49.9443C23.3007 49.9443 1.79134 52.4982 1.56556 52.5282L0.286133 52.6784V3.41921L1.24946 3.26898C1.43009 3.23894 18.9507 0.625 50.9212 0.625C69.6911 0.625 89.6952 1.51134 110.407 3.26898C131.058 5.01161 150.957 5.88292 169.546 5.88292C201.171 5.88292 218.24 3.28401 218.405 3.26898L219.715 3.05867V52.393L218.706 52.5132C218.511 52.5432 196.911 55.1271 165.061 55.1271ZM55.0454 47.6609C73.7702 47.6609 92.3143 48.5322 110.181 50.2598C127.958 51.9724 146.426 52.8437 165.061 52.8437C192.922 52.8437 212.866 50.8757 217.457 50.365V5.70265C212.866 6.30356 196.399 8.16636 169.561 8.16636C150.897 8.16636 130.938 7.28003 110.226 5.52238C89.5748 3.77975 69.6309 2.90844 50.9212 2.90844C23.3459 2.90844 6.62304 4.86138 2.55899 5.38718V50.1246C7.66163 49.5688 27.5454 47.6609 55.0454 47.6609Z" fill="#008996"/>
</svg>
