<svg width="220" height="49" viewBox="0 0 220 49" fill="none" xmlns="http://www.w3.org/2000/svg">
<path fill-rule="evenodd" clip-rule="evenodd" d="M8.14117 0.950195H211.86C216.186 0.950195 219.715 4.51975 219.715 8.89728V40.1792C219.715 44.5567 216.186 48.1262 211.86 48.1262H8.14117C3.81434 48.1262 0.286133 44.5446 0.286133 40.1792V8.89728C0.286133 4.53181 3.81434 0.950195 8.14117 0.950195Z" fill="#005DA9"/>
<path fill-rule="evenodd" clip-rule="evenodd" d="M11.6689 34.1614C11.6689 35.7895 12.849 36.8748 14.4224 36.8748H23.6482C25.3289 36.8748 26.1871 35.6086 26.1871 34.3785C26.1871 33.1123 25.3646 31.8823 23.6482 31.8823H17.0328V26.347H22.8972C24.6137 26.347 25.5076 25.0808 25.5076 23.8507C25.5076 22.5845 24.6494 21.3545 22.8972 21.3545H17.0328V16.1086H23.3263C25.007 16.1086 25.8652 14.8424 25.8652 13.6124C25.8652 12.3462 25.0428 11.1161 23.3263 11.1161H14.4581C12.5629 11.1161 11.6689 12.4547 11.6689 14.2636V34.1614ZM28.2372 34.27C28.2372 36.0789 29.3815 37.1039 30.9191 37.1039C32.4568 37.1039 33.6011 36.0909 33.6011 34.27V26.4194H33.6726L41.6111 36.1512C42.1832 36.8386 43.0414 37.1039 43.6851 37.1039C45.2585 37.1039 46.367 35.7292 46.367 34.3062C46.367 33.7997 46.1524 33.257 45.6518 32.7144L39.5728 26.1299C43.2202 25.5511 46.1882 23.2719 46.1882 19.2803C46.1882 13.6003 42.7911 11.104 37.2842 11.104H30.9788C29.1908 11.104 28.2253 12.1894 28.2253 13.9259V34.27H28.2372ZM33.6011 16.1086H37.2842C39.251 16.1086 40.6098 17.2302 40.6098 19.2923C40.6098 21.3183 39.251 22.5121 37.2842 22.5121H33.6011V16.1086ZM61.8625 21.6077C60.5037 21.6077 59.3594 22.5483 59.3594 24.0678C59.3594 25.5511 60.3964 26.6003 61.8625 26.6003H65.5099C65.5099 30.7246 62.2559 32.3164 59.4309 32.3164C54.8895 32.3164 52.7082 28.4092 52.7082 23.9834C52.7082 19.6059 54.9611 15.6625 59.4309 15.6625C64.1153 15.6625 64.616 18.3035 67.0476 18.3035C68.2991 18.3035 69.2646 17.3266 69.2646 15.771C69.2646 13.2385 64.8305 10.6699 59.4309 10.6699C52.1242 10.6699 47.1299 16.4584 47.1299 23.9834C47.1299 31.4722 52.1719 37.309 59.4309 37.309C66.5827 37.309 71.0883 32.0632 71.0883 25.0688C71.0883 22.7534 70.1944 21.5957 67.9416 21.5957H61.8625V21.6077ZM84.6171 32.3284C80.0757 32.3284 77.8825 28.4212 77.8825 23.9955C77.8825 19.6179 80.1353 15.6745 84.6171 15.6745C89.087 15.6745 91.3398 19.6179 91.3398 23.9955C91.3398 28.4092 89.1585 32.3284 84.6171 32.3284ZM84.6171 37.321C91.9477 37.321 96.9182 31.4843 96.9182 23.9955C96.9182 16.6513 91.8046 10.682 84.6171 10.682C77.3104 10.682 72.316 16.4704 72.316 23.9955C72.316 31.4843 77.3581 37.321 84.6171 37.321ZM99.1352 34.27C99.1352 36.0789 100.28 37.116 101.817 37.116C103.355 37.116 104.499 36.0909 104.499 34.27V26.3591H110.042C111.758 26.3591 112.616 25.0928 112.616 23.8266C112.616 22.5966 111.758 21.3665 110.042 21.3665H104.499V16.1207H111.079C112.688 16.1207 113.475 14.8545 113.475 13.6244C113.475 12.3582 112.652 11.1281 111.079 11.1281H101.924C100.136 11.1281 99.1352 12.4668 99.1352 13.9501V34.27ZM126.324 32.3284C121.783 32.3284 119.601 28.4212 119.601 23.9955C119.601 19.6179 121.854 15.6745 126.324 15.6745C130.794 15.6745 133.047 19.6179 133.047 23.9955C133.059 28.4092 130.865 32.3284 126.324 32.3284ZM126.324 37.321C133.666 37.321 138.637 31.4843 138.637 23.9955C138.637 16.6513 133.523 10.682 126.324 10.682C119.029 10.682 114.023 16.4704 114.023 23.9955C114.023 31.4843 119.065 37.321 126.324 37.321ZM140.854 34.27C140.854 36.0789 141.998 37.1039 143.536 37.1039C145.073 37.1039 146.218 36.0909 146.218 34.27V26.4194H146.289L154.228 36.1512C154.8 36.8386 155.658 37.1039 156.302 37.1039C157.875 37.1039 158.984 35.7292 158.984 34.3062C158.984 33.7997 158.769 33.257 158.269 32.7144L152.19 26.1299C155.837 25.5511 158.805 23.2719 158.805 19.2803C158.805 13.6003 155.408 11.104 149.901 11.104H143.607C141.819 11.104 140.854 12.1894 140.854 13.9259V34.27ZM146.218 16.1086H149.901C151.868 16.1086 153.227 17.2302 153.227 19.2923C153.227 21.3183 151.868 22.5121 149.901 22.5121H146.218V16.1086ZM160.033 33.8841C159.997 34.1012 159.997 34.3182 159.997 34.4991C159.997 36.0909 161.141 37.1039 162.572 37.1039C164.395 37.1039 165.11 36.2718 165.361 34.5715L167.471 19.835H167.542L171.833 34.9935C172.083 35.8618 172.763 37.1039 174.694 37.1039C176.625 37.1039 177.304 35.8739 177.555 34.9935L181.846 19.835H181.917L184.027 34.5715C184.277 36.2718 184.992 37.1039 186.816 37.1039C188.246 37.1039 189.391 36.0909 189.391 34.4991C189.391 34.3182 189.391 34.1012 189.355 33.8841L186.029 13.6848C185.815 12.3823 184.42 10.8991 182.525 10.8991C180.737 10.8991 179.342 12.2014 178.949 13.5038L174.73 27.8424H174.658L170.438 13.5038C170.045 12.2014 168.651 10.8991 166.863 10.8991C164.967 10.8991 163.573 12.3823 163.358 13.6848L160.033 33.8841ZM190.583 33.3655C190.511 33.5464 190.332 33.9806 190.332 34.5594C190.332 36.0065 191.548 37.0919 192.979 37.0919C194.445 37.0919 195.196 36.296 195.553 35.1624L196.626 31.7978H206.567L207.64 35.1986C207.997 36.2839 208.748 37.0919 210.25 37.0919C211.573 37.0919 212.717 36.103 212.717 34.7041C212.717 34.4509 212.646 33.9444 212.431 33.3655L205.423 13.6848C204.815 11.9482 203.492 10.682 201.596 10.682C199.773 10.682 198.378 12.0206 197.77 13.6848L190.583 33.3655ZM201.561 16.3257H201.632L204.958 26.8294H198.164L201.561 16.3257Z" fill="white"/>
</svg>
