<svg width="220" height="53" viewBox="0 0 220 53" fill="none" xmlns="http://www.w3.org/2000/svg">
<path fill-rule="evenodd" clip-rule="evenodd" d="M0.286133 0.125L4.73731 0.502474L8.14115 0.821015L11.545 1.17491L14.9488 1.55242L18.3527 1.95351L21.7565 2.37818L25.1603 2.8147L28.5642 3.27476L31.968 3.73486L35.36 4.20673L38.7638 4.69041L42.1557 5.17408L45.5596 5.65773L48.9515 6.14141L52.3553 6.62508L55.7473 7.09695L59.1392 7.56886L62.5311 8.02892L65.9231 8.47721L69.315 8.90188L72.707 9.30301L76.0989 9.69229L79.4908 10.0462L82.8828 10.3765L86.2747 10.6832L89.6667 10.9546L93.0586 11.1905L96.4505 11.3911L99.8425 11.5444L103.234 11.6624L106.626 11.7332L110.018 11.7568L113.398 11.7332L116.778 11.6624L120.158 11.5444L123.538 11.3911L126.918 11.1905L130.298 10.9546L133.69 10.6832L137.07 10.3765L140.45 10.0462L143.842 9.69229L147.234 9.30301L150.626 8.90188L154.018 8.47721L157.41 8.02892L160.802 7.56886L164.194 7.09695L167.598 6.62508L170.99 6.14141L174.394 5.65773L177.798 5.17408L181.189 4.69041L184.593 4.20673L187.997 3.73486L191.401 3.27476L194.805 2.8147L198.209 2.37818L201.612 1.95351L205.016 1.55242L208.42 1.17491L211.836 0.821015L215.252 0.502474L219.715 0.125V52.4562L215.287 52.2202L211.884 52.0197L208.48 51.8073L205.076 51.5714L201.672 51.3237L198.268 51.0641L194.864 50.7928L191.46 50.5215L188.057 50.2383L181.249 49.6485L171.049 48.7519L167.657 48.457L164.265 48.1621L160.874 47.8671L157.482 47.584L154.09 47.3127L150.698 47.0532L147.306 46.8054L143.914 46.5695L140.522 46.3454L137.13 46.133L133.738 45.9443L130.346 45.7791L126.966 45.6375L123.574 45.5078L120.182 45.4134L116.802 45.3426L113.422 45.2954L110.03 45.2836L106.638 45.2954L103.246 45.3426L99.8544 45.4134L96.4505 45.5078L93.0586 45.6375L89.6667 45.7791L86.2747 45.9443L82.8828 46.133L79.479 46.3454L76.087 46.5695L72.6951 46.8054L69.3031 47.0532L65.9112 47.3127L62.5074 47.584L59.1154 47.8671L55.7235 48.1621L52.3196 48.457L45.5358 49.0586L42.1319 49.3536L38.74 49.6485L31.9442 50.2383L28.5523 50.5215L25.1484 50.7928L21.7446 51.0641L18.3527 51.3237L14.9488 51.5714L11.545 51.8073L8.14115 52.0197L4.74921 52.2202L0.333731 52.4562V0.125H0.286133Z" fill="#F5E654"/>
<path fill-rule="evenodd" clip-rule="evenodd" d="M2.12988 2.11865L4.5697 2.33102L7.94973 2.64953L11.3417 3.00342L14.7336 3.38093L18.1255 3.78202L21.5175 4.19492L24.9094 4.6314L28.3013 5.07969L31.6933 5.55156L35.0852 6.02347L38.4772 6.50711L41.881 6.99079L45.2729 7.47447L52.0687 8.44183L55.4725 8.9137L58.8764 9.38557L62.2802 9.84566L65.6841 10.294L69.0879 10.7186L72.4918 11.1197L75.8956 11.509L79.2994 11.8747L82.7033 12.205L86.119 12.5118L89.5229 12.7831L92.9386 13.019L96.3543 13.2196L99.7701 13.3847L103.186 13.5027L106.602 13.5735L110.017 13.5971L113.421 13.5735L116.825 13.5027L120.229 13.3847L123.633 13.2196L127.036 13.019L130.44 12.7831L133.844 12.5118L137.248 12.205L140.652 11.8747L144.056 11.509L147.46 11.1197L150.863 10.7186L154.267 10.294L157.671 9.84566L161.063 9.38557L164.467 8.9137L167.871 8.44183L174.666 7.47447L178.07 6.99079L181.474 6.50711L184.866 6.02347L188.258 5.55156L191.662 5.07969L195.054 4.6314L198.458 4.19492L201.85 3.78202L205.253 3.38093L208.645 3.00342L212.037 2.64953L215.441 2.33102L217.881 2.11865V50.5097L215.405 50.3799L212.002 50.1794L208.61 49.9552L205.206 49.7193L201.814 49.4715L198.41 49.212L195.018 48.9407L191.614 48.6576L188.21 48.3744L181.415 47.7846L167.823 46.5813L161.027 46.0033L157.635 45.7201L154.231 45.4488L150.84 45.1893L147.436 44.9415L144.044 44.7056L140.64 44.4814L137.236 44.2809L133.844 44.0922L130.44 43.927L127.036 43.7736L123.633 43.6439L120.229 43.5495L116.825 43.4787L113.421 43.4315L110.017 43.4197L106.602 43.4315L103.186 43.4787L99.7701 43.5495L96.3662 43.6439L92.9624 43.7736L89.5586 43.927L86.1547 44.0922L82.7509 44.2809L79.347 44.4814L75.9432 44.7056L72.5393 44.9415L69.1355 45.1893L65.7317 45.4488L62.3278 45.7201L58.9359 46.0033L52.1401 46.5813L45.3443 47.1829L41.9524 47.4779L38.5486 47.7728L31.7647 48.3626L28.3728 48.6458L24.9808 48.9289L21.5889 49.2002L18.197 49.4597L14.805 49.7075L11.4131 49.9434L8.02114 50.1676L4.62919 50.3681L2.16559 50.4979V2.11865H2.12988Z" fill="#213461"/>
<path fill-rule="evenodd" clip-rule="evenodd" d="M22.7077 6.21183C25.4331 6.45956 28.1586 6.70731 31.0149 6.95504C29.2773 10.034 27.5397 13.7147 25.814 17.6549C24.1954 21.4653 22.4696 25.028 20.732 27.7295C22.5886 30.313 24.4572 33.2622 26.3138 36.7069C28.1705 40.1398 30.039 43.5845 31.8956 46.4158C29.0393 46.6635 26.0639 46.7815 23.2194 47.0292C21.7317 44.4457 20.3631 41.7442 18.8754 38.795C17.3877 35.716 16.0309 32.8965 14.5432 30.4309C14.5432 32.8965 14.5432 35.8457 14.5432 38.795C14.5432 41.8622 14.5432 44.6934 14.5432 47.2769C12.1867 47.4067 9.94922 47.4067 7.72363 47.5247C7.72363 41.0128 7.72363 34.0054 7.72363 28.4727C7.72363 21.9608 7.72363 13.231 7.72363 5.36245C9.96112 5.48042 12.1867 5.48044 14.5432 5.61021C14.5432 8.55944 14.5432 11.8744 14.5432 15.5668C14.5432 19.1295 14.5432 22.5742 14.5432 25.5234C15.9 22.5742 17.2687 19.2474 18.6373 15.6848C19.9703 12.2283 21.339 8.91333 22.7077 6.21183ZM61.0187 28.6968C61.0187 30.5371 60.6498 32.6252 60.019 34.7132C59.2811 37.049 58.2813 39.1371 57.0436 40.8594C55.6868 42.5818 54.1991 43.8087 52.4615 44.6698C50.7239 45.649 48.7482 46.1445 46.7607 46.2742C44.6541 46.3922 42.7855 46.2742 41.0598 45.6608C39.3222 44.9294 37.7155 43.7025 36.4658 41.9801C35.1091 40.1398 34.2283 37.804 33.4904 35.2205C32.7406 32.637 32.5026 30.313 32.5026 28.0952C32.5026 25.7594 32.8716 22.9281 33.6214 19.9907C34.3712 16.9117 35.359 14.3399 36.8467 12.2401C38.0844 10.2818 39.7031 9.0431 41.4407 8.42966C43.0593 7.68645 44.9159 7.68647 46.7726 7.93421C48.6292 8.18194 50.3668 8.79538 52.1044 9.77452C53.8421 10.8834 55.4488 12.358 56.6865 14.3281C58.0552 16.4162 59.0431 18.8699 59.9119 21.7012C60.6379 24.2729 61.0187 26.6087 61.0187 28.6968ZM39.4412 28.3311C39.4412 29.6877 39.8102 31.2803 40.441 32.7549C41.0598 34.3593 41.9286 35.5744 43.0474 36.5653C44.1661 37.4265 45.4039 37.9102 46.7607 37.9102C48.1174 37.7922 49.2362 37.2968 50.3549 36.3176C51.4737 35.3385 52.3425 34.0998 53.0804 32.6252C53.6993 31.2685 54.0682 29.9237 54.0682 28.567C54.0682 27.3401 53.6993 25.9835 53.0804 24.3909C52.3306 22.7865 51.4737 21.3119 50.3549 20.085C49.2362 18.8582 47.9984 18.2447 46.7607 18.115C45.4039 17.997 44.2732 18.4807 43.1664 19.5896C41.9286 20.6985 41.0598 22.0551 40.441 23.8955C39.8102 25.5116 39.4412 26.9862 39.4412 28.3311ZM66.9695 11.7446C69.207 11.9923 71.4325 12.2283 73.5391 12.476C74.4079 15.4252 75.2767 18.8582 76.1455 22.3029C77.0144 25.6178 78.0022 28.2013 78.871 30.1714C79.7398 28.3311 80.7276 25.7476 81.5965 22.6686C82.5843 19.4716 83.4531 16.4044 84.3219 13.7029C86.5594 13.9506 88.785 14.1984 91.0225 14.3163C91.7723 19.6014 92.3911 25.3819 93.01 29.6759C93.6289 33.3566 94.3668 37.9102 94.9857 42.0863C92.7482 42.0863 90.5226 42.2161 88.2851 42.3341C87.9162 39.9983 87.5472 37.2967 87.2973 34.5952C87.0473 32.0117 86.6784 29.9237 86.4285 27.8356C86.3095 27.8356 86.3095 27.8356 86.3095 27.8356C85.3097 29.9237 84.2029 32.0117 83.2032 34.5952C82.0844 37.4147 81.0966 40.246 80.0969 42.8295C79.228 42.8295 78.2402 42.9593 77.3714 42.9593C76.3836 40.4937 75.5148 37.6743 74.396 34.843C73.5272 32.0117 72.5394 29.8057 71.5516 27.4699C71.4206 27.4699 71.4206 27.4699 71.4206 27.4699C71.0517 29.6877 70.6708 32.0235 70.3019 34.843C69.9329 37.9102 69.564 40.8594 69.3141 43.5609C67.0766 43.8087 64.851 43.9266 62.6135 44.0564C63.3633 39.0191 64.1012 33.6043 64.7201 29.1805C65.6008 24.2729 66.2197 17.6431 66.9695 11.7446ZM109.375 40.2578C107.637 40.2578 106.03 40.0101 104.412 39.5264C102.805 38.9129 101.436 38.1697 100.199 37.1906C99.0798 36.0817 98.092 34.7368 97.4731 33.2622C96.7352 31.9056 96.3544 30.5607 96.3544 29.322C96.3544 27.9772 96.7233 26.3728 97.4731 24.7802C98.2229 23.0579 99.2107 21.5833 100.329 20.3564C101.567 19.2475 103.055 18.3981 104.543 17.7728C106.149 17.2892 107.768 17.0296 109.375 17.0296C109.375 16.4162 109.375 15.8028 109.375 15.1893C111.481 15.1893 113.719 15.1893 115.944 15.0713C115.944 15.6848 115.944 16.2982 115.944 16.9117C117.682 16.9117 119.289 17.0296 120.895 17.6549C122.383 18.1385 123.871 18.9997 125.108 20.2384C126.346 21.3473 127.215 22.8219 127.965 24.6622C128.703 26.2666 129.084 27.8592 129.084 29.2158C129.084 30.5607 128.715 31.9174 128.084 33.392C127.346 34.8666 126.477 36.2232 125.239 37.2024C124.002 38.3113 122.633 39.0427 121.026 39.5382C119.42 40.0336 117.801 40.2696 115.944 40.2696C115.944 40.7651 115.944 41.2487 115.944 41.7442C113.707 41.7442 111.481 41.7442 109.375 41.7442C109.375 41.2369 109.375 40.7415 109.375 40.2578ZM109.375 24.5207C108.387 24.5207 107.387 24.7684 106.399 25.2639C105.53 25.8773 104.793 26.4908 104.162 27.3519C103.662 27.9654 103.424 28.7086 103.424 29.44C103.424 30.1714 103.674 30.7849 104.162 31.5281C104.781 32.2713 105.53 33.0027 106.399 33.3684C107.387 33.8639 108.387 34.1116 109.375 34.1116C109.375 32.519 109.375 30.9146 109.375 29.6877C109.375 28.3311 109.375 26.6087 109.375 24.5207ZM115.944 34.1116C117.063 34.1116 118.051 33.8638 119.039 33.4981C119.907 33.0027 120.657 32.2713 121.276 31.5281C121.776 30.7967 122.014 30.0534 122.014 29.3102C122.014 28.6968 121.764 27.9654 121.276 27.2222C120.657 26.479 119.919 25.7476 119.039 25.2521C118.051 24.7566 117.063 24.5089 115.944 24.5089C115.944 26.5969 115.944 28.3193 115.944 29.6759C115.944 30.9146 115.944 32.5072 115.944 34.1116ZM131.69 29.0743C134.915 29.0743 138.141 28.9445 141.485 28.9445C141.485 30.3012 141.485 31.7758 141.485 33.6161C138.141 33.6161 134.915 33.4864 131.69 33.4864C131.69 31.7758 131.69 30.3012 131.69 29.0743ZM172.727 28.4609C172.727 30.4191 172.358 32.637 171.739 34.9728C170.989 37.4265 170.001 39.5264 168.763 41.2369C167.395 42.8413 165.919 43.8205 164.169 44.4339C162.432 45.0474 160.444 45.1771 158.468 45.0473C156.362 44.7996 154.505 44.4339 152.768 43.5727C151.03 42.7115 149.423 41.6026 148.186 40.0101C146.817 38.4057 145.948 36.5654 145.21 34.4773C144.46 32.519 144.091 30.6669 144.091 28.9445C144.091 27.1042 144.579 24.8864 145.329 22.5506C146.079 20.0968 147.067 17.879 148.435 15.9089C149.804 14.1866 151.28 12.712 153.148 11.7328C154.755 10.8716 156.612 10.2582 158.48 10.0104C160.337 9.76271 162.075 9.7627 163.812 10.3761C165.55 10.8716 167.157 11.9805 168.394 13.8209C169.763 15.6612 170.751 17.997 171.62 20.8282C172.358 23.5415 172.727 26.1251 172.727 28.4609ZM151.161 28.9445C151.161 30.0534 151.53 31.4101 152.149 32.637C152.768 33.9936 153.636 35.1025 154.755 35.9637C155.874 36.8249 157.112 37.3204 158.48 37.3204C159.718 37.4383 160.968 36.9547 162.075 36.2115C163.193 35.3503 164.05 34.1234 164.8 32.6488C165.419 31.2921 165.788 29.9473 165.788 28.5906C165.788 27.3637 165.419 26.0071 164.8 24.5325C164.05 22.9399 163.181 21.5832 162.075 20.6041C160.956 19.7429 159.718 19.2474 158.48 19.3772C157.124 19.4952 156.005 20.1086 154.886 21.2175C153.648 22.2085 152.78 23.5533 152.161 25.1577C151.53 26.4907 151.161 27.8356 151.161 28.9445ZM175.833 8.54763C179.308 8.18193 182.652 7.68645 186.128 7.32074C187.984 7.07301 189.722 7.32076 191.079 8.18193C192.447 8.92514 193.566 10.5177 194.304 12.8535C195.173 15.3073 195.542 18.5042 195.542 22.0669C195.542 24.7684 195.292 26.7385 194.923 27.9654C194.554 29.1923 193.935 30.1832 193.185 31.0444C192.316 32.0235 191.448 32.7667 190.329 33.2622C189.091 33.7577 187.853 33.9936 186.366 33.9936C185.128 33.9936 183.759 33.8756 182.521 33.8756C182.521 35.9637 182.521 38.0518 182.521 40.2696C182.521 42.3577 182.521 44.3277 182.521 46.0383C180.284 45.9203 178.058 45.7905 175.821 45.5546C175.821 39.9039 175.821 33.7577 175.821 28.8384C175.833 23.1758 175.833 15.4252 175.833 8.54763ZM182.521 27.5997C182.89 27.5997 183.271 27.5997 183.64 27.5997C184.759 27.5997 185.628 27.4699 186.247 27.3519C186.866 27.234 187.484 26.8565 187.865 26.243C188.365 25.4998 188.484 24.4027 188.484 22.6804C188.484 20.958 188.365 19.4834 187.865 18.6222C187.496 17.761 186.996 17.1476 186.378 17.0178C185.759 16.8999 184.759 16.7701 183.652 16.8998C183.283 16.8998 182.902 16.8999 182.533 17.0178C182.521 20.958 182.521 24.6504 182.521 27.5997ZM208.812 47.3831C206.574 47.3831 204.349 47.2534 202.111 47.1354C202.111 42.3458 202.111 36.9311 202.111 31.8938C202.111 27.9654 202.111 22.9281 202.111 16.4044C200.255 16.4044 198.386 16.5342 196.53 16.6521C196.53 12.8417 196.53 9.27905 196.53 6.20006C202.48 5.83435 208.431 5.45684 214.382 5.33887C214.382 8.53584 214.382 12.2165 214.382 16.0269C212.525 16.0269 210.657 16.1567 208.8 16.1567C208.8 22.7983 208.8 27.8238 208.8 31.882C208.812 37.0608 208.812 42.4638 208.812 47.3831Z" fill="white"/>
<path fill-rule="evenodd" clip-rule="evenodd" d="M204.16 2.4255V50.7457L205.005 50.8165V2.31934L204.16 2.4255ZM15.7109 2.4137L16.5559 2.5199V50.6868L15.7109 50.7575V2.4137ZM30.207 4.34841L31.052 4.46639V49.4717L30.207 49.5424V4.34841ZM44.7031 6.49546L45.2624 6.57801L45.5481 6.62521V48.1622L45.31 48.1858L44.7031 48.2448V6.49546ZM59.1991 8.6307L60.0442 8.74868V46.8409L59.1991 46.9117V8.6307ZM73.6952 10.5418L74.5402 10.648V45.6849L73.6952 45.7438V10.5418ZM88.1913 12.0282L89.0363 12.099V44.7883L88.1913 44.8355V12.0282ZM102.687 12.8776L103.151 12.8894L103.52 12.9012V44.2928H103.163L102.687 44.3046V12.8776ZM117.183 12.8776L118.028 12.854V44.3282L117.183 44.3046V12.8776ZM131.679 12.0282L132.524 11.9574V44.8591L131.679 44.8237V12.0282ZM146.176 10.5418L147.021 10.4356V45.7792L146.176 45.7203V10.5418ZM160.672 8.6307L161.041 8.5835L161.517 8.51272V46.9825L160.993 46.9353L160.672 46.9117V8.6307ZM175.168 6.49546L176.013 6.36567V48.3038L175.168 48.2212V6.49546ZM189.652 4.36022L190.497 4.24224V49.625L189.652 49.5543V4.36022Z" fill="#F5E654"/>
<path fill-rule="evenodd" clip-rule="evenodd" d="M2.12988 35.0906C37.4417 35.0317 72.8131 34.2531 108.161 34.0407C109.315 34.0407 110.517 34.0407 111.672 34.0407C147.055 34.2531 182.486 35.0317 217.845 35.0906V35.9518C181.926 35.8928 145.936 35.0788 109.993 34.8901C74.0389 35.0788 38.0606 35.881 2.12988 35.9518V35.0906ZM217.845 20.3681V21.2057C213.12 21.2293 208.443 21.2646 203.801 21.418C174.631 22.3618 146.686 24.9099 115.325 25.4761C113.54 25.5115 111.814 25.5233 110.065 25.4997C76.3359 25.1576 46.7963 22.3618 15.8523 21.359C11.3179 21.2175 6.74768 21.1703 2.12988 21.1585V20.3091C6.77148 20.3091 11.3655 20.3091 15.9238 20.4624C46.8201 21.4652 76.3359 24.3318 110.005 24.6857C111.779 24.6975 113.552 24.6975 115.325 24.6622C146.662 24.0723 174.571 21.477 203.718 20.5332C208.383 20.3563 213.096 20.3563 217.845 20.3681Z" fill="#F5E654"/>
</svg>
