<svg width="220" height="105" viewBox="0 0 220 105" fill="none" xmlns="http://www.w3.org/2000/svg">
<path fill-rule="evenodd" clip-rule="evenodd" d="M171.137 48.1455L181.672 10.8693H182.42L177.106 48.1455H171.137ZM148.776 76.0839H163.241L168.892 56.3253H175.909L173.139 76.0839H187.622L196.024 1.73704H172.503L148.776 76.0839ZM122.411 76.0839H137.306L151.359 9.91688H160.303L162.099 1.73704H129.316L127.519 9.91688H136.464L122.411 76.0839ZM79.7478 51.5444L77.4088 62.8057C76.8661 65.2335 76.548 67.1571 76.548 69.3794C76.548 75.5423 81.881 76.0652 85.6047 76.0652H97.9545C103.269 76.0652 109.556 74.2724 111.895 62.787L114.777 48.8738C115.207 46.7448 115.319 44.84 114.777 43.1405C114.234 41.441 112.962 39.947 111.483 38.4716L102.651 29.6568C101.697 28.6857 100.518 27.9573 100.518 26.9862C100.518 25.8283 100.406 24.5397 100.724 23.0457L103.063 12.326C103.606 10.085 105.308 9.87955 105.832 9.87955C107.329 9.87955 107.965 11.1495 107.741 12.326L105.084 24.7452H119.979L121.999 14.9779C122.542 12.5314 122.748 10.6265 122.748 8.38549C122.748 2.22259 117.527 1.69971 113.804 1.69971H101.454C90.8066 1.69971 88.6734 9.67409 87.5133 14.9779L84.5381 29.1152C84.1077 31.0201 84.3322 32.6262 84.3322 34.3257C84.3322 36.0251 85.5111 37.6312 86.9893 38.9011L96.3453 47.2864C98.3662 49.0979 99.5451 50.2558 98.7966 53.8789L96.3453 65.4576C96.0272 66.9516 94.6425 67.9041 93.4636 67.9041C92.3971 67.9041 91.3305 67.045 91.6486 65.4576L94.6238 51.5444H79.7478ZM55.497 65.4576C55.1789 66.9516 53.7943 67.9041 52.6154 67.9041C51.5489 67.9041 51.0249 67.1571 50.8004 66.6341C50.7068 66.3167 50.7068 65.8871 50.8004 65.4576L62.196 12.3447C62.6263 10.1036 64.4227 9.89819 64.9653 9.89819C66.4623 9.89819 67.0985 11.1681 66.8739 12.3447L55.497 65.4576ZM36.5419 62.8057C36.0179 65.2335 35.6998 67.1571 35.6998 69.3794C35.6998 75.5423 41.014 76.0652 44.7564 76.0652H57.1063C62.4205 76.0652 68.5955 74.2724 71.0467 62.787L81.1699 14.9779C81.6938 12.5314 81.9184 10.6265 81.9184 8.38549C81.9184 2.22259 76.6978 1.69971 72.9741 1.69971H60.6242C49.977 1.69971 47.8626 9.67409 46.6837 14.9779L36.5419 62.8057ZM0.895508 76.0839H15.7903L22.9195 42.6362H35.3817L37.0845 34.4564H24.641L29.8617 9.91688H43.2594L45.0745 1.73704H16.7633L0.895508 76.0839Z" fill="#F07F14"/>
<path fill-rule="evenodd" clip-rule="evenodd" d="M171.137 48.1453L171.773 48.3134L182.308 11.0373L181.672 10.8505V11.5041H182.42V10.8505L181.765 10.7571L176.451 48.0333L177.106 48.1266V47.473H171.156V48.1453L171.792 48.3134L171.137 48.1453V48.799H177.667L177.742 48.2387L183.056 10.9625L183.169 10.2155H181.167L181.036 10.7011L170.501 47.9773L170.258 48.8176H171.118V48.1453H171.137ZM0.0908203 76.7374H0.895421V76.0837L1.53165 76.2145L17.3994 1.86762L16.7632 1.73688V2.39053H45.0744V1.73688L44.4382 1.5875L42.6418 9.76729L43.278 9.89803V9.24438H29.3376L29.2254 9.76729L24.0234 34.3068L23.855 35.0912H37.1031V34.4376L36.4669 34.3068L34.7641 42.4867L35.4003 42.6174V41.9638H22.4142L22.3019 42.4867L15.1727 75.953L15.8089 76.0837V75.4301H0.914152V76.0837V76.7374H16.3515L16.4638 76.2145L23.5931 42.7668L22.9382 42.6361V43.2897H35.9242L36.0365 42.7668L37.7393 34.5869L37.9077 33.7839H24.6409V34.4376L25.2771 34.5683L30.4978 10.0288L29.8616 9.89803V10.5517H43.802L43.9143 10.0288L45.7294 1.84893L45.8978 1.0459H16.2393L16.127 1.56881L0.259221 75.9344L0.0908203 76.7374ZM148.776 76.0837V76.7374H163.746L163.877 76.2705L169.528 56.5119L168.892 56.3252V56.9975H175.909V56.3252L175.254 56.2505L172.484 76.009L172.391 76.7561H188.202L188.258 76.1772L196.66 1.83023L196.735 1.10192H171.998L171.848 1.56881L148.121 75.9157L147.841 76.7747H148.739V76.0837L149.375 76.2892L173.102 1.94234L172.466 1.73688V2.39053H195.986V1.73688L195.332 1.66216L186.911 76.0277L187.566 76.1024V75.4488H173.083V76.1024L173.738 76.1958L176.507 56.4372L176.62 55.6902H168.349L168.218 56.1571L162.567 75.9157L163.203 76.1024V75.4488H148.739V76.0837L149.375 76.2892L148.776 76.0837ZM122.411 76.0837V76.7374H137.848L137.961 76.2145L152.013 10.0475L151.377 9.91673V10.5704H160.845L160.958 10.0475L162.773 1.86762L162.941 1.06459H128.811L128.698 1.5875L126.883 9.76729L126.715 10.5704H136.482V9.91673L135.846 9.78598L121.794 75.9717L121.625 76.7561H122.43V76.0837L123.085 76.2145L137.119 10.0475L137.287 9.24438H127.538V9.89803L128.174 10.0288L129.989 1.84893L129.353 1.71819V2.37184H162.137V1.71819L161.5 1.56881L159.704 9.74865L160.34 9.8794V9.22574H150.853L150.741 9.74865L136.688 75.9344L137.324 76.0651V75.4115H122.43V76.0837L123.085 76.2145L122.411 76.0837ZM79.7477 51.5443L79.1115 51.4135L76.7725 62.6748C76.2299 65.1213 75.9117 67.1009 75.9117 69.398C75.8743 72.6662 77.4087 74.6644 79.3922 75.6356C81.3569 76.6067 83.7147 76.7374 85.6046 76.7374H97.9544C100.686 76.7374 103.755 76.2705 106.45 74.2722C109.144 72.274 111.352 68.7816 112.55 62.9362L115.431 49.0231C115.675 47.8839 115.806 46.782 115.806 45.7175C115.806 44.765 115.693 43.8499 115.413 42.9722C114.814 41.086 113.448 39.5359 111.951 38.0419L103.119 29.2271C102.614 28.7042 102.09 28.2934 101.716 27.9012C101.341 27.5277 101.192 27.2288 101.192 27.0421C101.192 26.5752 101.192 26.1083 101.192 25.6041C101.192 24.8571 101.229 24.0727 101.397 23.2323L103.736 12.5126L103.1 12.3819L103.736 12.5313C103.98 11.5602 104.41 11.1306 104.822 10.8878C105.233 10.645 105.682 10.589 105.87 10.589C106.356 10.589 106.637 10.7571 106.843 10.9812C107.048 11.2053 107.179 11.5601 107.179 11.9336L107.142 12.2698L107.797 12.3819L107.161 12.2512L104.504 24.689L104.335 25.4733H120.577L120.671 24.9504L122.692 15.1832C123.234 12.7181 123.459 10.7384 123.459 8.46004C123.478 5.19185 121.981 3.19358 120.016 2.22246C118.07 1.23266 115.75 1.12062 113.86 1.12062H101.51C96.0271 1.10194 92.5654 3.23089 90.4696 6.03221C88.3552 8.83352 87.5131 12.2511 86.9144 14.9217L83.9392 29.059L84.5754 29.1898L83.9392 29.0403C83.7146 30.0488 83.6585 30.9826 83.6585 31.8604C83.6585 32.7381 83.7146 33.5598 83.7146 34.3815C83.7333 36.3985 85.0432 38.1166 86.615 39.4426L87.0454 38.9384L86.5963 39.4239L95.9523 47.8278C96.7569 48.5375 97.3744 49.1351 97.786 49.7327C98.179 50.349 98.4035 50.984 98.4222 51.9738C98.4222 52.478 98.3474 53.0756 98.2164 53.804L95.7652 65.3827C95.5406 66.5406 94.3617 67.325 93.5384 67.325C93.2203 67.325 92.9022 67.2129 92.6964 67.0075C92.4718 66.8021 92.3409 66.5406 92.3222 66.0924L92.3596 65.6629L95.3348 51.7497L95.5032 50.9466H79.2612L79.1489 51.4696L79.7477 51.5443V52.1979H94.6424V51.5443L94.0062 51.4135L91.031 65.3267C90.9936 65.5695 90.9562 65.7936 90.9562 66.0177C90.9562 66.8021 91.2742 67.4744 91.7608 67.9039C92.2473 68.3334 92.8648 68.5576 93.4823 68.5576C94.998 68.5389 96.5885 67.4184 97.0001 65.6069L99.4514 54.0281C99.6198 53.2437 99.6947 52.5527 99.6947 51.9364C99.6947 50.7412 99.3765 49.7701 98.8526 48.967C98.31 48.164 97.5989 47.529 96.813 46.8007L87.457 38.3968L87.4383 38.3781C86.0162 37.1828 85.0058 35.6888 85.0058 34.3255C85.0058 33.4478 84.9496 32.626 84.9496 31.8043C84.9496 30.9826 85.0057 30.1609 85.2116 29.2644L88.1868 15.1272C88.7668 12.494 89.5902 9.26308 91.4988 6.76057C93.4074 4.25807 96.3452 2.39051 101.491 2.37184H113.841C115.675 2.37184 117.827 2.5026 119.417 3.343C120.989 4.18339 122.093 5.50933 122.13 8.40402C122.13 10.589 121.924 12.4379 121.401 14.847L119.38 24.6143L120.016 24.745V24.0914H105.121V24.745L105.757 24.8758L108.414 12.4566V12.4379L108.471 11.8776C108.471 11.224 108.265 10.5703 107.816 10.0661C107.385 9.56187 106.674 9.22574 105.851 9.22574C105.495 9.22574 104.822 9.30045 104.129 9.69263C103.418 10.1035 102.745 10.9065 102.445 12.1577V12.1764L100.106 22.8961C99.9005 23.8672 99.8631 24.745 99.8631 25.5294C99.8631 26.0336 99.8818 26.5192 99.8818 26.9674C99.8818 27.7331 100.331 28.2933 100.761 28.7602C101.229 29.2271 101.753 29.6566 102.202 30.0862L111.034 38.901C112.494 40.3577 113.691 41.777 114.159 43.3084C114.384 44.0367 114.496 44.8024 114.496 45.6615C114.496 46.6139 114.365 47.6224 114.14 48.7243L111.259 62.6375C110.099 68.2775 108.021 71.4149 105.645 73.1704C103.269 74.9445 100.537 75.3741 97.9544 75.3741H85.6046C83.7708 75.3741 81.6002 75.2247 79.991 74.403C78.3817 73.5813 77.259 72.2366 77.2216 69.3419C77.2216 67.1756 77.521 65.3267 78.0636 62.8989L80.4026 51.6376L79.7477 51.5443ZM55.4969 65.4574L54.8607 65.3267C54.6362 66.4846 53.4574 67.2689 52.6153 67.2689C52.2411 67.2689 52.0166 67.1382 51.8107 66.9888L51.4178 66.4099L50.8003 66.6527L51.4365 66.4472L51.3991 66.1111L51.4552 65.6442L62.8321 12.5313C63.0192 11.5788 63.4308 11.168 63.8612 10.9065C64.2916 10.6637 64.7781 10.6077 64.9653 10.6077C65.4518 10.6077 65.7324 10.7758 65.9383 10.9999C66.1441 11.224 66.2751 11.5788 66.2751 11.9523L66.2377 12.2885L66.8739 12.4005L66.2377 12.2698L54.8607 65.3827L55.4969 65.4574L56.1332 65.6069L67.5101 12.4939V12.4753L67.5662 11.915C67.5662 11.2614 67.3604 10.6077 66.9113 10.1035C66.4809 9.59925 65.7699 9.26307 64.9465 9.26307C64.591 9.26307 63.9174 9.3191 63.1876 9.72996C62.4578 10.1408 61.7655 10.9439 61.5222 12.2325L50.1266 65.3454L50.7628 65.4761L50.1266 65.3267C50.0518 65.5881 50.0144 65.8496 50.0144 66.0924C50.0144 66.3538 50.0518 66.5967 50.1266 66.8394V66.8581V66.8768C50.2576 67.2129 50.5009 67.6238 50.8938 67.9599C51.2868 68.3148 51.8668 68.5576 52.5405 68.5576C54.0561 68.5389 55.6467 67.4184 56.0583 65.6069L55.4969 65.4574ZM36.5418 62.8055L35.9056 62.6748C35.3629 65.1213 35.0448 67.1009 35.0448 69.398C35.0074 72.6662 36.5418 74.6644 38.5252 75.6356C40.49 76.6254 42.8477 76.7374 44.7376 76.7374H57.0875C59.8194 76.7374 62.8508 76.2705 65.5266 74.2722C68.2024 72.274 70.4291 68.7816 71.6641 62.9362L81.7873 15.1458C82.3299 12.6807 82.5545 10.6824 82.5358 8.42266C82.5732 5.15446 81.0575 3.15619 79.1115 2.18507C77.1655 1.19527 74.8264 1.08323 72.9365 1.08323H60.5866C55.104 1.06455 51.6423 3.19356 49.5466 5.99487C47.4321 8.79619 46.5901 12.2138 46.01 14.8844L35.8868 62.6935L36.5418 62.8055L37.178 62.9362L47.3012 15.1458C47.8812 12.5126 48.7045 9.28178 50.6131 6.77927C52.5218 4.27676 55.4595 2.40921 60.6053 2.39053H72.9552C74.789 2.39053 76.9409 2.52128 78.5314 3.343C80.1032 4.18339 81.2259 5.52797 81.2446 8.42266C81.2446 10.6077 81.0388 12.4566 80.5149 14.8657L70.3917 62.6748C69.1942 68.3148 67.0984 71.4522 64.7594 73.2264C62.4017 75.0006 59.6885 75.4301 57.1062 75.4301H44.7563C42.9225 75.4301 40.7519 75.2807 39.124 74.459C37.5147 73.6373 36.3921 72.2927 36.3546 69.398C36.3546 67.2316 36.654 65.3827 37.1966 62.9549L36.5418 62.8055Z" fill="#1B1918"/>
<path fill-rule="evenodd" clip-rule="evenodd" d="M1.40137 99.9323H2.65507V94.4791C2.65507 92.7049 3.44099 90.5759 5.68643 90.5759C7.76345 90.5759 8.10026 92.0886 8.10026 93.8441V99.9136H9.35396V93.8254C9.35396 91.3042 8.62421 89.4927 5.89226 89.4927C4.3953 89.4927 3.25385 90.3331 2.7112 91.4537H2.6738V84.9546H1.4201V99.9323H1.40137Z" fill="#1B1918"/>
<path fill-rule="evenodd" clip-rule="evenodd" d="M19.3646 98.3257C18.7659 98.6992 17.4186 99.0727 16.5017 99.0727C14.3124 99.0727 13.1522 97.3359 13.1522 95.1882H20.1318V94.5533C20.1318 91.808 18.953 89.4922 16.0713 89.4922C13.4891 89.4922 11.7676 91.7146 11.7676 94.8334C11.7676 97.8775 13.04 100.175 16.4081 100.175C17.3437 100.175 18.4852 99.9691 19.3646 99.6143V98.3257ZM13.1522 94.105C13.1522 92.4242 14.2937 90.5567 16.1462 90.5567C18.0174 90.5567 18.7471 92.3309 18.7471 94.105H13.1522Z" fill="#1B1918"/>
<path fill-rule="evenodd" clip-rule="evenodd" d="M28.4025 99.9317H29.6375C29.5252 99.2221 29.5252 98.6058 29.5252 97.7841V93.2833C29.5252 90.6314 28.4774 89.4922 25.9513 89.4922C25.0531 89.4922 23.7245 89.8097 22.9573 90.2019V91.4158C23.8929 90.8181 24.8847 90.5754 25.9513 90.5754C27.654 90.5754 28.2715 91.4531 28.2715 93.1899V93.6942H28.0283C25.3899 93.6942 21.7598 93.8623 21.7598 97.2799C21.7598 98.195 22.2088 100.137 25.1092 100.137C26.3629 100.137 27.785 99.4835 28.3464 98.251H28.3838V99.9317H28.4025ZM28.2715 95.4123C28.2715 96.5142 28.2154 99.0727 25.2589 99.0727C24.0988 99.0727 23.1445 98.5685 23.1445 97.2425C23.1445 95.0015 25.7454 94.796 27.916 94.796H28.2715V95.4123Z" fill="#1B1918"/>
<path d="M33.7908 84.9546H32.5371V99.9323H33.7908V84.9546Z" fill="#1B1918"/>
<path fill-rule="evenodd" clip-rule="evenodd" d="M41.3712 89.7355H39.051V86.8408L37.7786 87.2703V89.7355H35.7764V90.8187H37.7786V96.7575C37.7786 98.625 37.8534 100.156 40.0988 100.156C40.7163 100.156 41.3338 99.9883 41.6332 99.8762L41.5584 98.8304C41.2028 98.9611 40.8847 99.0732 40.3982 99.0732C39.3878 99.0732 39.051 98.3075 39.051 97.4111V90.8187H41.3712V89.7355Z" fill="#1B1918"/>
<path fill-rule="evenodd" clip-rule="evenodd" d="M43.6328 99.9323H44.8865V94.4791C44.8865 92.7049 45.6724 90.5759 47.9179 90.5759C49.9762 90.5759 50.3317 92.0886 50.3317 93.8441V99.9136H51.6041V93.8254C51.6041 91.3042 50.8557 89.4927 48.1237 89.4927C46.6268 89.4927 45.4853 90.3331 44.9427 91.4537H44.9053V84.9546H43.6515V99.9323H43.6328Z" fill="#1B1918"/>
<path fill-rule="evenodd" clip-rule="evenodd" d="M64.8911 92.4063C66.5752 91.5659 68.2592 90.8003 68.2592 88.6152C68.2592 86.6543 66.6313 85.7393 64.9846 85.7393C63.1508 85.7393 61.2236 86.7664 61.2236 88.7647C61.2236 90.1653 62.1779 91.2111 63.0386 92.2009C61.1674 92.9106 59.7266 94.1058 59.7266 96.2348C59.7266 98.9241 61.9533 100.138 64.311 100.138C65.939 100.138 67.3985 99.5778 68.5399 98.2891L70.0181 99.8392H71.7771L69.4007 97.262C70.4298 95.8613 70.9537 94.0311 70.9537 92.2383H69.7562C69.7562 93.7323 69.4381 95.2077 68.5586 96.4589L64.8911 92.4063ZM67.7914 97.4674C66.9868 98.4385 65.6208 99.0735 64.3484 99.0735C62.6643 99.0735 61.1112 98.1023 61.1112 96.1975C61.1112 94.6661 62.4211 93.4896 63.731 92.9853L67.7914 97.4674ZM62.5895 88.858C62.5895 87.4947 63.7122 86.8224 64.8911 86.8224C66.0699 86.8224 66.8745 87.5134 66.8745 88.8394C66.8745 90.4828 65.3963 91.1178 64.18 91.6967C63.4128 90.8563 62.5895 89.9599 62.5895 88.858Z" fill="#1B1918"/>
<path fill-rule="evenodd" clip-rule="evenodd" d="M78.3057 99.6894C79.2038 100.044 80.1769 100.175 81.1686 100.175C82.703 100.175 84.7239 99.4279 84.7239 97.2802C84.7239 93.956 79.7091 94.1801 79.7091 92.2939C79.7091 90.9866 80.6073 90.5944 81.9171 90.5944C82.6095 90.5944 83.5076 90.7812 84.1625 91.08L84.2935 89.9781C83.3953 89.642 82.3101 89.5112 81.7861 89.5112C80.102 89.5112 78.4554 90.2769 78.4554 92.2939C78.4554 95.2446 83.3579 94.8711 83.3579 97.2802C83.3579 98.4381 82.2914 99.0917 81.0938 99.0917C80.1208 99.0917 79.2039 98.8303 78.4367 98.4568L78.3057 99.6894Z" fill="#1B1918"/>
<path fill-rule="evenodd" clip-rule="evenodd" d="M86.8779 104.116H88.1316V98.1774H88.1691C88.7866 99.5033 89.7408 100.157 91.3501 100.157C94.1569 100.157 95.5603 97.8412 95.5603 94.8158C95.5603 91.7156 94.3627 89.4746 91.3501 89.4746C89.1982 89.4746 88.4123 91.006 88.0942 91.5849H88.0568L88.1316 89.7174H86.8779V104.116ZM94.1756 94.8344C94.1756 96.814 93.5581 99.0737 91.1443 99.0737C88.9175 99.0737 88.1316 96.6833 88.1316 94.8344C88.1316 92.9856 88.9175 90.5765 91.1443 90.5765C93.5581 90.5765 94.1756 92.8549 94.1756 94.8344Z" fill="#1B1918"/>
<path fill-rule="evenodd" clip-rule="evenodd" d="M97.3359 94.8337C97.3359 97.6164 98.7955 100.175 102.089 100.175C105.401 100.175 106.842 97.6164 106.842 94.8337C106.842 92.0511 105.382 89.5112 102.089 89.5112C98.7955 89.5112 97.3359 92.0511 97.3359 94.8337ZM98.7206 94.8337C98.7206 92.4806 99.8995 90.5757 102.089 90.5757C104.297 90.5757 105.457 92.4806 105.457 94.8337C105.457 97.1868 104.278 99.073 102.089 99.073C99.8995 99.073 98.7206 97.1868 98.7206 94.8337Z" fill="#1B1918"/>
<path fill-rule="evenodd" clip-rule="evenodd" d="M109.237 99.9317H110.491V94.8894C110.491 93.0592 111.033 90.8182 113.035 90.8182C113.354 90.8182 113.69 90.8555 113.952 90.9302V89.6042C113.728 89.5482 113.372 89.4922 113.073 89.4922C111.782 89.4922 110.921 90.5567 110.453 91.6959H110.416V89.735H109.162C109.237 90.4633 109.237 90.8929 109.237 92.0134V99.9317Z" fill="#1B1918"/>
<path fill-rule="evenodd" clip-rule="evenodd" d="M120.296 89.7355H117.976V86.8408L116.722 87.2703V89.7355H114.72V90.8187H116.722V96.7575C116.722 98.625 116.815 100.156 119.042 100.156C119.66 100.156 120.277 99.9883 120.577 99.8762L120.502 98.8304C120.146 98.9611 119.828 99.0732 119.342 99.0732C118.312 99.0732 117.976 98.3075 117.976 97.4111V90.8187H120.296V89.7355Z" fill="#1B1918"/>
<path fill-rule="evenodd" clip-rule="evenodd" d="M127.221 99.6894C128.119 100.044 129.092 100.175 130.065 100.175C131.599 100.175 133.639 99.4279 133.639 97.2802C133.639 93.956 128.624 94.1801 128.624 92.2939C128.624 90.9866 129.522 90.5944 130.813 90.5944C131.524 90.5944 132.423 90.7812 133.078 91.08L133.19 89.9781C132.292 89.642 131.225 89.5112 130.682 89.5112C128.998 89.5112 127.352 90.2769 127.352 92.2939C127.352 95.2446 132.254 94.8711 132.254 97.2802C132.254 98.4381 131.206 99.0917 129.99 99.0917C129.017 99.0917 128.081 98.8303 127.333 98.4568L127.221 99.6894Z" fill="#1B1918"/>
<path fill-rule="evenodd" clip-rule="evenodd" d="M143.856 89.7354H142.584V95.3567C142.584 97.0561 141.854 99.0731 139.571 99.0731C137.812 99.0731 137.138 97.8405 137.138 95.9169V89.7354H135.885V96.2344C135.885 98.4568 136.839 100.156 139.365 100.156C141.498 100.156 142.247 99.017 142.658 98.0833H142.696V99.9135H143.912C143.837 99.0918 143.837 98.2887 143.837 97.5043V89.7354H143.856Z" fill="#1B1918"/>
<path fill-rule="evenodd" clip-rule="evenodd" d="M146.887 104.116H148.14V98.1774H148.178C148.795 99.5033 149.75 100.157 151.359 100.157C154.166 100.157 155.55 97.8412 155.55 94.8158C155.55 91.7156 154.353 89.4746 151.359 89.4746C149.188 89.4746 148.421 91.006 148.103 91.5849H148.066L148.14 89.7174H146.887V104.116ZM154.184 94.8344C154.184 96.814 153.567 99.0737 151.172 99.0737C148.926 99.0737 148.14 96.6833 148.14 94.8344C148.14 92.9856 148.926 90.5765 151.172 90.5765C153.567 90.5765 154.184 92.8549 154.184 94.8344Z" fill="#1B1918"/>
<path fill-rule="evenodd" clip-rule="evenodd" d="M158 104.116H159.272V98.1774H159.31C159.927 99.5033 160.882 100.157 162.491 100.157C165.298 100.157 166.682 97.8412 166.682 94.8158C166.682 91.7156 165.485 89.4746 162.491 89.4746C160.339 89.4746 159.553 91.006 159.235 91.5849H159.198L159.291 89.7174H158.019V104.116H158ZM165.298 94.8344C165.298 96.814 164.68 99.0737 162.285 99.0737C160.04 99.0737 159.272 96.6833 159.272 94.8344C159.272 92.9856 160.058 90.5765 162.285 90.5765C164.68 90.5765 165.298 92.8549 165.298 94.8344Z" fill="#1B1918"/>
<path fill-rule="evenodd" clip-rule="evenodd" d="M168.462 94.8337C168.462 97.6164 169.921 100.175 173.233 100.175C176.545 100.175 177.986 97.6164 177.986 94.8337C177.986 92.0511 176.545 89.5112 173.233 89.5112C169.94 89.5112 168.462 92.0511 168.462 94.8337ZM169.865 94.8337C169.865 92.4806 171.044 90.5757 173.233 90.5757C175.423 90.5757 176.602 92.4806 176.602 94.8337C176.602 97.1868 175.423 99.073 173.233 99.073C171.025 99.073 169.865 97.1868 169.865 94.8337Z" fill="#1B1918"/>
<path fill-rule="evenodd" clip-rule="evenodd" d="M180.38 99.9317H181.633V94.8894C181.633 93.0592 182.176 90.8182 184.178 90.8182C184.496 90.8182 184.833 90.8555 185.095 90.9302V89.6042C184.889 89.5482 184.515 89.4922 184.215 89.4922C182.924 89.4922 182.064 90.5567 181.615 91.6959H181.577V89.735H180.305C180.398 90.4633 180.398 90.8929 180.398 92.0134V99.9317H180.38Z" fill="#1B1918"/>
<path fill-rule="evenodd" clip-rule="evenodd" d="M191.44 89.7355H189.119V86.8408L187.847 87.2703V89.7355H185.845V90.8187H187.847V96.7575C187.847 98.625 187.94 100.156 190.167 100.156C190.803 100.156 191.402 99.9883 191.702 99.8762L191.627 98.8304C191.271 98.9611 190.953 99.0732 190.467 99.0732C189.456 99.0732 189.101 98.3075 189.101 97.4111V90.8187H191.421V89.7355H191.44Z" fill="#1B1918"/>
<path fill-rule="evenodd" clip-rule="evenodd" d="M219.057 8.18005C219.057 12.2886 215.708 15.6315 211.591 15.6315C207.474 15.6315 204.144 12.2886 204.144 8.18005C204.144 4.07146 207.493 0.728516 211.591 0.728516C215.708 0.728516 219.057 4.07146 219.057 8.18005Z" fill="#1B1918"/>
<path fill-rule="evenodd" clip-rule="evenodd" d="M219.06 8.17984H218.386C218.386 11.9336 215.336 14.959 211.594 14.959C207.851 14.959 204.801 11.9149 204.801 8.17984C204.801 4.44475 207.851 1.41932 211.594 1.40065C215.336 1.40065 218.367 4.44475 218.386 8.17984H219.715V7.93705C219.584 3.567 215.991 0.074707 211.594 0.074707C207.103 0.074707 203.473 3.71641 203.473 8.17984C203.473 12.6619 207.121 16.285 211.594 16.285C215.991 16.285 219.584 12.7926 219.715 8.42257V8.16114H219.06V8.17984Z" fill="#1B1918"/>
<path fill-rule="evenodd" clip-rule="evenodd" d="M218.123 8.18015H217.468C217.468 11.411 214.849 14.0255 211.611 14.0442C208.374 14.0442 205.754 11.4297 205.736 8.18015C205.736 4.9493 208.355 2.33473 211.611 2.33473C214.849 2.33473 217.468 4.9493 217.468 8.18015H218.778C218.778 4.22096 215.56 1.00879 211.593 1.00879C207.626 1.00879 204.407 4.20228 204.407 8.18015C204.407 12.1393 207.626 15.3515 211.593 15.3515C215.56 15.3515 218.778 12.1393 218.778 8.18015H218.123Z" fill="#F07F14"/>
<path fill-rule="evenodd" clip-rule="evenodd" d="M208.955 4.46348C209.46 4.35143 210.228 4.29541 211.088 4.29541C212.136 4.29541 212.885 4.46352 213.39 4.85571C213.82 5.19186 214.063 5.67738 214.063 6.33102C214.063 7.22745 213.427 7.84378 212.81 8.06788V8.10521C213.315 8.31064 213.577 8.77751 213.764 9.43115C213.989 10.2342 214.194 11.168 214.325 11.4294H212.679C212.585 11.224 212.398 10.6451 212.192 9.78599C211.986 8.88957 211.687 8.66549 211.013 8.64682H210.546V11.4294H208.955V4.46348ZM210.546 7.50759H211.182C211.986 7.50759 212.454 7.11542 212.454 6.48046C212.454 5.8455 212.005 5.5093 211.275 5.5093C210.882 5.5093 210.658 5.52797 210.546 5.56533V7.50759Z" fill="#F07F14"/>
</svg>
