<svg width="45" height="45" viewBox="0 0 45 45" fill="none" xmlns="http://www.w3.org/2000/svg">
<rect width="45" height="45" rx="22.5" fill="white" fill-opacity="0.5"/>
<path d="M13.2935 12.9011H28.1395M13.2935 12.9011C11.9015 14.2871 15.9134 19.1048 15.9134 24.4506C15.9134 29.7963 12.8297 35.076 13.2935 36C14.6854 36 28.1395 36 28.1395 36M13.2935 12.9011C13.2935 12.9011 16.077 9.6673 17.005 9.20532C17.933 8.74335 31.8511 9.20532 31.8511 9.20532M28.1395 36C28.1395 36 25.5196 30.6873 25.5196 24.4506C25.5196 18.2139 28.6036 15.211 28.1395 12.9011M28.1395 36C29.5315 35.538 31.3872 33.2281 31.8511 32.3042C31.3872 30.9183 29.0674 27.2224 29.0674 21.6787C29.0674 16.135 32.779 9.6673 31.8511 9.20532M28.1395 12.9011C28.6036 12.4391 31.8511 9.20532 31.8511 9.20532" stroke="#FF5001" stroke-linecap="round"/>
</svg>
