<svg width="45" height="45" viewBox="0 0 45 45" fill="none" xmlns="http://www.w3.org/2000/svg">
<rect width="45" height="45" rx="22.5" fill="white" fill-opacity="0.5"/>
<path d="M23.5005 16.9999C21.6671 18.9999 17.5004 23.4999 15.5004 25.4999C13.0004 27.9999 10.0004 28.9999 10.5004 32.4999C10.6142 33.2959 10.9865 33.9626 11.5822 34.5M23.5005 16.9999C26.0005 17.9999 31.0004 22.4999 35.0004 21.4999C39.0005 20.4999 39.5005 17.9999 39.0005 17.4999M23.5005 16.9999C26.0005 17.4999 27.5005 18.4999 30.5005 16.9999C33.5005 15.4999 38.1854 15.4999 39.0005 17.4999M39.0005 17.4999C39.3375 18.1666 40.0093 19.6999 40.0004 20.4999C40.0004 20.8262 40.0004 21.161 39.9893 21.4999M11.5822 34.5C13.6057 36.3254 18.2062 36.6587 24.0004 35.4999C31.5004 33.9999 30.0004 28.9999 35.0004 27.4999C39.3478 26.1957 39.9153 23.7574 39.9893 21.4999M11.5822 34.5C16.5005 35.4999 22.0005 35 25.0005 33.5C28.0005 32 30.5005 28 33.0005 26.5C35.1867 25.1883 39.4782 23.4998 39.9893 21.4999" stroke="#FF5001" stroke-linecap="round"/>
<path d="M16.9995 13.5C15.9995 15 9.49954 19.5001 7.99954 20.5001C6.85136 21.2655 3.65252 23.7888 3.56062 26.5M16.9995 13.5C17.1402 13.6407 16.7724 13.3111 16.9995 13.5ZM16.9995 13.5C17.9995 15.5 21.7108 17.5001 22.9998 17.5001M16.9995 13.5C21.4996 14.5 27.4998 12.5001 29.9998 13.5001C32.4998 14.5001 31.4998 16.5001 29.9998 17.0001M10.4998 30.5001C9.49973 31.1668 5.78537 30.5001 4.49965 29.0001C3.796 28.1792 3.53245 27.3308 3.56062 26.5M3.56062 26.5C4.49965 28 8.99951 30.0002 11.4995 29.0001" stroke="#FF5001" stroke-linecap="round"/>
</svg>
