<svg width="45" height="45" viewBox="0 0 45 45" fill="none" xmlns="http://www.w3.org/2000/svg">
<rect width="45" height="45" rx="22.5" fill="white" fill-opacity="0.5"/>
<path d="M9.51465 11.7482L10.2863 11.314L17.3767 23.5655C17.4249 23.6618 17.473 23.7103 17.5696 23.7584L19.7884 24.9642L20.7048 26.5559C19.7884 28.1476 19.2095 29.1603 19.1131 29.3051L19.0167 29.2569C18.8238 29.1122 18.5344 29.1606 18.3415 29.3533C18.1967 29.5463 18.2451 29.8356 18.4378 30.0286L19.1131 30.4627L16.7014 34.6588L14.7238 35.2859C14.5308 35.3341 14.4344 35.4789 14.3862 35.6718C14.338 35.8648 14.4344 36.0094 14.5792 36.1059L16.8944 37.794C17.2319 38.0351 17.666 37.794 17.6178 37.3599L17.4731 35.1411L19.8848 30.9931L20.4637 31.4272C20.6567 31.572 20.946 31.5236 21.139 31.3309C21.2838 31.1379 21.2354 30.8486 21.0426 30.6556L22.0554 28.9191L23.1648 30.8484C22.9718 30.9931 22.9236 31.2825 23.0684 31.5236C23.4544 32.1026 24.0812 31.3307 24.3226 31.2343L26.7343 35.3823L26.445 37.4563C26.3968 37.8422 26.8309 38.1315 27.1684 37.9386L29.5802 36.4917C29.725 36.3953 29.8213 36.2505 29.8213 36.0576C29.8213 35.8646 29.6766 35.72 29.532 35.6716L27.5544 34.9L25.1427 30.7039L25.8179 30.2697C26.0109 30.125 26.0591 29.8356 25.9143 29.5945C25.7695 29.4015 25.4802 29.3533 25.239 29.4981L25.1427 29.5463V29.4981L23.5028 26.6041L24.6122 24.916L26.8309 23.6619C26.9273 23.6137 26.9757 23.5655 27.0239 23.4689C34.7407 9.19208 29.0492 19.7069 33.9204 11.0731L34.5957 11.459C34.8369 11.6038 35.1262 11.5072 35.2228 11.2661C35.3676 11.0249 35.271 10.7356 35.0298 10.639C34.017 10.0603 30.7852 8.17929 29.1934 7.2145C28.9523 7.06972 28.6629 7.16631 28.5664 7.40746C28.4216 7.64861 28.5182 7.93795 28.7593 8.03453L29.6275 8.51683C28.8559 9.81917 32.1841 3.93476 22.5371 20.9127C22.489 20.9608 22.489 21.0574 22.489 21.1538L22.4408 23.5656L22.1033 24.1445L21.8139 23.6622V21.347C21.8139 21.2506 21.8139 21.2022 21.7657 21.1059L14.7237 8.70946L15.5437 8.22716C15.7846 8.13056 15.8331 7.84122 15.7365 7.60009C15.5917 7.35894 15.3023 7.31075 15.1094 7.40712C13.0354 8.61288 11.2507 9.62588 9.08031 10.928C8.83916 11.0728 8.79098 11.3622 8.88735 11.5551C8.98416 11.8447 9.2735 11.8929 9.51464 11.7481L9.51465 11.7482ZM15.978 35.9611L16.6533 35.72L16.7015 36.4916L15.978 35.9611ZM27.6019 35.9611L28.2772 36.2023L27.5055 36.6364L27.6019 35.9611ZM20.3188 30.1731L19.8847 29.8355C20.0295 29.7392 19.8847 29.8355 21.2352 27.5204L21.5246 28.0027L20.3188 30.1731ZM33.1006 10.5908L29.8209 16.234L27.1198 14.6424L30.3514 8.95094L33.1006 10.5908ZM23.3094 23.9513C23.3576 23.9031 23.3576 23.8065 23.3576 23.7101L23.4058 21.2984L26.6374 15.5103L29.3385 17.102L26.2033 22.8901L23.9846 24.1442C23.9364 24.1924 23.8398 24.2406 23.8398 24.289L22.9234 25.6877L22.5859 25.1088L23.3094 23.9513ZM20.9459 23.9995L22.4894 26.7005C22.4894 26.7487 22.5376 26.7969 22.5858 26.8453C24.4186 30.0287 24.3222 29.9323 24.4186 30.0287L23.9845 30.3662L20.56 24.3855C20.5118 24.2891 20.4636 24.2407 20.367 24.1925L18.1482 22.9867L14.8203 17.2953L17.5696 15.6554L20.8493 21.4918V23.807C20.8495 23.8552 20.8977 23.9515 20.9459 23.9997L20.9459 23.9995ZM17.0873 14.8353L14.338 16.4752L11.1064 10.832L13.9039 9.19206L17.0873 14.8353Z" fill="#FF5001"/>
</svg>
