<svg width="45" height="45" viewBox="0 0 45 45" fill="none" xmlns="http://www.w3.org/2000/svg">
<rect width="45" height="45" rx="22.5" fill="white" fill-opacity="0.5"/>
<path d="M32.3832 31.9805H12.5996C12.2699 31.9805 12 31.7106 12 31.3809L12.0002 13.9951C12.0002 13.6654 12.2701 13.3955 12.5998 13.3955H32.3834C32.7131 13.3955 32.983 13.6654 32.983 13.9951V31.3809C32.9828 31.7106 32.7129 31.9805 32.3832 31.9805ZM13.1992 30.7814H31.7841V14.5947H13.1992V30.7814Z" fill="#FF5001"/>
<path d="M29.9857 14.5946H14.9982C14.8064 14.5946 14.6265 14.5047 14.5126 14.3428C14.3987 14.1869 14.3687 13.9832 14.4286 13.8033L16.2271 8.40756C16.3111 8.16167 16.5387 8 16.7965 8H28.187C28.4448 8 28.6726 8.16782 28.7564 8.40756L30.543 13.7671C30.573 13.839 30.585 13.9109 30.585 13.995C30.5852 14.3244 30.3154 14.5943 29.9857 14.5943L29.9857 14.5946ZM15.8312 13.3955H29.1585L27.7616 9.19897H17.2282L15.8312 13.3955Z" fill="#FF5001"/>
<path d="M28.1871 37.3764H16.7966C16.5388 37.3764 16.3109 37.2086 16.2271 36.9688L14.4287 31.5731C14.3686 31.3932 14.3987 31.1895 14.5127 31.0336C14.6266 30.8776 14.8065 30.7817 14.9983 30.7817H29.9858C30.1776 30.7817 30.3575 30.8717 30.4714 31.0336C30.5854 31.1895 30.6153 31.3932 30.5554 31.5731L28.757 36.9688C28.6727 37.2086 28.4448 37.3764 28.1871 37.3764ZM17.2283 36.1775H27.7559L29.1528 31.9809H15.8313L17.2283 36.1775Z" fill="#FF5001"/>
<path d="M18.4151 23.5873C18.1333 23.5873 17.8936 23.3896 17.8276 23.1138C17.7797 22.9039 17.2162 22.3763 16.8386 22.0226C15.9753 21.2132 14.998 20.296 14.998 19.2348C14.998 17.9998 15.9992 16.9927 17.2342 16.9927C17.6598 16.9927 18.0615 17.1066 18.4154 17.3283C18.7631 17.1064 19.1706 16.9927 19.5965 16.9927C20.8315 16.9927 21.8327 17.9998 21.8327 19.2348C21.8327 20.296 20.8554 21.2132 19.9922 22.0226C19.6145 22.3763 19.051 22.9039 19.0031 23.1138C18.9426 23.3894 18.697 23.5812 18.4152 23.5873H18.4151ZM17.234 18.1916C16.6584 18.1916 16.1969 18.6592 16.1969 19.2348C16.1969 19.7743 17.0421 20.5657 17.6598 21.1472C17.9356 21.405 18.1993 21.6509 18.415 21.8907C18.6308 21.6509 18.8947 21.405 19.1703 21.1472C19.7877 20.5657 20.6332 19.7743 20.6332 19.2348C20.6332 18.6592 20.1656 18.1916 19.5961 18.1916C19.3144 18.1916 19.0445 18.3055 18.8468 18.5094C18.7328 18.6293 18.5769 18.6953 18.415 18.6953C18.2531 18.6953 18.0972 18.6293 17.9833 18.5094C17.7855 18.3055 17.5216 18.1916 17.2339 18.1916H17.234Z" fill="#FF5001"/>
<path d="M21.718 28.3833C21.676 28.3833 21.634 28.3773 21.5922 28.3712C21.3344 28.3173 21.1486 28.1013 21.1246 27.8376L20.8849 25.2238L19.6679 26.4407C19.554 26.5547 19.4042 26.6145 19.2423 26.6145L15.3574 26.6147C15.0277 26.6147 14.7578 26.3448 14.7578 26.0151C14.7578 25.6854 15.0277 25.4155 15.3574 25.4155H18.9964L20.9387 23.4732C21.1006 23.3113 21.3463 23.2513 21.5682 23.3353C21.784 23.4132 21.9399 23.6111 21.9639 23.8449L22.1438 25.8352L24.0263 22.5439C24.1343 22.3581 24.332 22.2441 24.5419 22.2441H24.5478C24.7636 22.2441 24.9554 22.3581 25.0634 22.538L26.7299 25.3915L29.3858 25.3917C29.7155 25.3917 29.9853 25.6616 29.9853 25.9913C29.9853 26.321 29.7155 26.5909 29.3858 26.5909H26.3881C26.1723 26.5909 25.9805 26.477 25.8726 26.2971L24.5535 24.0428L22.2397 28.0834C22.1317 28.2693 21.9278 28.3832 21.718 28.3832L21.718 28.3833Z" fill="#FF5001"/>
<path d="M33.4628 21.1896H32.3838C32.0541 21.1896 31.7842 20.9198 31.7842 20.5901V15.7939C31.7842 15.4642 32.054 15.1943 32.3838 15.1943H33.361C34.4761 15.1943 35.3814 16.0996 35.3814 17.2148L35.3812 19.271C35.3812 20.3263 34.5179 21.1896 33.4629 21.1896L33.4628 21.1896ZM32.9833 19.9905H33.463C33.8587 19.9905 34.1825 19.6668 34.1825 19.2711V17.2148C34.1825 16.7652 33.8167 16.3936 33.3612 16.3936H32.9833L32.9833 19.9905Z" fill="#FF5001"/>
<path d="M33.4628 28.3835H32.3838C32.0541 28.3835 31.7842 28.1136 31.7842 27.7839V22.9878C31.7842 22.6581 32.054 22.3882 32.3838 22.3882H33.361C34.4761 22.3882 35.3814 23.2935 35.3814 24.4086L35.3812 26.4651C35.3812 27.5202 34.5179 28.3834 33.4629 28.3834L33.4628 28.3835ZM32.9833 27.1846H33.463C33.8587 27.1846 34.1825 26.8608 34.1825 26.4651V24.4089C34.1825 23.9593 33.8167 23.5876 33.3612 23.5876H32.9833L32.9833 27.1846Z" fill="#FF5001"/>
</svg>
