<svg width="45" height="45" viewBox="0 0 45 45" fill="none" xmlns="http://www.w3.org/2000/svg">
<rect width="45" height="45" rx="22.5" fill="white" fill-opacity="0.5"/>
<path fill-rule="evenodd" clip-rule="evenodd" d="M12.0893 7.00723L12.088 7.00744C12.0258 7.02019 11.9692 7.04785 11.9223 7.08674C11.8752 7.12563 11.8372 7.17618 11.8132 7.23474L11.8128 7.23603C11.8028 7.26066 11.7953 7.28659 11.7907 7.31338L7.47289 29.9646L7.47246 29.9665L7.47203 29.968L7.47116 29.9728L7.47073 29.9749L7.4703 29.9773L7.47008 29.9797L7.46878 29.9868L7.46857 29.989L7.46814 29.9914L7.4677 29.9961L7.46727 29.9985L7.46662 30.0056V30.0063C7.46511 30.0205 7.46468 30.0346 7.4649 30.0486V33.0874C7.4649 34.1364 8.31656 34.988 9.36574 34.988H35.3582C36.4074 34.988 37.2591 34.1364 37.2591 33.0874V30.0486C37.2593 30.0346 37.2588 30.0205 37.2573 30.0063C37.256 29.9922 37.2539 29.9782 37.2511 29.9646L32.9332 7.31338C32.9287 7.28659 32.9211 7.26066 32.9112 7.23603L32.9107 7.23474C32.8868 7.17618 32.8487 7.12563 32.8016 7.08674C32.7545 7.04785 32.6981 7.02019 32.6359 7.00744L32.6346 7.00723C32.6085 7.00204 32.5817 6.99945 32.5545 7.0001H12.1699C12.1427 6.99945 12.1159 7.00204 12.0897 7.00723L12.0893 7.00723ZM36.5027 30.42H8.22093V33.0875C8.22093 33.7192 8.73385 34.2319 9.36558 34.2319H35.3581C35.9898 34.2319 36.5027 33.7192 36.5027 33.0875V30.42ZM12.4759 7.75668L8.2998 29.6639H36.4239L32.2478 7.75668H12.4759ZM31.7316 25.8105L31.3401 25.419C31.1926 25.2714 30.9532 25.2714 30.8056 25.419C30.6578 25.5666 30.6578 25.8059 30.8056 25.9535L31.1971 26.3452L30.8056 26.7365C30.6578 26.8841 30.6578 27.1237 30.8056 27.2712C30.9532 27.4188 31.1926 27.4188 31.3401 27.2712L31.7316 26.8797L32.1231 27.2712C32.2707 27.4188 32.5103 27.4188 32.6579 27.2712C32.8054 27.1237 32.8054 26.8841 32.6579 26.7365L32.2664 26.3452L32.6579 25.9535C32.8054 25.8059 32.8054 25.5666 32.6579 25.419C32.5103 25.2714 32.2707 25.2714 32.1231 25.419L31.7316 25.8105ZM12.4676 25.8105L12.0759 25.419C11.9284 25.2714 11.689 25.2714 11.5414 25.419C11.3939 25.5666 11.3939 25.8059 11.5414 25.9535L11.9329 26.3452L11.5414 26.7365C11.3939 26.8841 11.3939 27.1237 11.5414 27.2712C11.689 27.4188 11.9284 27.4188 12.0759 27.2712L12.4676 26.8797L12.8589 27.2712C13.0065 27.4188 13.2461 27.4188 13.3937 27.2712C13.5412 27.1237 13.5412 26.8841 13.3937 26.7365L13.0022 26.3452L13.3937 25.9535C13.5412 25.8059 13.5412 25.5666 13.3937 25.419C13.2461 25.2714 13.0065 25.2714 12.8589 25.419L12.4676 25.8105ZM22.0994 25.8105L21.7079 25.419C21.5603 25.2714 21.3207 25.2714 21.1731 25.419C21.0256 25.5666 21.0256 25.8059 21.1731 25.9535L21.5646 26.3452L21.1731 26.7365C21.0256 26.8841 21.0256 27.1237 21.1731 27.2712C21.3207 27.4188 21.5603 27.4188 21.7079 27.2712L22.0994 26.8797L22.4909 27.2712C22.6384 27.4188 22.878 27.4188 23.0256 27.2712C23.1732 27.1237 23.1732 26.8841 23.0256 26.7365L22.6341 26.3452L23.0256 25.9535C23.1732 25.8059 23.1732 25.5666 23.0256 25.419C22.878 25.2714 22.6384 25.2714 22.4909 25.419L22.0994 25.8105ZM30.3151 18.0908L29.9237 17.6993C29.7761 17.5518 29.5365 17.5518 29.3889 17.6993C29.2416 17.8469 29.2416 18.0865 29.3889 18.2341L29.7804 18.6256L29.3889 19.0171C29.2416 19.1646 29.2416 19.4042 29.3889 19.5518C29.5365 19.6992 29.7761 19.6992 29.9237 19.5518L30.3151 19.1603L30.7066 19.5518C30.8542 19.6992 31.0938 19.6992 31.2414 19.5518C31.3889 19.4042 31.3889 19.1646 31.2414 19.0171L30.8499 18.6256L31.2414 18.2341C31.3889 18.0865 31.3889 17.8469 31.2414 17.6993C31.0938 17.5518 30.8542 17.5518 30.7066 17.6993L30.3151 18.0908ZM22.0994 18.0908L21.7079 17.6993C21.5603 17.5518 21.3207 17.5518 21.1731 17.6993C21.0256 17.8469 21.0256 18.0865 21.1731 18.2341L21.5646 18.6256L21.1731 19.0171C21.0256 19.1646 21.0256 19.4042 21.1731 19.5518C21.3207 19.6992 21.5603 19.6992 21.7079 19.5518L22.0994 19.1603L22.4909 19.5518C22.6384 19.6992 22.878 19.6992 23.0256 19.5518C23.1732 19.4042 23.1732 19.1646 23.0256 19.0171L22.6341 18.6256L23.0256 18.2341C23.1732 18.0865 23.1732 17.8469 23.0256 17.6993C22.878 17.5518 22.6384 17.5518 22.4909 17.6993L22.0994 18.0908ZM13.8836 18.0908L13.4923 17.6993C13.3447 17.5518 13.1051 17.5518 12.9576 17.6993C12.81 17.8469 12.81 18.0865 12.9576 18.2341L13.3491 18.6256L12.9576 19.0171C12.81 19.1646 12.81 19.4042 12.9576 19.5518C13.1051 19.6992 13.3447 19.6992 13.4923 19.5518L13.8836 19.1603L14.2753 19.5518C14.4229 19.6992 14.6623 19.6992 14.81 19.5518C14.9574 19.4042 14.9574 19.1646 14.81 19.0171L14.4183 18.6256L14.81 18.2341C14.9574 18.0865 14.9574 17.8469 14.81 17.6993C14.6623 17.5518 14.4229 17.5518 14.2753 17.6993L13.8836 18.0908ZM29.0718 10.9055L28.6805 11.297C28.5327 11.4445 28.5327 11.6842 28.6805 11.8317C28.8278 11.9793 29.0674 11.9793 29.215 11.8317L29.6065 11.4402L29.998 11.8317C30.1456 11.9793 30.3852 11.9793 30.5327 11.8317C30.6803 11.6842 30.6803 11.4445 30.5327 11.297L30.1412 10.9055L30.5327 10.514C30.6803 10.3664 30.6803 10.1268 30.5327 9.97926C30.3852 9.83169 30.1456 9.83169 29.998 9.97926L29.6065 10.3708L29.215 9.97926C29.0674 9.83169 28.8278 9.83169 28.6805 9.97926C28.5327 10.1268 28.5327 10.3664 28.6805 10.514L29.0718 10.9055ZM22.0994 10.3708L21.7079 9.97926C21.5603 9.83169 21.3207 9.83169 21.1731 9.97926C21.0256 10.1268 21.0256 10.3664 21.1731 10.514L21.5646 10.9055L21.1731 11.297C21.0256 11.4445 21.0256 11.6842 21.1731 11.8317C21.3207 11.9793 21.5603 11.9793 21.7079 11.8317L22.0994 11.4402L22.4909 11.8317C22.6384 11.9793 22.878 11.9793 23.0256 11.8317C23.1732 11.6842 23.1732 11.4445 23.0256 11.297L22.6341 10.9055L23.0256 10.514C23.1732 10.3664 23.1732 10.1268 23.0256 9.97926C22.878 9.83169 22.6384 9.83169 22.4909 9.97926L22.0994 10.3708ZM14.0573 10.9055L13.6658 11.297C13.5182 11.4445 13.5182 11.6842 13.6658 11.8317C13.8133 11.9793 14.0529 11.9793 14.2005 11.8317L14.592 11.4402L14.9835 11.8317C15.1311 11.9793 15.3707 11.9793 15.5182 11.8317C15.6656 11.6842 15.6656 11.4445 15.5182 11.297L15.1267 10.9055L15.5182 10.514C15.6656 10.3664 15.6656 10.1268 15.5182 9.97926C15.3707 9.83169 15.1311 9.83169 14.9835 9.97926L14.592 10.3708L14.2005 9.97926C14.0529 9.83169 13.8133 9.83169 13.6658 9.97926C13.5182 10.1268 13.5182 10.3664 13.6658 10.514L14.0573 10.9055Z" fill="#FF5001"/>
</svg>
