<svg width="45" height="45" viewBox="0 0 45 45" fill="none" xmlns="http://www.w3.org/2000/svg">
<rect width="45" height="45" rx="22.5" fill="white" fill-opacity="0.5"/>
<path d="M13.895 9.57033L13.7582 9.7071C13.3479 10.1174 13.177 10.6985 13.177 11.2456C12.6642 11.2112 12.0832 11.3822 11.6729 11.7925L11.5361 11.9292C11.1258 12.3395 10.9549 12.9206 10.9549 13.4677C10.4421 13.4334 9.86103 13.6043 9.45075 14.0146L9.31399 14.1513C8.56184 14.9035 8.56196 16.1341 9.31399 16.8861L9.48491 17.057L8.42522 18.117C8.2543 18.2879 8.22015 18.5956 8.42522 18.8007L11.9805 22.356C13.5873 23.9628 16.1854 23.9628 17.7921 22.356L19.057 21.0911L21.7578 23.7918C21.6551 24.2363 21.7578 24.749 22.0996 25.0909L31.1247 34.1159C31.6716 34.6629 32.5605 34.6629 33.1074 34.1159L33.9963 33.2271C34.5432 32.6802 34.5432 31.7913 33.9963 31.2444L24.9712 22.2193C24.6293 21.8774 24.1507 21.7407 23.6721 21.8775L20.9714 19.1767L22.2363 17.9118C23.8431 16.3051 23.8431 13.707 22.2363 12.1002L18.681 8.54492C18.5101 8.374 18.2024 8.33984 17.9973 8.54492L16.8009 9.74134L16.6298 9.57058C15.8777 8.81844 14.647 8.81844 13.8949 9.57046L13.895 9.57033ZM12.1517 18.9714C12.6644 19.0057 13.2115 18.8005 13.5875 18.4245L13.7242 18.2877C14.1345 17.8774 14.3055 17.2963 14.3055 16.7492C14.8524 16.8177 15.3994 16.6125 15.8439 16.168L15.9464 16.0656C16.3567 15.6552 16.5276 15.0742 16.5276 14.5271C17.0745 14.5956 17.6216 14.3904 18.0661 13.9459L18.2028 13.8091C18.6814 13.3305 18.8525 12.681 18.7156 12.0656L20.0146 13.3647C20.9035 14.2535 20.8694 15.6551 20.0146 16.5098L16.4592 20.0653C15.5703 20.9542 14.1688 20.9201 13.314 20.0653L12.1859 18.9372L12.1517 18.9714ZM14.4079 10.3564L14.5447 10.2197C14.955 9.80936 15.5702 9.80955 15.9803 10.2197L17.4503 11.6896C17.8606 12.1 17.8604 12.7151 17.4503 13.1253L17.3135 13.262C16.9032 13.6724 16.288 13.6722 15.8779 13.262L14.4079 11.7924C14.0318 11.4162 13.9976 10.7667 14.4079 10.3564ZM12.1858 12.5785L12.3226 12.4418C12.7329 12.0315 13.3481 12.0316 13.7582 12.4418L15.2282 13.9117C15.6385 14.3221 15.6383 14.9372 15.2282 15.3474L15.0914 15.4841C14.6811 15.8945 14.0659 15.8943 13.6558 15.4841L12.186 14.0143C11.8098 13.6382 11.8099 12.9545 12.1858 12.5785ZM9.96373 14.8006L10.1005 14.6639C10.5108 14.2536 11.126 14.2538 11.5361 14.6639L13.0061 16.1338C13.4164 16.5442 13.4162 17.1593 13.0061 17.5695L12.8693 17.7062C12.459 18.1166 11.8438 18.1164 11.4337 17.7062L9.96373 16.2363C9.58774 15.8603 9.58775 15.1766 9.96373 14.8006ZM33.3127 31.9276C33.4836 32.0985 33.4836 32.372 33.3127 32.5429L32.4238 33.4318C32.2529 33.6027 31.9794 33.6027 31.8084 33.4318L22.7834 24.4067C22.6124 24.2358 22.6124 23.9623 22.7834 23.7914L23.6722 22.9025C23.8432 22.7316 24.1167 22.7316 24.2876 22.9025L33.3127 31.9276ZM22.8516 22.3554L22.2704 22.9366L19.7064 20.3726L20.2877 19.7914L22.8516 22.3554ZM21.5526 17.2274L17.0743 21.7057C15.8435 22.9365 13.8267 22.9706 12.5959 21.7399L9.34829 18.4923L9.79274 18.0478L12.5618 20.8169C13.7925 22.0476 15.8436 22.0476 17.0743 20.8169L20.5955 17.2957C21.8263 16.0649 21.8263 14.0139 20.5955 12.7831L17.8265 10.0141L18.2709 9.56965L21.4844 12.7831C22.8175 13.9796 22.7833 15.9968 21.5527 17.2274L21.5526 17.2274Z" fill="#FF5001"/>
<path d="M24.1163 24.2358C23.9453 24.4067 23.9112 24.7144 24.1163 24.9195L31.4665 32.2697C31.6374 32.4406 31.9451 32.4748 32.1501 32.2697C32.3552 32.0646 32.3552 31.7911 32.1501 31.586L24.7661 24.202C24.5952 24.031 24.2875 24.0652 24.1166 24.2361L24.1163 24.2358Z" fill="#FF5001"/>
</svg>
