<svg width="45" height="45" viewBox="0 0 45 45" fill="none" xmlns="http://www.w3.org/2000/svg">
<rect width="45" height="45" rx="22.5" fill="white" fill-opacity="0.5"/>
<path d="M12.9308 31.0423C17.4729 31.0423 20.853 27.3979 20.4832 22.4865C20.4305 21.7998 20.4305 20.7436 20.3777 19.7929C21.8566 17.7859 23.9163 17.3105 26.029 19.3175C24.92 20.9549 22.86 22.3807 22.9128 25.4442C22.4375 30.9897 25.6064 33.8419 30.835 34H31.099C41.1867 34 43.6162 16.7819 30.6764 10.7085C26.1871 8.596 20.5887 8.596 17.05 9.91632C11.7685 11.9233 7.80761 15.3036 6.38154 18.9477C4.63888 23.4372 6.54008 31.0422 12.9305 31.0422L12.9308 31.0423ZM7.54357 26.1834C8.91686 27.5564 11.0824 28.4016 13.5117 28.4016C15.466 28.4016 17.2616 27.8208 18.5291 26.8173C16.2581 30.9368 9.60357 31.5176 7.54382 26.1834H7.54357ZM20.3776 18.2612C20.3776 17.205 20.8002 16.2543 21.4866 15.6203C22.6486 14.6169 24.1802 14.6169 25.5005 15.1977C26.3454 15.5146 26.768 15.99 26.9266 16.571C27.0321 17.1519 26.8738 17.7858 26.557 18.3667C24.3915 16.4655 22.1732 16.6238 20.3776 18.2612ZM30.835 32.9969C27.8773 32.9441 25.1837 31.8879 24.2332 29.0885C25.7647 30.8842 28.7225 31.8876 30.888 31.8876C34.3738 31.8876 36.5921 29.7751 37.5957 28.4546C36.4336 31.5708 34.1626 33.1024 30.835 32.9969ZM17.4196 10.9198C20.5886 9.70503 25.9232 9.65231 30.2537 11.7121C36.2218 14.5112 40.5524 21.4829 37.4363 27.0285C37.4363 27.0812 35.1653 30.8839 30.9402 30.8839C28.2466 30.8839 24.5494 29.3523 24.0215 26.2891C23.7575 24.6517 24.3383 22.9618 25.6589 21.5358C26.7152 20.4268 28.3525 18.2613 27.9827 16.4125C27.7714 15.4619 27.0847 14.7752 25.9758 14.3C24.4969 13.5606 22.3314 13.5078 20.8525 14.8809C19.9546 15.7258 19.4265 16.9407 19.4265 18.2612C19.4265 19.6345 19.4265 21.5357 19.532 22.592C19.7961 25.7609 16.7328 27.4511 13.5638 27.4511C11.3983 27.4511 8.65196 26.6061 7.43715 24.2821C6.64494 22.7505 6.69772 21.0603 7.33162 19.423C8.65219 15.9374 12.4021 12.7682 17.4193 10.9195L17.4196 10.9198Z" fill="#FF5001"/>
<path d="M12.6671 25.9194C14.7796 25.9194 16.1529 24.2293 16.2057 24.1765C16.3642 23.9652 16.3642 23.6484 16.1529 23.4371C15.9416 23.2786 15.6248 23.2786 15.4135 23.4899C15.4135 23.4899 14.3045 24.8632 12.6671 24.8632C11.5581 24.8632 10.4488 24.2292 9.33981 22.9617C9.18128 22.7504 8.81169 22.6977 8.60038 22.909C8.38909 23.12 8.38909 23.4371 8.54738 23.6481C9.81491 25.127 11.241 25.9194 12.6671 25.9194L12.6671 25.9194Z" fill="#FF5001"/>
<path d="M33.9512 25.6548C33.7926 25.9188 33.8984 26.2356 34.1625 26.3414C34.4265 26.4999 34.7434 26.3942 34.8491 26.1301C37.6483 21.1127 34.321 16.729 34.2682 16.729C34.1097 16.5177 33.7929 16.4649 33.5288 16.6235C33.3175 16.782 33.2647 17.0988 33.4233 17.3629C33.5816 17.5212 36.3808 21.271 33.9512 25.6548Z" fill="#FF5001"/>
</svg>
