<svg width="45" height="45" viewBox="0 0 45 45" fill="none" xmlns="http://www.w3.org/2000/svg">
<rect width="45" height="45" rx="22.5" fill="white" fill-opacity="0.5"/>
<path d="M37.7508 15.4553L35.5557 13.2602L36.2769 12.5391C36.6951 12.1208 36.6951 11.4394 36.2769 11.0212L34.6595 9.40388C34.2533 8.9976 33.5441 8.9976 33.1417 9.40388L32.4205 10.125L30.2216 7.92607C29.9028 7.60733 29.381 7.60733 29.0622 7.92607L27.5404 9.44784L26.8671 8.77451C26.5564 8.46382 26.0145 8.46382 25.7077 8.77451L24.0145 10.4677C23.8591 10.6231 23.7755 10.8304 23.7755 11.0494C23.7755 11.2683 23.8591 11.4757 24.0145 11.631L27.4645 15.081L15.0746 27.4709L11.6246 24.0209C11.3139 23.7102 10.7721 23.7102 10.4652 24.0209L8.772 25.7141C8.61666 25.8694 8.53301 26.0768 8.53301 26.2957C8.53301 26.5147 8.61666 26.722 8.772 26.8774L9.44533 27.5507L7.92356 29.0725C7.76822 29.2278 7.68457 29.4351 7.68457 29.6541C7.68457 29.8731 7.76822 30.0804 7.92356 30.2357L10.1186 32.4308L9.39746 33.1519C8.97923 33.5702 8.97923 34.2516 9.39746 34.6698L11.0148 36.2871C11.226 36.4983 11.5008 36.602 11.7756 36.602C12.0504 36.602 12.3253 36.4983 12.5365 36.2871L13.2576 35.566L15.4527 37.761C15.6119 37.9202 15.8231 38 16.0343 38C16.2455 38 16.4567 37.9202 16.6159 37.761L18.1377 36.2392L18.811 36.9126C18.9703 37.0718 19.1815 37.1516 19.3927 37.1516C19.6039 37.1516 19.8151 37.0718 19.9743 36.9126L21.6675 35.2194C21.8229 35.064 21.9065 34.8567 21.9065 34.6377C21.9065 34.4187 21.8229 34.2114 21.6675 34.0561L18.2175 30.606L30.6074 18.2162L34.0613 21.6701C34.2206 21.8294 34.4318 21.9091 34.643 21.9091C34.8542 21.9091 35.0654 21.8294 35.2246 21.6701L36.9178 19.9769C37.2366 19.6581 37.2366 19.1363 36.9178 18.8175L36.2445 18.1442L37.7663 16.6224C38.0694 16.2959 38.0695 15.7779 37.7508 15.4553ZM33.9022 10.1567L35.5195 11.774C35.5234 11.7779 35.5234 11.7821 35.5195 11.786L34.7983 12.5071L33.1729 10.8817L33.9022 10.1567ZM11.7682 35.5262L10.1508 33.8969L10.872 33.1758L12.4974 34.8012L11.7682 35.5262ZM16.0308 36.8329L14.0069 34.809L13.6323 34.4305L8.84365 29.6418L10.1903 28.2952L14.979 33.0838L15.3536 33.4623L17.3772 35.4859L16.0308 36.8329ZM20.7358 34.6378L19.3891 35.9845L16.1105 32.7059L15.7359 32.3274L9.6962 26.2877L11.0429 24.941L17.0865 30.9846L17.4611 31.3631L20.7358 34.6378ZM17.453 29.8453L15.8276 28.2198L28.221 15.8335L29.8464 17.4589L17.453 29.8453ZM34.6314 20.7421L31.3525 17.4632L30.9779 17.0847L24.9382 11.045L26.2849 9.69831L32.3208 15.7342L32.6953 16.1127L35.9739 19.3913L34.6314 20.7421ZM35.4759 17.3837L33.452 15.3599L33.0774 14.9814L28.2926 10.1966L29.6393 8.84988L34.4241 13.6347L34.7987 14.0132L36.8226 16.037L35.4759 17.3837Z" fill="#FF5001"/>
</svg>
