<svg width="45" height="45" viewBox="0 0 45 45" fill="none" xmlns="http://www.w3.org/2000/svg">
<g clip-path="url(#clip0_145_9314)">
<rect width="45" height="45" rx="22.5" fill="white" fill-opacity="0.5"/>
<path d="M14.9791 33.5288C19.4558 41.3793 22.8382 41.4575 24.3428 40.876C24.391 40.8493 26.7735 40.033 27.3966 37.8608C27.7403 36.6625 27.4581 35.2437 26.6035 33.7016C26.0693 32.7378 25.3423 31.8808 24.4708 31.1036C20.578 27.7172 22.0489 23.4374 19.2441 18.3764C14.5743 10.6329 10.3234 12.1699 9.11856 12.8376C6.80506 14.1198 5.31913 17.4631 7.30498 22.4101C8.79431 26.1205 11.9928 28.2541 14.9789 33.5286L14.9791 33.5288ZM23.2016 31.4289C21.8848 31.7808 20.4562 31.2495 19.7618 29.9965C19.0406 28.6952 19.3901 27.0525 20.4884 26.1921C20.7334 27.3159 21.3466 29.5591 23.2016 31.4289ZM8.30106 22.0473C7.11074 18.99 6.87906 15.2755 9.62613 13.753C10.59 13.2189 14.1127 11.9594 18.3071 18.9587C18.3071 18.9587 19.5891 21.272 20.3183 25.0887C18.4869 26.1036 17.7298 28.6022 18.8249 30.5782C19.8666 32.4578 22.1671 33.1988 24.0518 32.2802C24.6935 32.8695 25.1904 33.539 25.6178 34.3103C26.0986 35.1778 26.6216 36.4628 26.3262 37.6346C26.0254 38.6833 25.0936 39.3888 24.1027 39.8747C23.305 40.2539 20.2964 40.8503 15.8466 33.0482C12.8284 27.6018 9.68361 25.565 8.30096 22.0472L8.30106 22.0473Z" fill="#FF5001"/>
<path d="M9.12225 20.4589C10.6754 19.2832 13.2995 17.7659 15.3233 17.2113L15.4196 17.158C15.6606 17.0244 15.7947 16.6981 15.6344 16.4089C15.5811 16.3127 15.4528 16.1947 15.3779 16.1732C12.5215 14.5433 9.50737 15.5838 8.30951 19.9015C8.24502 20.1263 8.30361 20.3456 8.50699 20.4849C8.68355 20.5759 8.92986 20.5655 9.12245 20.4588L9.12225 20.4589ZM13.6219 16.6421C12.3369 17.1651 11.0356 17.8863 9.88431 18.6506C10.6565 17.0886 11.8776 16.2227 13.6219 16.6421Z" fill="#FF5001"/>
<path d="M20.6689 37.9975C21.4168 39.347 23.1396 39.8411 24.489 39.0932C25.8385 38.3454 26.3326 36.6225 25.5848 35.2731C24.8369 33.9236 23.114 33.4295 21.7646 34.1773C20.4149 34.9253 19.921 36.6481 20.6689 37.9975ZM22.2505 35.1681C23.0699 34.714 24.1186 35.0148 24.5728 35.8342C25.6679 37.8103 22.6799 39.4663 21.5847 37.4902C21.1306 36.6708 21.4314 35.6221 22.2506 35.1681L22.2505 35.1681Z" fill="#FF5001"/>
<path d="M13.1789 20.1624C11.9258 20.8569 11.5228 22.4031 12.1906 23.6081L13.3658 25.7286C14.5945 27.9456 16.8115 26.7169 16.8864 26.7384C17.9949 26.124 18.5959 24.594 17.848 23.2445L16.6728 21.124C15.9567 19.946 14.4319 19.468 13.1789 20.1624ZM16.8839 23.7788C17.8455 25.514 15.2431 26.9562 14.2815 25.2211L13.1063 23.1006C12.7056 22.3777 12.9636 21.4787 13.6864 21.0781C14.4093 20.6775 15.3083 20.9354 15.7089 21.6582L16.8839 23.7788Z" fill="#FF5001"/>
<path d="M19.3553 14.5986C19.4087 14.6949 20.8244 17.2494 24.1075 20.2175C24.1342 20.2657 26.7599 22.2755 27.3772 25.7762C27.5475 26.8788 27.9155 27.9977 28.4498 28.9617C30.0576 31.9764 32.5615 32.8567 35.3946 31.0347L35.6837 30.8744C36.8996 29.8856 38.7007 26.9975 34.3899 18.9916C33.0544 16.5818 32.3182 14.3439 31.6674 12.3741C30.9579 10.1843 30.2855 8.28924 29.0562 6.63952C23.1877 -1.44792 13.3085 2.89274 19.3549 14.5985L19.3553 14.5986ZM25.2747 19.8231C28.337 18.7559 30.6987 22.6759 28.2506 24.8515C27.6482 22.2874 26.0713 20.5786 25.2747 19.8231ZM30.6443 12.6893C31.322 14.7076 32.0582 16.9456 33.4472 19.4517C35.0817 22.5146 37.5326 27.96 34.8115 30.0977C32.4338 31.6046 30.6738 30.816 29.3864 28.3795C28.9591 27.6085 28.703 26.8051 28.495 25.9756C30.2462 24.8159 30.8374 22.4726 29.8224 20.6412C28.754 18.7135 26.357 18.026 24.3758 18.9978C21.5259 16.3564 20.2438 14.0432 20.2438 14.0432C16.5583 6.82483 19.4187 4.48374 20.4309 3.92277C23.178 2.40031 26.2264 4.4908 28.1665 7.19549C29.2942 8.77556 29.9133 10.5744 30.6442 12.6893L30.6443 12.6893Z" fill="#FF5001"/>
<path d="M19.5154 10.2259C19.4992 10.424 19.606 10.6166 19.8573 10.7293C20.0069 10.7723 20.2051 10.7886 20.3498 10.7084L20.446 10.6551C21.9889 9.23297 24.6663 7.81205 26.4868 7.11813L26.5349 7.09144C26.7759 6.9579 26.91 6.63154 26.7497 6.34243C26.6696 6.19777 26.4932 6.10669 26.3432 6.06366C24.4707 5.52657 22.8703 5.59451 21.7136 6.23556C19.5184 7.38953 19.5103 10.1029 19.5154 10.2259L19.5154 10.2259ZM20.7903 8.88941C21.3593 7.18802 22.7141 6.56333 24.4745 6.78463C24.0143 6.97676 21.9153 8.07712 20.7903 8.88941Z" fill="#FF5001"/>
<path d="M31.4179 25.1109C30.0684 25.8588 29.5743 27.5817 30.3222 28.9311C31.0701 30.2806 32.7929 30.7747 34.1424 30.0268C35.4918 29.2789 35.986 27.5561 35.2381 26.2066C34.4418 24.884 32.7673 24.3631 31.4179 25.1109ZM31.2379 28.4236C30.7837 27.6042 31.0845 26.5555 31.904 26.1014C32.7234 25.6473 33.7721 25.948 34.2262 26.7675C35.3691 28.7167 32.3329 30.3994 31.2379 28.4236Z" fill="#FF5001"/>
<path d="M24.01 10.3802C22.9014 10.9946 22.2203 12.3799 23.0217 13.8259L24.1969 15.9464C24.9448 17.2959 26.6089 17.5705 27.6692 16.9829L28.103 16.7425L28.0763 16.6943C29.0298 15.9138 29.2934 14.5708 28.679 13.4623L27.5038 11.3418C26.6544 9.92278 25.1185 9.76584 24.01 10.3802ZM27.742 14.0449C28.7036 15.78 26.1012 17.2223 25.1396 15.4872L23.9644 13.3667C23.4569 12.451 23.9179 11.6914 24.5445 11.3442C25.1711 10.9969 26.0595 11.0086 26.567 11.9243L27.742 14.0449Z" fill="#FF5001"/>
</g>
<defs>
<clipPath id="clip0_145_9314">
<rect width="45" height="45" rx="22.5" fill="white"/>
</clipPath>
</defs>
</svg>
