<svg width="45" height="45" viewBox="0 0 45 45" fill="none" xmlns="http://www.w3.org/2000/svg">
<rect width="45" height="45" rx="22.5" fill="white" fill-opacity="0.5"/>
<path d="M11.4164 38.222C11.722 38.222 11.9259 38.0182 11.9768 37.7634L13.4542 23.2427C17.5811 25.1279 20.2306 28.7962 20.7398 29.5603L19.4662 37.6614C19.4153 37.9161 19.6191 38.1708 19.8738 38.2217H19.9247C20.1795 38.2217 20.3833 38.0688 20.3833 37.8141L21.6063 30.3243C22.1158 30.579 22.7273 30.6808 23.4406 30.579C23.4406 30.8847 23.4406 30.3243 23.7462 36.591C23.7462 36.8458 23.95 36.9987 24.1539 37.0496L24.3068 38.0685C24.3577 38.3233 24.5615 38.4762 24.8163 38.4762H24.8672C25.1219 38.4253 25.3257 38.1706 25.2748 37.9158L25.173 36.9987H28.281H28.4339C28.6887 36.8969 28.9434 36.7949 29.1472 36.6422C29.6058 36.744 30.6247 36.9987 31.6437 36.9987C31.8984 36.9987 32.1531 36.9987 32.4079 36.9478V37.9668C32.4079 38.2215 32.6117 38.4762 32.9174 38.4762C33.1721 38.4762 33.4268 38.2724 33.4268 37.9668V36.6931C33.5286 36.6422 33.6816 36.5913 33.7834 36.5402C33.9363 36.4384 34.0381 36.2854 33.9872 36.1325L33.4777 14.122C33.4777 13.8673 33.2739 13.6634 33.0192 13.6634H32.9174L32.3565 6.32678C32.3565 6.07205 32.1018 5.86822 31.8471 5.86822C31.5923 5.86822 31.3885 6.12295 31.3885 6.37769L31.8471 13.5108C29.5033 13.5617 27.9749 14.5806 13.5055 13.9184V6.37763C13.5055 6.1229 13.3016 5.86816 12.996 5.86816C12.6904 5.86816 12.4865 6.072 12.4865 6.37763V13.8674H12.3336C12.1807 13.8674 12.0789 13.9183 11.9771 14.0203C11.8753 14.1221 11.8241 14.2242 11.8241 14.3769V22.5289C11.8241 22.7837 12.028 23.0384 12.2827 23.0384H12.4356L10.9072 37.7117C10.9579 37.9667 11.1617 38.2214 11.4165 38.2214L11.4164 38.222ZM18.2438 18.5047C18.2438 19.7275 17.5305 20.9503 16.053 22.1221L12.8942 22.0712L12.894 14.8871C13.6073 14.938 14.881 14.9889 16.3076 15.04C17.3268 15.957 18.1928 17.0779 18.2439 18.5045L18.2438 18.5047ZM21.6065 29.153C21.3009 28.6944 19.008 25.3317 15.1868 23.09L25.0202 23.2938V28.7964C24.5616 28.9493 24.5616 28.9493 24.4598 29.0002C24.358 29.0002 24.3069 29.0511 24.256 29.102C22.9312 30.121 21.8614 29.3568 21.6066 29.1529L21.6065 29.153ZM28.1787 36.0315H24.7143C24.6631 31.344 23.9499 30.2232 24.969 29.8153C27.3636 28.9491 29.6054 28.8473 29.6054 31.3949C29.6054 32.312 29.4524 34.8085 28.5864 35.7256L28.5355 35.7765C28.4335 35.8783 28.2805 35.9801 28.1787 36.0312L28.1787 36.0315ZM29.7583 35.7767C30.6245 34.1972 30.6245 31.7517 30.6245 31.3951C30.6245 28.6948 28.6885 27.9307 26.0391 28.491V18.6066C26.2429 15.4477 29.3 14.4288 32.4078 14.5306L32.9172 35.7767C32.0508 36.1334 30.6751 35.9805 29.7582 35.7769L29.7583 35.7767ZM26.956 14.9894C25.7332 15.9065 25.1729 17.1293 25.0708 18.6068V22.326L17.4789 22.1731C18.6508 21.0012 19.2112 19.7785 19.2112 18.5048C19.2112 17.0273 18.3961 15.8554 17.7337 15.0912C20.4851 15.1932 21.0455 15.2441 26.9559 14.9894L26.956 14.9894Z" fill="#FF5001"/>
</svg>
