<svg width="45" height="45" viewBox="0 0 45 45" fill="none" xmlns="http://www.w3.org/2000/svg">
<rect width="45" height="45" rx="22.5" fill="white" fill-opacity="0.5"/>
<path d="M17.0524 3.6554C17.0524 3.35777 16.8152 3.06013 16.5187 3.06013C16.2223 3.06013 15.9258 3.29829 15.9258 3.59593C15.8073 6.27492 13.4947 7.58439 13.0798 11.3346C12.8425 13.5967 13.0205 17.1091 15.2144 20.9781C19.7204 28.8957 8.86968 32.229 15.5106 40.9204C15.6886 41.1586 16.0443 41.218 16.3407 41.0393C16.5779 40.8606 16.6372 40.5035 16.4592 40.2059C14.8582 38.0627 14.2653 35.6222 14.7989 33.1815C16.1627 32.8244 22.0331 31.6336 27.0729 35.9199L27.1914 40.2655C27.1914 40.5631 27.4286 40.8013 27.7843 40.8013C28.0807 40.8013 28.3772 40.5036 28.3179 40.206L28.1995 35.9199C31.0455 33.9554 33.4766 31.3362 33.5358 27.8831C33.6543 23.7159 30.0969 19.7873 26.8357 17.3464C27.3101 16.8106 27.8438 15.9772 28.3774 14.8461C28.7331 14.0127 28.4366 13.0006 27.6065 12.5245C21.618 9.25031 21.7365 3.83311 21.7365 3.59527C21.7365 3.29763 21.4993 3 21.2028 3C20.9064 3 20.6099 3.23816 20.6099 3.53579C20.6099 3.77395 20.3727 9.84585 27.0728 13.5371C27.3693 13.7158 27.4877 14.0729 27.3693 14.311C26.8948 15.3826 26.4207 16.1566 26.0055 16.5732C25.531 17.0495 25.5906 17.7637 26.1239 18.121C26.6576 18.5376 27.7249 19.3116 28.7328 20.3831L22.0326 26.0979C20.6096 25.6216 19.1274 25.2049 17.5264 24.7881C17.4671 23.2403 17.0519 21.7521 16.2218 20.2639C14.1467 16.6326 13.9687 13.4181 14.2059 11.3346C14.5621 7.94178 16.8745 6.92965 17.0524 3.65563L17.0524 3.6554ZM27.6659 34.9089C22.804 30.9205 17.4081 31.4563 15.1551 31.9323C15.748 30.3249 16.2816 29.9678 16.8745 28.4797C17.4082 28.7773 18.1791 29.3131 18.594 30.1465C18.7124 30.4442 19.0684 30.5631 19.3648 30.3847C19.6613 30.2657 19.7797 29.9084 19.602 29.6107C19.0091 28.4202 17.8826 27.7058 17.1709 27.3486C17.2894 26.9321 17.3489 26.5152 17.4081 26.0987C23.9898 27.706 29.5633 30.4442 31.2237 31.3374C30.5123 32.5871 29.3265 33.7779 27.6663 34.909L27.6659 34.9089ZM29.5039 21.3954C31.0456 23.1812 32.4687 25.4433 32.4091 27.9436C32.4091 28.777 32.1719 29.6104 31.8755 30.3844C30.6305 29.7296 27.4284 28.1817 23.278 26.6936L29.5039 21.3954Z" fill="#FF5001"/>
</svg>
