<svg width="45" height="45" viewBox="0 0 45 45" fill="none" xmlns="http://www.w3.org/2000/svg">
<rect width="45" height="45" rx="22.5" fill="white"/>
<path d="M35.3046 35.7603C34.5372 35.7603 31.7746 35.1977 29.9331 28.2401C29.882 28.0865 27.1707 14.2739 26.966 12.2282C27.3754 10.7958 27.2218 9.56803 26.4545 8.54493C25.1243 6.85674 22.2083 6.19165 19.088 6.03833C18.9858 5.98722 18.8322 5.98722 18.73 6.03833C15.7627 5.93588 12.0797 6.24276 9.41901 6.70318C9.1119 6.75428 8.95858 7.01005 9.00968 7.26582C9.06079 7.5216 9.31656 7.72626 9.57233 7.67516C10.9536 7.41938 13.1534 7.16361 15.5577 7.06114C14.8927 8.54463 13.8184 11.9721 14.7393 16.3203C13.2558 16.4225 11.6187 16.4225 10.0328 16.2691C9.77701 16.218 9.52124 16.4227 9.47014 16.7296C9.41903 16.9854 9.6237 17.2411 9.93057 17.2922C10.8004 17.3944 11.6188 17.3944 12.4885 17.3944C15.3023 17.3944 17.9624 17.0365 19.1388 16.8318C18.7295 20.106 19.2924 23.2264 19.3435 23.3802C19.6503 26.4496 18.1668 27.7285 18.0646 27.7796C18.0646 27.7796 18.0135 27.7796 18.0135 27.8307C16.4789 29.3654 17.0926 31.2582 17.7066 32.128C19.5484 34.2766 18.3717 36.8345 21.3899 38.3694C24.2547 39.8529 26.608 37.0393 24.8685 36.4766C22.7709 35.8115 23.2314 29.7238 23.5383 27.7287L24.1009 25.0686C25.0218 26.7568 25.5844 28.3938 25.0729 30.2353C25.0218 30.4911 24.4078 32.6909 25.2265 34.021C25.5844 34.5837 26.2496 34.8908 26.71 34.8908C26.71 34.8908 28.296 34.8908 29.5748 36.6812C31.2119 38.9834 35.1509 39.2392 35.9694 36.7834C36.0205 36.5787 36.0205 36.323 35.8672 36.1183C35.7645 35.9141 35.5599 35.8119 35.3041 35.7606L35.3046 35.7603ZM16.632 7.06113H18.1155C17.5015 8.49356 16.3762 11.8188 17.1946 16.1159C16.7342 16.167 16.2227 16.2181 15.66 16.2694C14.688 11.6139 16.1715 8.03286 16.632 7.06094V7.06113ZM24.3054 37.346C23.845 37.7554 22.8219 38.0111 21.7988 37.4996C19.3433 36.2207 20.4175 33.8163 18.4735 31.5142C18.4224 31.4631 17.348 29.9282 18.6782 28.5471C18.934 28.3425 20.6222 26.7567 20.2642 23.2779C20.2642 23.2268 18.934 16.0138 21.6966 12.3306C21.8502 12.1259 21.7988 11.819 21.5944 11.6144C21.3898 11.4608 21.0829 11.5121 20.8782 11.7166C20.0084 12.8932 19.4969 14.3256 19.2411 15.758C18.9854 15.8091 18.6271 15.8602 18.167 15.9116C17.2972 11.461 18.6785 8.03317 19.1389 7.06126C22.0038 7.21482 24.5615 7.8286 25.6361 9.15877C26.8127 10.6423 25.6872 12.5863 25.6361 12.9445L23.3339 23.6361L22.5663 27.5238C22.413 28.3936 21.2875 35.9647 24.3057 37.346L24.3054 37.346ZM30.3931 36.0672C28.9096 34.021 27.0679 33.8675 26.761 33.8675C25.4821 33.7139 25.6868 31.6678 25.9936 30.5422C27.0168 27.9332 24.9195 24.4545 24.4077 23.6357L26.3516 14.581C27.1189 19.0829 28.9096 28.0352 29.0118 28.4959C30.8022 35.2486 33.5137 36.5274 34.9461 36.7324C34.1786 37.9602 31.5697 37.7558 30.3931 36.0676L30.3931 36.0672Z" fill="#FF5001"/>
</svg>
