<svg width="45" height="45" viewBox="0 0 45 45" fill="none" xmlns="http://www.w3.org/2000/svg">
<rect width="45" height="45" rx="22.5" fill="white" fill-opacity="0.5"/>
<path d="M27.5204 8.04597C27.383 8.04597 27.2457 8.09172 27.154 8.22918C23.9026 12.8087 19.8267 11.847 17.8118 8.27493C17.7661 8.13768 17.5829 8.04597 17.4456 8.04597C11.3089 8.13768 8.0117 12.9919 7.96582 18.2123C7.96582 18.3955 8.05732 18.5328 8.24053 18.6245L12.3621 20.5479C12.4536 20.5937 12.591 20.5937 12.7285 20.5479C12.82 20.5022 12.9117 20.4105 12.9575 20.319L13.5071 18.9909C14.2397 21.6012 14.2397 24.7153 14.2397 25.7683C14.1023 25.7226 13.965 25.7226 13.8276 25.7226C13.6901 25.6768 13.5529 25.7226 13.4611 25.8141C13.3696 25.9056 13.3237 26.043 13.3237 26.1805C13.3237 26.2263 13.5984 32.1337 12.5911 35.3397C12.5453 35.4772 12.5453 35.5687 12.6368 35.7061C12.7283 35.8436 12.7743 35.8894 12.9115 35.9351C18.1779 37.4006 28.2528 38.7286 32.3288 34.9735C32.4203 34.882 32.4663 34.7446 32.4663 34.6071C32.4663 34.4696 32.4205 34.3781 32.3288 34.2866C32.2373 34.1951 31.3672 33.0043 31.3672 26.181C31.3672 25.9063 31.0925 25.6773 30.8176 25.7688H30.7261C30.7261 24.7155 30.7261 21.6015 31.4587 19.0368L32.0084 20.3648C32.0541 20.4563 32.1458 20.548 32.2373 20.5937C32.3288 20.6395 32.4663 20.6395 32.6038 20.5937L36.7253 18.6703C36.8628 18.5788 37 18.4413 37 18.2581C36.9543 13.0375 33.6113 8.13765 27.5202 8.0459L27.5204 8.04597ZM29.7188 14.1827L28.528 14.0912L28.757 9.0078C29.1692 9.05355 29.5813 9.14527 29.9477 9.23677C29.9018 11.2517 29.856 13.4498 29.7188 14.1827ZM30.4972 26.6844V27.3256L29.0774 27.7378C28.8942 27.4631 28.711 27.2341 28.5737 27.0051C29.3981 26.8677 30.0392 26.7762 30.4972 26.6844ZM30.9551 32.9588C30.6346 33.2335 30.085 33.6914 29.5813 33.9204C30.2225 31.4933 29.9477 29.7531 29.4439 28.5166L30.4972 28.2419C30.5889 30.4401 30.7262 31.9513 30.9551 32.9589L30.9551 32.9588ZM14.2397 29.3867C17.9948 29.6156 25.139 29.982 28.8944 29.6156C29.1234 30.5315 29.2149 31.6765 28.8944 33.1878C22.7118 34.699 15.7056 33.0503 14.0567 32.6381C14.1482 31.4933 14.1942 30.3482 14.2399 29.3867L14.2397 29.3867ZM26.0549 26.3642L27.9781 17.7091L28.9857 17.8006C28.6192 19.5408 27.5659 24.8073 27.2912 26.2727C26.925 26.2729 26.5128 26.3187 26.0549 26.3644V26.3642ZM27.3829 16.7473L27.4286 16.2436L30.0847 16.4726L30.039 16.9762L27.3829 16.7473ZM27.5201 15.3735L27.5659 14.8698L30.222 15.0988L30.1762 15.6025L27.5201 15.3735ZM27.7491 8.96205H27.8406L27.6119 13.9997H27.1997C26.9707 13.9539 26.7418 14.1371 26.7418 14.4118C26.7418 14.5033 26.5128 17.2969 26.5128 17.1596C26.467 17.7093 27.1082 17.6633 27.1539 17.6633L25.1848 26.456C23.1699 26.5475 21.5669 26.5475 19.8724 26.456L17.949 17.6633H18.178C18.4069 17.6633 18.5901 17.4343 18.5901 17.1596L18.3612 14.4118C18.3612 14.1829 18.1322 13.9997 17.9033 13.9997H17.3536L17.1246 8.96205H17.1704C19.7807 12.9006 24.0395 13.7247 27.7491 8.96205ZM17.6745 26.2269C17.3998 24.7614 16.3465 19.5407 15.98 17.8007L16.9876 17.7092L18.911 26.3643C18.4989 26.3185 18.0867 26.2728 17.6745 26.2268V26.2269ZM15.0642 9.23677C15.4307 9.14527 15.8428 9.05356 16.255 9.00781L16.4839 14.0912L15.2932 14.1827C15.11 13.4499 15.0642 11.2517 15.0642 9.23677ZM14.7436 15.1441L17.3996 14.9151L17.4456 15.3731L14.7895 15.602L14.7436 15.1441ZM17.5371 16.2889L17.5828 16.7926L14.9268 17.0216L14.881 16.5179L17.5371 16.2889ZM13.9192 17.5255C13.8735 17.3422 13.6903 17.2507 13.507 17.2507C13.3238 17.2507 13.1866 17.3422 13.0949 17.5255L12.2705 19.5404L8.83587 17.9376C8.92758 16.6554 9.52295 11.2974 14.1941 9.51139C14.1941 11.8012 14.2399 13.404 14.3774 14.2741H14.2399C14.0109 14.2741 13.8277 14.503 13.8277 14.7777C13.8277 14.961 14.0567 17.617 14.0567 17.5255C14.0567 17.7545 14.2856 17.9377 14.5146 17.9377H14.5604L15.11 17.8919C15.7054 20.7769 16.4838 24.6693 16.7587 26.1352C16.2091 26.0895 15.6597 25.9978 15.156 25.9063C15.1558 24.8072 15.1558 20.5939 13.9193 17.5259L13.9192 17.5255ZM27.4286 27.1423C27.6576 27.3256 28.2073 27.8293 28.5735 28.7451C24.4062 29.1115 16.1629 28.6076 14.2399 28.4704V26.6386C18.2239 27.3713 22.895 27.6002 27.4287 27.1423L27.4286 27.1423ZM13.5527 35.1104C13.6902 34.6067 13.7817 34.057 13.8732 33.4617C18.2695 34.6524 23.9025 35.1561 28.5733 34.1028C28.3901 34.6982 28.1611 35.3393 27.8407 36.0262C23.6274 36.988 17.7196 36.1637 13.5524 35.1104H13.5527ZM28.9858 35.7515C29.0773 35.4768 29.169 35.2478 29.2605 34.9729C29.9474 34.8354 30.6802 34.286 31.1839 33.8739C31.2754 34.1028 31.3671 34.3318 31.4129 34.4692C30.7717 35.0189 29.9476 35.431 28.9858 35.7515ZM32.6952 19.5402L31.8708 17.5253C31.8251 17.3421 31.6419 17.2506 31.4587 17.2506C31.2755 17.2506 31.1382 17.3421 31.0465 17.5253C29.8102 20.5935 29.8102 24.8068 29.8559 25.9057C29.4437 25.9972 28.8943 26.0889 28.2072 26.1346C28.4819 24.6692 29.2605 20.7766 29.8559 17.846L30.4056 17.8918H30.4513C30.6803 17.8918 30.8635 17.7085 30.9092 17.4796L31.1382 14.7318C31.1382 14.5944 31.0925 14.5029 31.0467 14.4114C30.9552 14.3199 30.8635 14.2739 30.7262 14.2739H30.5888C30.7262 13.4038 30.8177 11.8468 30.772 9.51121C35.3972 11.2972 35.9926 16.6097 36.0843 17.9375L32.6952 19.5402Z" fill="#FF5001"/>
</svg>
