<svg width="45" height="45" viewBox="0 0 45 45" fill="none" xmlns="http://www.w3.org/2000/svg">
<rect width="45" height="45" rx="22.5" fill="white" fill-opacity="0.5"/>
<path d="M34.4913 39.9993C34.7457 39.9993 35.0001 39.7957 35.0001 39.4905V16.3381C35.0001 11.4533 30.9805 7.43359 26.0447 7.43359H9.45608C9.20168 7.43359 8.94727 7.63717 8.94727 7.94241C8.94727 8.24766 9.15084 8.45123 9.45608 8.45123H24.925C24.8233 10.2832 23.9074 16.8981 17.6487 21.1213C13.6288 21.5285 9.55803 21.681 9.45608 21.681C9.20168 21.681 8.94727 21.9354 8.9981 22.1898C8.9981 22.4442 9.25251 22.6986 9.50692 22.6478C9.9649 22.6478 19.8873 22.3425 24.0091 20.9686C23.2459 23.6145 21.8211 30.7894 24.9759 38.7782C25.0776 39.0326 25.3831 39.1342 25.6374 39.0326C25.8919 38.9309 25.9935 38.6254 25.8919 38.371C24.1618 33.995 23.8566 29.8222 24.0599 26.6167C27.52 27.2782 31.0819 26.2096 33.9821 24.1235L33.9824 39.491C33.9824 39.7963 34.2368 39.9999 34.4912 39.9999L34.4913 39.9993ZM25.2306 20.3072C29.403 16.5417 31.5401 12.929 32.3036 11.4531C33.3212 12.7762 33.9828 14.4043 33.9828 16.1854C33.5248 16.8978 30.6244 20.8669 24.5691 22.6989C24.8235 21.4777 25.1288 20.6125 25.2307 20.3073L25.2306 20.3072ZM19.5823 20.8669C25.0779 16.3381 25.8409 10.2322 25.9428 8.40011H26.0445C28.1817 8.40011 30.1661 9.26525 31.5908 10.6389C31.082 11.7074 28.9957 15.6257 24.5179 19.5944C23.5511 20.1543 21.7191 20.5615 19.5819 20.8667L19.5823 20.8669ZM24.1619 25.5992C24.2127 24.9885 24.3146 24.378 24.3654 23.8692C29.5557 22.4444 32.5581 19.544 33.9824 17.9157V22.8516C33.1683 23.5129 29.0465 26.5661 24.1615 25.5992H24.1619Z" fill="#FF5001"/>
</svg>
