<svg width="45" height="45" viewBox="0 0 45 45" fill="none" xmlns="http://www.w3.org/2000/svg">
<rect width="45" height="45" rx="22.5" fill="white"/>
<path d="M39.4211 20.2957C39.6906 19.5949 39.4211 18.9482 38.8282 18.5707C39.1516 17.3309 37.7502 16.2529 36.618 17.0614L34.6776 18.4092C34.6776 18.3015 34.6237 18.1935 34.5699 18.0858C34.1386 17.6007 33.0067 18.463 32.4676 18.8405C30.8506 20.0804 29.0717 22.0749 28.8022 22.3983C28.2632 23.0453 27.0772 23.4224 26.4843 22.6678C25.2442 21.2123 19.3688 13.7194 17.6433 14.4741C17.5356 14.528 17.4815 14.5819 17.3738 14.6898L13.1152 10.1617C12.8996 9.94609 12.5762 9.94609 12.3606 10.1617C12.1449 10.3774 12.1449 10.7008 12.3606 10.9164L16.6191 15.4984C14.6246 17.6006 12.199 20.1342 10.9591 21.374L5.892 16.9539C5.67634 16.7382 5.35298 16.7921 5.13731 17.0077C4.92166 17.2234 4.97551 17.5467 5.19117 17.7624L10.2583 22.1825L10.2044 22.2364C10.1506 22.2902 10.0967 22.3982 10.0426 22.5059C9.50361 25.1474 18.5056 28.4356 21.4706 34.0419C22.7105 36.4678 24.9207 38.2467 27.1845 36.7911C27.6697 36.4677 28.2087 36.0903 28.8016 35.6051C28.8554 35.6051 28.8554 35.5512 28.9093 35.5512C32.6288 32.4787 37.2109 26.8189 37.4263 26.5489C37.534 26.4412 37.534 26.2793 37.534 26.1175C37.534 26.0098 37.4263 25.9019 37.3722 25.7942C39.2049 24.77 39.3129 23.584 39.2049 23.045C39.4744 22.5598 39.4744 22.1285 39.3667 21.8051C39.6365 21.3199 39.5288 20.6191 39.4208 20.2957L39.4211 20.2957ZM36.2408 26.3332C36.1331 26.4409 36.0251 26.6027 35.9174 26.7104C34.1924 25.4167 33.4915 23.6916 33.2762 22.2903V22.2364C33.0605 20.9965 33.1685 20.0262 33.2223 19.649C33.2762 19.5951 33.33 19.5413 33.3841 19.5413C33.0603 21.1043 33.1682 24.0692 36.2408 26.3334L36.2408 26.3332ZM32.0902 30.969C31.3355 30.7533 29.1253 30.1604 27.7238 29.2978C27.562 26.7642 27.9395 24.7159 28.1011 24.0151C28.1549 24.0151 28.2629 23.9612 28.3167 23.9073C28.9096 25.1472 30.6346 28.0041 34.4619 28.3275C33.8149 29.1362 33.0064 30.0527 32.0902 30.969ZM32.144 21.6972C31.7668 21.6434 31.4432 21.4816 31.2275 21.32C31.497 21.0505 31.8204 20.781 32.144 20.4577C32.0902 20.8887 32.0902 21.2659 32.144 21.6972ZM29.5566 23.0987C29.7722 22.8292 30.0956 22.5058 30.4731 22.1284C30.8503 22.3979 31.4973 22.7212 32.3058 22.8292C32.6292 24.2847 33.33 25.9556 34.9471 27.3572C31.1736 27.2495 29.6643 24.3924 29.2871 23.4222C29.3409 23.2604 29.4486 23.2066 29.5566 23.0987ZM18.0206 15.4978C18.0744 15.4978 18.1283 15.5517 18.2362 15.6055C17.212 16.9531 14.0856 21.0498 11.0667 22.721C11.9291 21.9127 15.5407 18.1931 18.0202 15.4975L18.0206 15.4978ZM13.1691 24.8776C12.5763 24.4465 12.0373 24.0152 11.6598 23.5839C12.9534 22.8292 14.301 21.6973 15.4332 20.5113C15.1637 21.9129 14.5708 23.8534 13.1691 24.8776V24.8776ZM14.0318 25.5246C16.2419 23.638 16.6192 20.0802 16.7271 19.1638C17.859 17.9239 18.7217 16.7921 19.153 16.1451C19.6382 16.5223 20.2311 17.0616 21.0396 17.8701C20.9857 18.9481 20.6624 24.3928 16.9966 27.6266C15.8645 26.8719 14.8403 26.1172 14.0318 25.5243V25.5246ZM17.7511 28.3276C20.9316 25.4169 21.7401 21.1041 21.9558 18.9479C22.7644 19.8644 23.7347 20.9962 24.8666 22.3979C24.8127 23.1526 24.2737 26.6027 20.5003 30.8609C19.6917 29.9983 18.7753 29.1359 17.7511 28.3274V28.3276ZM26.6454 35.8745C24.9743 36.9526 23.3572 35.2816 22.3869 33.5027C21.7399 32.2629 21.5783 32.1552 21.255 31.7239C24.4355 28.1661 25.5136 25.1471 25.8369 23.5302C26.1603 23.8536 26.5916 24.0693 27.0768 24.1231C26.8612 25.0934 26.5917 27.0339 26.6996 29.4059C26.6458 29.5136 26.6458 29.6754 26.6996 29.7831C26.8073 31.4001 27.1309 33.179 27.8315 34.9579C27.454 35.3351 27.0229 35.6587 26.6455 35.8744L26.6454 35.8745ZM28.6938 34.3111C28.2625 33.0174 27.993 31.7775 27.8314 30.5915C29.0174 31.1844 30.365 31.6157 31.2815 31.8314C30.4189 32.694 29.5565 33.5564 28.6939 34.3111H28.6938ZM36.4027 25.1473C34.3004 23.3684 34.1386 21.2662 34.3543 19.9184C34.57 19.8645 34.1387 20.0802 37.2651 17.9238C37.4269 17.8161 37.5884 17.8161 37.8041 18.0856C37.8579 18.1933 37.8579 18.3013 37.8041 18.409C37.7502 18.4628 37.6964 18.5708 37.5346 18.6246C36.4565 18.8403 35.648 19.3254 35.1628 20.0263C35.001 20.2419 35.0551 20.5653 35.3246 20.7271C35.5403 20.8889 35.8637 20.8348 36.0255 20.5653C36.4027 19.9724 37.1573 19.7029 37.7505 19.595C37.9123 19.5411 38.0738 19.4872 38.1818 19.4331C38.2895 19.487 38.4513 19.6488 38.5051 19.8104C37.3733 19.9181 34.9474 20.7269 35.7021 21.5892C35.8639 21.8049 36.2411 21.8587 36.4568 21.6431C37.1038 21.1041 38.0199 20.8884 38.5051 20.8345V21.1579C37.9661 21.104 36.8881 21.2117 35.8098 22.1282C35.5941 22.29 35.5403 22.6672 35.7559 22.8829C35.9177 23.0985 36.2949 23.1524 36.5106 22.9367C37.3192 22.2897 38.02 22.1821 38.3972 22.2359C38.3972 22.2898 38.3972 22.3977 38.3433 22.5054C37.373 22.5593 35.4864 23.3678 36.1331 24.1225C36.2949 24.3382 36.6721 24.392 36.8878 24.1764C37.373 23.7991 37.8581 23.6373 38.1815 23.5294C38.0735 23.9073 37.6963 24.5543 36.4026 25.1472L36.4027 25.1473Z" fill="#FF5001"/>
</svg>
