<svg width="45" height="45" viewBox="0 0 45 45" fill="none" xmlns="http://www.w3.org/2000/svg">
<rect width="45" height="45" rx="22.5" fill="white" fill-opacity="0.5"/>
<path d="M37.6546 16.0674C38.5997 15.4372 38.7046 14.1772 38.1272 13.4949C37.7598 13.0223 36.8147 12.4449 35.8171 13.0223C35.7647 12.7074 35.6595 12.3922 35.6071 12.3398C35.1345 11.4998 34.0846 11.2373 33.2443 11.7096L28.5191 14.3872C28.2566 14.1247 26.6289 14.0723 25.8939 14.5448L25.8414 14.5973C24.6863 15.6997 23.9512 15.9624 23.5839 16.1198C23.2165 16.2247 23.1638 16.1723 23.1113 15.8049C23.1113 15.7 23.0589 15.5948 23.0064 15.5424L25.054 12.7598C25.579 12.0247 25.4741 10.9747 24.739 10.397C24.004 9.81955 22.954 9.872 22.3763 10.5546L19.9086 13.1798C19.016 12.9173 15.1309 15.7524 13.7658 21.685C13.6609 22.2624 13.5557 22.6825 13.0307 23.4176C11.8756 25.0453 5.31267 28.2479 5.26069 28.3004C4.99819 28.458 4.94575 28.7205 5.05065 28.983C5.20824 29.2455 5.47074 29.2979 5.73323 29.193L8.98833 27.4604C9.51333 28.7729 11.1935 32.0807 15.6037 34.4434L11.7711 37.0684C11.5611 37.226 11.5086 37.5409 11.6662 37.8034C11.8238 38.0135 12.1388 38.0659 12.4013 37.9083C19.2264 33.078 19.2264 32.6581 20.959 32.6057C24.9492 32.4481 30.3571 28.9304 33.4547 26.3578C33.6647 26.2002 34.6098 25.5179 34.5047 24.2052C34.5047 24.1003 34.4523 23.9951 34.3998 23.9427L37.6025 21.6851C38.3375 21.1601 38.4424 20.1101 38.0226 19.5324L37.7076 19.2175C38.8098 18.5349 38.9148 16.8023 37.6547 16.0673L37.6546 16.0674ZM27.6792 15.1223C27.7841 16.2775 28.5719 19.2177 33.4544 24.4152C33.4544 24.7826 33.2969 25.0978 33.1395 25.2551C28.7293 21.6851 27.2067 16.5922 26.8391 15.1746C27.0489 15.1221 27.3641 15.1221 27.679 15.1221L27.6792 15.1223ZM31.8795 26.3056C30.4618 25.3605 24.4764 21.1603 24.3718 16.8549C24.9492 16.5924 25.5269 16.1723 25.9468 15.8574C26.4718 17.7476 28.0994 22.4728 32.3524 25.9906C32.1424 26.043 31.9848 26.1479 31.8799 26.3055L31.8795 26.3056ZM27.5744 29.1408C24.5293 28.3009 22.219 26.1482 20.4862 23.8906C21.0637 20.583 22.6914 17.9053 23.2163 17.118H23.3212C23.6362 21.5807 29.0964 25.6758 30.9867 26.9362C29.7791 27.8284 28.6242 28.5635 27.5742 29.1411L27.5744 29.1408ZM23.1116 11.1324C23.3741 10.8699 23.7942 10.8175 24.1092 11.08C24.3717 11.3425 24.4241 11.7623 24.2141 12.0775L21.9565 15.1753C21.484 15.0704 20.9065 14.7552 20.4864 13.9152L23.1116 11.1324ZM19.4889 14.2826C20.1714 15.7003 21.379 16.1728 22.219 16.2777C22.2714 16.4353 22.3239 16.5402 22.3766 16.6451C21.7991 17.4851 20.4339 19.7953 19.7513 22.788C18.0187 20.1627 17.1261 17.6427 16.8636 16.9076C17.8611 15.4375 18.9114 14.6501 19.4889 14.2826ZM9.88103 26.9881C11.3511 26.3579 12.4011 25.5705 13.1361 24.8354C13.6611 26.3055 15.1837 28.9832 19.9087 31.7658C18.3337 32.1859 17.021 33.2359 16.496 33.7609C11.9811 31.4508 10.3007 28.1432 9.8806 26.9883L9.88103 26.9881ZM21.589 31.5033C14.9736 28.0906 14.0287 24.5729 13.8709 23.8378C15.0261 22.1052 14.5011 20.8976 16.1285 18.0099C17.126 20.6875 20.2238 27.5125 26.3143 29.823C25.1069 30.4532 23.0067 31.3456 21.5891 31.5032L21.589 31.5033ZM37.1297 18.3251L35.8697 19.0601L32.8246 20.8452H32.7721C32.5096 21.0028 32.4572 21.3177 32.5621 21.5278C32.7197 21.7903 33.0346 21.8427 33.2447 21.7378L36.3424 19.9528C36.7098 19.7427 36.9726 20.0577 37.0775 20.1628C37.1824 20.4778 37.1299 20.7403 36.9199 20.8454L33.6123 23.2081C29.7797 18.9554 28.8871 16.4356 28.7295 15.3849L33.7172 12.5499C34.5047 12.1298 35.2397 13.2325 34.5571 13.7575L29.8319 16.5925C29.5694 16.7501 29.517 17.065 29.6743 17.2751C29.8319 17.5376 30.1469 17.59 30.3569 17.4327C33.0345 15.8577 33.9797 15.3327 36.2897 13.915C36.8147 13.6001 37.2348 14.0199 37.3397 14.1251V14.1775C37.5498 14.5449 37.4446 14.965 37.1297 15.2275L31.4593 18.8503C31.1968 19.0079 31.1444 19.3229 31.3017 19.5329C31.4593 19.7429 31.7743 19.8478 31.9843 19.6905L36.2894 16.9604C36.8144 16.6454 37.2345 17.0128 37.3395 17.118C37.3395 17.118 37.3395 17.1704 37.3919 17.1704C37.6546 17.5373 37.5497 18.0623 37.1296 18.3248L37.1297 18.3251Z" fill="#FF5001"/>
</svg>
