<svg width="17" height="17" viewBox="0 0 17 17" fill="none" xmlns="http://www.w3.org/2000/svg">
<g clip-path="url(#clip0_275_18913)">
<path d="M10.3907 0.546873C9.95007 0.643748 9.58757 0.846873 9.24695 1.19062C9.0282 1.40937 8.95007 1.51562 8.83132 1.75C8.75007 1.90937 8.67195 2.10312 8.6532 2.175L8.61882 2.3125H4.76882H0.918821L0.781321 2.38125C0.590696 2.47812 0.493821 2.65 0.509446 2.85312C0.525071 3.02187 0.593821 3.1375 0.750071 3.24062L0.853196 3.3125H4.73132H8.60945L8.6782 3.54062C8.87507 4.18437 9.43132 4.75937 10.0876 5C10.7219 5.23125 11.3657 5.1875 11.9782 4.86875C12.5157 4.5875 12.9969 3.98125 13.1407 3.39687L13.1626 3.3125H14.6563H16.1469L16.2501 3.24062C16.4063 3.1375 16.4751 3.02187 16.4907 2.85312C16.5063 2.65 16.4094 2.47812 16.2188 2.38125C16.0813 2.3125 16.0719 2.3125 14.6188 2.3125H13.1594L13.1251 2.17812C13.0626 1.94375 12.8532 1.55312 12.6719 1.33437C12.2313 0.803123 11.5563 0.493748 10.8532 0.503123C10.7032 0.506248 10.4938 0.524998 10.3907 0.546873ZM11.2844 1.55937C11.7657 1.70937 12.1063 2.10625 12.1938 2.62187C12.3407 3.475 11.5626 4.26562 10.7094 4.13125C9.92195 4.00937 9.40632 3.23437 9.60945 2.48437C9.67507 2.24375 9.85007 1.95937 10.0188 1.81875C10.1563 1.70312 10.4219 1.56562 10.5719 1.53125C10.7626 1.48437 11.0844 1.5 11.2844 1.55937Z" fill="black"/>
<path d="M5.54688 6.25002C4.74688 6.45939 4.13438 7.03752 3.8875 7.81877L3.83438 7.99689L2.325 8.00627C0.85625 8.01564 0.815625 8.01877 0.73125 8.08127C0.565625 8.20314 0.515625 8.30314 0.515625 8.50002C0.515625 8.69689 0.565625 8.79689 0.73125 8.91877C0.815625 8.98127 0.85625 8.98439 2.32812 8.99377L3.84063 9.00314L3.89062 9.17814C4.04063 9.69064 4.44688 10.2094 4.91875 10.4969C5.01562 10.5531 5.21563 10.6438 5.36562 10.6969C5.6 10.7781 5.7 10.7938 6.025 10.8063C6.5 10.825 6.7375 10.775 7.15625 10.5688C7.68125 10.3125 8.14687 9.77502 8.31875 9.22814L8.39062 9.00002L12.2875 8.99377C16.1656 8.98439 16.1844 8.98439 16.2688 8.91877C16.4344 8.79689 16.4844 8.69689 16.4844 8.50002C16.4844 8.30314 16.4344 8.20314 16.2688 8.08127C16.1844 8.01564 16.1656 8.01564 12.2875 8.00627L8.39062 8.00002L8.31875 7.76877C8.14687 7.22189 7.675 6.67814 7.14375 6.42189C6.9875 6.34689 6.76875 6.26252 6.65625 6.23752C6.37188 6.16877 5.825 6.17502 5.54688 6.25002ZM6.54063 7.24689C7.30938 7.51252 7.65625 8.39064 7.28438 9.11877C7.14062 9.40314 6.87188 9.62814 6.54063 9.75002C6.37813 9.80939 6.3 9.81877 6.05625 9.80627C5.8125 9.79689 5.73125 9.77814 5.55312 9.69689C4.8875 9.38439 4.6 8.57814 4.91875 7.92189C5.07188 7.61564 5.3 7.40627 5.64687 7.26252C5.88438 7.16564 6.28125 7.15939 6.54063 7.24689Z" fill="black"/>
<path d="M10.4844 11.8875C9.63445 12.0531 8.91882 12.675 8.6782 13.4594L8.60945 13.6875H4.73132H0.853196L0.750071 13.7563C0.593821 13.8625 0.525071 13.9781 0.509446 14.1469C0.493821 14.35 0.590696 14.5219 0.781321 14.6188L0.918821 14.6875H4.76882H8.61882L8.6532 14.825C8.67195 14.8969 8.7532 15.0906 8.83445 15.2531C9.07507 15.7375 9.5157 16.1313 10.0594 16.3531C10.9282 16.7063 12.0563 16.4125 12.6688 15.6688C12.8688 15.4281 13.0344 15.1219 13.1094 14.8688L13.1594 14.6875H14.6219C16.0719 14.6875 16.0813 14.6875 16.2188 14.6188C16.4094 14.5219 16.5063 14.35 16.4907 14.1469C16.4751 13.9781 16.4063 13.8625 16.2501 13.7594L16.1469 13.6875H14.6563H13.1688L13.1126 13.5063C12.9969 13.1344 12.8157 12.8469 12.5157 12.5469C12.2001 12.2281 11.9032 12.05 11.5001 11.9406C11.1969 11.8563 10.7657 11.8344 10.4844 11.8875ZM11.1876 12.8938C11.8532 13.0438 12.3063 13.7156 12.1938 14.3781C12.1282 14.7594 11.9282 15.075 11.6219 15.2781C11.0126 15.6844 10.1751 15.5125 9.78132 14.9C9.35632 14.2438 9.60007 13.3406 10.2938 13C10.6094 12.8438 10.8469 12.8156 11.1876 12.8938Z" fill="black"/>
</g>
<defs>
<clipPath id="clip0_275_18913">
<rect width="16" height="16" fill="white" transform="translate(0.5 0.5)"/>
</clipPath>
</defs>
</svg>
